STARTFONT 2.1
COMMENT ======================================================================
COMMENT Font Status: Complete Base; No Extensions
COMMENT ***********
COMMENT Fidel20.bdf is a 100% scale from EthioLaTeX ethio[xyz]15.300pk  
COMMENT NOTE!!  This is a size 30 font at 100dpi, NOT size 20.  We are lieing
COMMENT to Netscape for convenience.
COMMENT ***********
COMMENT This Is The Unicode Ordered Ethiopic Font In JIS Encoding Based On UTC-95-055A.
COMMENT Extension candidates are added in 4 rows at the end in a compressed 16
COMMENT column format. SERA character names are given for alphabetic elements;
COMMENT punctuations and numbers are named descriptively.
COMMENT Unicode encoding begins at hex 1200 / dec 4608
COMMENT JIS encoding begins at Kuten [90,1] (hex 7a21 / dec 31265)
COMMENT ***********
COMMENT Another Fine Admas Product : fisseha@cig.mot.com
COMMENT Available at ftp://ftp.cs.indiana.edu/pub/fidel/fonts/webfonts.tar.Z
COMMENT ======================================================================
FONT -Admas-Fidel-Medium-R-Normal--20-200-100-100-C-363-jisx0208.1983-0
SIZE 20 100 100
FONTBOUNDINGBOX 57 43 -2 -2
STARTPROPERTIES 4
FONT_ASCENT 41
FONT_DESCENT 4
COPYRIGHT "GNU CopyLeft"
DEFAULT_CHAR 32103
ENDPROPERTIES
CHARS 354
STARTCHAR he
ENCODING  31265
SWIDTH 624 0
DWIDTH 27 0
BBX 23 27 1 0
BITMAP
0000fc
0181fe
3f81fe
7f80fe
3f80fe
3f80fe
3f80fe
3f80fe
3f80fe
3f81fe
3f81fe
3f81fe
7f01fe
7f01fc
7f01fc
7f01fc
7f01fc
7f03f8
7f03f8
7f03f0
7f03f0
ff07e0
7f07c0
7f0f80
7f9e00
3ff800
0fc000
ENDCHAR
STARTCHAR hu
ENCODING  31266
SWIDTH 888 0
DWIDTH 38 0
BBX 34 27 1 0
BITMAP
00003c0000
0003fc0000
0183fc0000
1f81fc0000
3f81fc0000
3f81fe0000
1f81fe0000
1f81fe0000
1f80fe0000
3f80fe0000
3f80fe0f80
3f80ffff80
3f81ffff80
7f01fe3f80
7f01fe3f80
7f01fc1f80
7f01fc0fc0
7f01fc0300
7e01f80000
7e03f80000
fe03f00000
fe07e00000
7e07c00000
7f0f800000
7f1f000000
3ff8000000
0fc0000000
ENDCHAR
STARTCHAR hi
ENCODING  31267
SWIDTH 672 0
DWIDTH 28 0
BBX 24 35 1 -3
BITMAP
000ff0
1e0ff0
ff0ff0
ff07f0
ff07f0
7f07e0
7f07e0
7f07e0
7f0fe0
7f0fe0
7e0fc0
fe0fc0
ff1fc0
ffff80
ffff80
7e7f00
007f00
00fe00
00fe00
01fe00
01fc00
03fc00
03f800
03f800
07f000
07f000
07f000
0ff03c
0fe0fc
0fe1fc
0ff1fc
0ffffc
0781fc
0001fe
0000ff
ENDCHAR
STARTCHAR ha
ENCODING  31268
SWIDTH 528 0
DWIDTH 24 0
BBX 20 34 1 -1
BITMAP
0001f0
020ff0
ff0ff0
ff07f0
7f87f0
7f87f0
7f07f0
7f07f0
7f07e0
7f07e0
7f0fe0
7f0fe0
7f0fc0
7f1fc0
7fff80
7fff80
107f80
007f00
00ff00
00fe00
01fe00
01fc00
01fc00
03fc00
03f800
07f800
07f000
07f000
0ff000
0ff000
0ff000
0ff000
0ff000
07c000
ENDCHAR
STARTCHAR hE
ENCODING  31269
SWIDTH 696 0
DWIDTH 31 0
BBX 27 34 0 -1
BITMAP
00007000
0007f000
7f07f000
ff87f000
7f87f000
7f83f000
3f83f000
3f87f000
3f87f000
3f07f000
3f07e000
7f0fe000
7f1fe000
7fffc000
7fffc000
3f9fc000
003f8000
003f8000
003f8000
007f0000
007f0000
007f0000
00fe03e0
00fe1fe0
00fe1fe0
01fc0fe0
01fc0fe0
01fc0fe0
03f80fc0
03f80fc0
03f83f80
03fffe00
03ffc000
01fe0000
ENDCHAR
STARTCHAR h
ENCODING  31270
SWIDTH 672 0
DWIDTH 27 0
BBX 23 27 2 0
BITMAP
0000fc
0003fc
1e01fc
fe01fe
fe01fe
fe01fe
fe00fe
fe00fe
fe00fe
fe00fe
ff80fe
ff80fe
ff80fe
3f80fe
3f80fe
3f81fe
3f81fc
3f81fc
3f81fc
3f81f8
3f81f8
7f83f0
3f83f0
3f87e0
3fcf80
1fff00
07f800
ENDCHAR
STARTCHAR ho
ENCODING  31271
SWIDTH 792 0
DWIDTH 35 0
BBX 31 30 1 0
BITMAP
000001f8
00001ffc
0000f87e
0003f87e
0103f87e
1f83f87e
7f83f87e
7f81f87e
3f81f87c
3f81fcf8
3f81fff0
3f81ffc0
3f81fe00
3f81fc00
3f01fc00
7f01fc00
7f01fc00
7f01f800
7f01f800
7f01f800
7e03f800
7e03f000
fe03f000
fe03e000
fe07c000
fe0fc000
7e0f0000
7f3e0000
3ff80000
1fc00000
ENDCHAR
STARTCHAR le
ENCODING  31273
SWIDTH 648 0
DWIDTH 27 0
BBX 23 31 1 -1
BITMAP
00f800
03f800
03fc00
03fe00
01ff00
00ff80
01ffc0
03ffe0
07fff0
0ffff0
0fe7f0
1fc3f8
1fc3f8
3f83f8
3f83f8
7f83f8
7f03f8
7f01fc
7f01fc
7f01fc
7f03fc
ff03fc
ff03fc
ff03fc
ff03fc
7f03fc
7f01fc
7f01fe
7f81fe
7f80fe
3800e0
ENDCHAR
STARTCHAR lu
ENCODING  31274
SWIDTH 840 0
DWIDTH 36 0
BBX 32 31 1 -1
BITMAP
00780000
07f80000
07fc0000
03fc0000
01fe0000
01ff0000
01ff8000
03ffc000
07ffe000
0fffe000
0fe7f000
1fc7f000
1fc7f802
3f83f8fe
3f83fffe
7f83fefe
7f03f8fe
7f03f8fe
7f03f87f
7f03f83f
7f03f800
ff03f800
ff03f800
ff03f800
ff03f800
7f03f800
7f03fc00
7f03fc00
7f81fe00
7f81fe00
3801e000
ENDCHAR
STARTCHAR li
ENCODING  31275
SWIDTH 912 0
DWIDTH 39 0
BBX 35 33 1 -3
BITMAP
003c000000
03fc000000
03fc000000
01fe000000
00ff000000
00ff800000
01ffc00000
03ffe00000
07fff00000
0ffff00000
0fe7f80000
1fc3f80000
1fc3f80000
3f83f80000
3f83fc0000
7f83fc0000
7f03fc0000
7f01fc0000
7f01fc0000
7f01fc0000
7f01fc0000
ff01fc0000
ff01fc0000
ff01fc0000
ff01fc0000
7f01fc0fc0
7f01fc1fc0
7f01fe1f80
7f81ffff80
7f80ffffc0
3800f01fc0
0000001fe0
0000000fe0
ENDCHAR
STARTCHAR la
ENCODING  31276
SWIDTH 648 0
DWIDTH 26 0
BBX 22 31 2 -1
BITMAP
01f000
07f000
07f800
07fc00
03fe00
01ff00
07ff80
0fffc0
1fffe0
1fffe0
3fcfe0
7f8ff0
7f07f0
7f07f0
fe07f0
fe07f0
fe07f0
fe07f0
fe07f0
ff07f0
ff07f0
ff07f0
7807f8
0007f8
0007f8
0007f8
0007f8
0003fc
0003fc
0003fc
0001c0
ENDCHAR
STARTCHAR lE
ENCODING  31277
SWIDTH 816 0
DWIDTH 36 0
BBX 32 32 1 -1
BITMAP
00f80000
07f80000
07f80000
03fc0000
01fe0000
01ff8000
01ffc000
01ffc000
03ffe000
07fff000
0ffff000
0fe7f000
1fc7f800
1fc3f800
3f83f800
3f83f800
7f83f800
7f03f800
7f03fc00
7f03fc00
7f03fc00
7f03fc78
ff03fffe
ff03ffff
ff03fc3f
ff03fc3f
7f03fc1f
7f03fc3f
7f01fc3f
7f81fefe
7f81fffc
3800c020
ENDCHAR
STARTCHAR l
ENCODING  31278
SWIDTH 792 0
DWIDTH 34 0
BBX 30 30 2 -1
BITMAP
001e0000
007e0000
00ff0000
00ff8000
007fc000
003ff000
003ff800
007ff800
00fffc00
01fffe00
03fffe00
03fdff00
07f8ff00
0ff07f80
0fe03f80
1fc03fc0
1fc01fc0
3f8f1fc0
3fbf9fe0
3fbfcfe0
7f1fcfe0
7f1fcff0
7f1f8ff0
7f1f87f0
ff1f87f0
fffe07f0
ffc007f8
fe0003fc
7c0003fc
700003f0
ENDCHAR
STARTCHAR lo
ENCODING  31279
SWIDTH 984 0
DWIDTH 44 0
BBX 40 31 1 -1
BITMAP
07f8000000
07f8000000
07f8000000
03fc000000
01fe000000
01ff000000
01ffc00000
03ffc00000
07ffe00000
0ffff00000
0fe7f001fc
1fc7f81ffe
1fc3f9fc7e
3f83fffc7f
3f83fffc7f
7f83f87c3f
7f03f87c3f
7f03f87e3e
7f03f87e7c
7f03f87ff0
7f03f83e00
ff03f80000
ff03f80000
ff03f80000
ff03f80000
7f03fc0000
7f03fc0000
7f01fc0000
7f81fe0000
7f81fe0000
3800e00000
ENDCHAR
STARTCHAR lWa
ENCODING  31280
SWIDTH 816 0
DWIDTH 35 0
BBX 31 35 1 -5
BITMAP
01f80000
07f80000
07fc0000
03fc0000
01fe0000
01ff0000
07ff8000
0fffc000
1fffe000
1fffe000
3f8ff000
7f07f000
7f07f000
7e07f800
fe03f800
fe03f800
fe03f800
fe03f800
fe03f800
fe03f800
ff03f800
ff03f800
7803f800
0003f800
0003f800
0003f800
0003f800
0003f800
03fffffe
07fffffe
07f000fe
07f000fe
07e0007e
07c0007e
0f80003e
ENDCHAR
STARTCHAR He
ENCODING  31281
SWIDTH 840 0
DWIDTH 37 0
BBX 33 29 1 -1
BITMAP
0000380000
0007f80000
0007f80000
0003f80000
0003f80000
0003f80000
0003f80000
0003f80000
0003f80000
0003f00000
0003f00000
0003f7f000
000ffffc00
00fff1fe00
07e3f07e00
0f83f07f00
1f87f07f00
3f07f07f00
7f07f07f00
7e07f07f00
fe07e07f00
fe07e07f00
fe07e07f00
fe07e07f00
fe07e07f00
fe07f07f00
ff07f07f80
ff07f07f80
7007007800
ENDCHAR
STARTCHAR Hu
ENCODING  31282
SWIDTH 1080 0
DWIDTH 47 0
BBX 43 29 1 -1
BITMAP
000038000000
0007f8000000
0007f8000000
0003f8000000
0003f8000000
0003f8000000
0003f8000000
0003f8000000
0003f8000000
0003f0000000
0003f0000000
0003f7f80000
001ffffc0000
01fff1fe0000
07e3f07e0000
0f83f07e0000
3f07f07f0000
3f07f07f0fc0
7f07f07fffc0
7e07f07fffc0
fe07e07f1fc0
fe07e07f1fc0
fe07e07f0fe0
fe07e07f07e0
fe07e07f0000
fe07f07f0000
ff07f07f0000
ff0ff07f8000
700700780000
ENDCHAR
STARTCHAR Hi
ENCODING  31283
SWIDTH 1104 0
DWIDTH 48 0
BBX 44 31 1 -3
BITMAP
000038000000
0007f8000000
0007f8000000
0003f8000000
0003f8000000
0003f8000000
0003f8000000
0003f8000000
0003f8000000
0003f8000000
0003f0000000
0003f7f80000
001ffffc0000
00fff1fe0000
07e3f07e0000
0fc3f07f0000
1f83f07f0000
3f07f07f0000
7f07f07f0000
7f07f07f0000
7e07f07f0000
fe07f07f0000
fe07f07f0000
fe07e07f03e0
fe07e07f07e0
ff07f07f0fe0
ff07f07fffe0
7f07f07fffe0
700700300fe0
000000000ff0
0000000007f0
ENDCHAR
STARTCHAR Ha
ENCODING  31284
SWIDTH 840 0
DWIDTH 37 0
BBX 33 28 1 -1
BITMAP
0003f80000
0007f80000
0003f80000
0003f80000
0003f80000
0003f80000
0003f80000
0003f80000
0003f80000
0003f00000
0003f3f000
003ffffc00
03fffffe00
0fe7f0fe00
1f87f07f00
3f07f07f00
7f07e07f00
7e07e07f00
fe07e07f00
fe0ff07f00
ff0ff07f00
fe0fe07f00
4000007f00
0000007f00
0000007f00
0000007f00
0000007f80
0000007e00
ENDCHAR
STARTCHAR HE
ENCODING  31285
SWIDTH 1080 0
DWIDTH 46 0
BBX 42 29 2 -1
BITMAP
000070000000
0007f8000000
0007f8000000
0007f8000000
0003f0000000
0003f0000000
0003f0000000
0003f0000000
0003f0000000
0003f0000000
0003f0000000
0003fff80000
001ffffc0000
01fff1fe0000
07e3f07e0000
1f87f07e0000
3f07f07e0000
7f07e07e0000
7e07e07e1e00
7e07e07fff80
fe07e07fff80
fe07e07e1fc0
fe07e07e0fc0
fe07e07e0fc0
fe07e07e0fc0
fe0fe07e0f80
ff0ff07f3f80
ff0ff07fff00
700700700000
ENDCHAR
STARTCHAR H
ENCODING  31286
SWIDTH 840 0
DWIDTH 37 0
BBX 33 34 1 -1
BITMAP
00f0000000
03fc000000
01fc000000
01fe000000
00fe000000
01fc000000
01fff80000
03fff80000
0001f80000
0001f80000
0001f80000
0001f80000
0001f80000
0003f80000
0003f80000
0003f80000
0003f7f800
001ffffe00
01fff1fe00
07e3f07f00
0fc3f07f00
1f83f07f00
3f03f07f00
7f07f07f00
7f07f07f00
7e07f07f00
fe07f07f00
fe07f07f00
fe07e07f00
fe07e07f00
ff07f07f00
ff07f07f80
7f07f07f80
7007003800
ENDCHAR
STARTCHAR Ho
ENCODING  31287
SWIDTH 840 0
DWIDTH 37 0
BBX 33 29 1 -1
BITMAP
0000380000
0007f80000
0003f80000
0003f80000
0003f80000
0001f80000
0001f80000
0003f80000
0003f80000
0003f80000
0003f80000
0003f7fc00
000ffffe00
00fff1ff00
03e3f07f00
0fc7f07f00
1f87f07f00
3f07f07f00
7f07f07f00
7f07f07f00
7f07f07f80
7e07f07f80
fe07f07f00
fe06000000
fe00000000
ff00000000
ff00000000
7f00000000
7000000000
ENDCHAR
STARTCHAR HWa
ENCODING  31288
SWIDTH 840 0
DWIDTH 46 0
BBX 42 34 1 -7
BITMAP
0003f8000000
0007f8000000
0003f8000000
0003f8000000
0003f8000000
0003f8000000
0003f8000000
0003f8000000
0003f8000000
0003f0000000
0003f3f00000
003ffffc0000
03fffffe0000
0fe7f0fe0000
1f87f07f0000
3f07f07f0000
7f07e07f0000
7e07e07f0000
fe07e07f0000
fe0ff07f0000
ff0ff07f0000
fe0fe07f0000
4000007f0000
0000007f0000
0000007f0000
0000007f0000
0000007f8000
00003fffff80
0000ffffff80
00003f003f80
00003f003f80
00007f001f80
00007e000fc0
0000f8000780
ENDCHAR
STARTCHAR me
ENCODING  31289
SWIDTH 1056 0
DWIDTH 44 0
BBX 40 20 1 6
BITMAP
0000000070
00001ffffc
003ffffe7e
01fff9fc7f
07e3f9fc3f
0fc3f1fc3f
1f83f1fc3f
3f07f1f83f
3f07e1f83f
7f07e1f83f
7e0fe3f87e
fe0fc3f87e
fe0fc3f87e
fe1f83f8fc
fe1f83fff8
fe3f83fff0
fe3f01c000
ff7f000000
7fe0000000
3f00000000
ENDCHAR
STARTCHAR mu
ENCODING  31290
SWIDTH 1296 0
DWIDTH 55 0
BBX 51 20 1 6
BITMAP
00000000700000
00001ffffc07c0
003ffffe7e0fc0
01fff9fc7f1fc0
07e3f9fc3f1fc0
0fc3f1fc3fffc0
1f83f1fc3fffe0
3f07f1f83f1fe0
3f07e1f83f0fe0
7f07e1f83f0000
7e0fe3f87f0000
fe0fc3f87e0000
fe0fc3f87e0000
fe1f83f8fc0000
fe1f83fff80000
fe3f83fff00000
fe3f01c0000000
ff7f0000000000
7fe00000000000
3f000000000000
ENDCHAR
STARTCHAR mi
ENCODING  31291
SWIDTH 1080 0
DWIDTH 47 0
BBX 43 33 1 -3
BITMAP
0000000f8000
00007ffff000
03ffe7e1f800
0fc7e7e1f800
1f87e7e1f800
3f07c7e1f800
3f0fc7e1f800
7e0fcfc3f800
7e0fcfc3f800
fe1f8fc3f000
7e1f8fc7f000
7e1f8ffff000
7f3f0fffe000
3ff0000fe000
1f80000fe000
0000000fc000
0000001fc000
0000001fc000
0000001f8000
0000003f8000
0000003f8000
0000007f0000
0000007f0000
0000007e0000
000000fe0000
000000fe07c0
000000fe1fc0
000001fe1f80
000001fe3f80
000000ffff80
000000f83fc0
000000001fc0
000000001fe0
ENDCHAR
STARTCHAR ma
ENCODING  31292
SWIDTH 936 0
DWIDTH 41 0
BBX 37 30 1 -1
BITMAP
00007fffe0
03ffe7f1f8
0f87e7f1f8
1f07e7e1f8
3f0fc7e1f8
7e0fc7e1f8
7e0fcfe1f8
7e1fcfe1f8
fc1f8fc3f8
7c1f8fc3f8
7e3f8fe7f0
7f3f0ffff0
3ff0000fe0
1f80000fe0
0000000fe0
0000001fc0
0000001fc0
0000001fc0
0000003f80
0000003f80
0000007f80
0000007f00
0000007f00
000000fe00
000000fe00
000000fe00
000001fe00
000001fe00
000000ff00
000000fc00
ENDCHAR
STARTCHAR mE
ENCODING  31293
SWIDTH 1032 0
DWIDTH 45 0
BBX 41 31 1 -1
BITMAP
000000038000
0000fffff000
03ffe7f1f800
0f87e7f1fc00
1f87e7f1fc00
3f0fc7e1fe00
3e0fc7e1fe00
7e0fcfe1fc00
7e1fcfe1fc00
fe1f8fe3fc00
7e1f8fe3f800
7e3f8ffff800
7fff0ffff800
3ff0000ff000
1f80000ff000
0000000fe000
0000000fe000
0000001fe000
0000001fc000
0000003fc000
0000003f8000
0000003ffe00
0000007fff00
0000007f1f00
000000ff0f80
000000ff0f80
000000fe0f80
000000fe1f00
000001fe3f00
000000fffe00
000000fff800
ENDCHAR
STARTCHAR m
ENCODING  31294
SWIDTH 960 0
DWIDTH 42 0
BBX 38 30 1 0
BITMAP
00000003e0
00007ffff8
01fffff1f8
07ffe7f1f8
0fc7e3e0fc
1fc7c3e0fc
1f87c3e0fc
3f8fc3e0fc
3f0fc3e0f8
7f0fc7e0f8
7f0fc7f1f8
7e0f87f1f0
7e1f87ffc0
fe1f83f800
7f1f800000
7fff800000
3fff000000
0eff000000
01fe000000
03fc000000
03f8000000
07f0000000
0fe0000000
0fc0000000
1fc0000000
1f80000000
3f80000000
3fc0000000
3fc0000000
3f80000000
ENDCHAR
STARTCHAR mo
ENCODING  31295
SWIDTH 960 0
DWIDTH 42 0
BBX 38 31 1 0
BITMAP
00003ffff0
00fffffff8
03ffe7f1f8
0fcfe7f0f8
1f8fe7f0fc
3f8fe7e0fc
3f0fc7e0fc
7f0fc7e0fc
7f0fc7e0f8
7e0fc7f0f8
fe1fc7f1f8
fe1fc7f1f0
fe1f87ffe0
fe1f83fd00
ff3f81c000
7fff800000
3fff800000
003f800000
007f000000
007f000000
007f000000
007f000000
00ff000000
00ff000000
00fe000000
00fe000000
00fe000000
01fe000000
01fe000000
01ff000000
00fe000000
ENDCHAR
STARTCHAR mWa
ENCODING  31296
SWIDTH 1032 0
DWIDTH 45 0
BBX 41 35 1 -6
BITMAP
00007fffc000
03ffe7e3f000
0f8fc7e1f000
1f07c7e1f000
3f0fcfc1f800
7e0f8fc3f800
fe0f8fc3f000
fe1f8fc3f000
fc1f9fc3f000
fc1f1fc7f000
fe3f1feff000
fe3f0fffe000
7fe0000fe000
1f00000fe000
0000001fc000
0000001fc000
0000003fc000
0000003f8000
0000003f8000
0000007f8000
0000007f0000
0000007f0000
000000ff0000
000000fe0000
000001fe0000
000001fe0000
000001fc0000
000001feff00
0003ffffff00
0003ff007f00
0003f8007f00
0003f0003f00
0003f0003f00
0007e0001f80
000380000000
ENDCHAR
STARTCHAR `se/s2e
ENCODING  31297
SWIDTH 864 0
DWIDTH 37 0
BBX 33 20 2 5
BITMAP
0000003f00
0003f0ff00
1f8ff8ff00
7f87f87f00
7f87f87f80
3f83f87f80
3f83f87f00
3f83f83f00
7f03f07f00
7f03f07f00
7f03f07e00
7f07f07e00
7e07f0fc00
fe07fbf000
fe0fdfc000
fe0fc00000
fe1f000000
fffc000000
ffc0000000
7000000000
ENDCHAR
STARTCHAR `su/s2u
ENCODING  31298
SWIDTH 1056 0
DWIDTH 45 0
BBX 41 20 2 5
BITMAP
000030ff0000
0007f0ff0000
7f8ff8ff0000
7f87f87f0000
7f87f87f0000
3f83f87f0000
3f83f87f0000
3f83f87f0000
7f03f07f0000
7f03f07e0000
7f03f07e0000
7e07f07e0700
fe07f8ffff00
fe07ffffff00
fe0fdff07f00
fe0fc0007f00
fe3f00003f00
fffc00001f80
ffc000000f80
700000000000
ENDCHAR
STARTCHAR `si/s2i
ENCODING  31299
SWIDTH 1008 0
DWIDTH 43 0
BBX 39 30 2 -3
BITMAP
000001fc00
000fe3fc00
ff1fe1fc00
ff1fe1fc00
ff0fe1fc00
7f0fe1fc00
7f0fe1fc00
7f0fe1fc00
7e0fe1fc00
fe0fe3f800
fe0ffff800
fe0f1ff800
ff1e03f800
fff803f800
7f0007f000
000007f000
000007f000
000007f000
000007e000
00000fe000
00000fe000
00000fe000
00000fe07c
00000fe0fc
00000fe1fc
00000ff1fc
00000ffffc
00000781fc
00000001fe
00000000fe
ENDCHAR
STARTCHAR `sa/s2a
ENCODING  31300
SWIDTH 792 0
DWIDTH 34 0
BBX 30 29 2 -1
BITMAP
0000001c
000043fc
061fe3fc
ff1fe1fc
ff0fe0fc
7f0fe0fc
7f0fe0fc
7f0fe0fc
7f0fe1fc
7e0fe1fc
fe0fe3fc
fe0ffff8
fe0f1ff8
ff3e03f8
fff803f8
7f0003f8
000007f0
000007f0
000007f0
000007f0
000007f0
00000fe0
00000fe0
00000fe0
00000fe0
00000fe0
00000ff0
00000ff0
00000fc0
ENDCHAR
STARTCHAR `sE/s2E
ENCODING  31301
SWIDTH 960 0
DWIDTH 41 0
BBX 37 29 2 -1
BITMAP
0000007c00
0001e3fc00
1f1fe1fc00
ff1fe1fc00
ff0fe0fc00
7f0fe0fc00
7f0fe0fc00
7f0fe1fc00
7e0fe1f800
fe0fe1f800
fe0ff3f800
fe0ffff800
fe1f1ff800
fffe03f000
fff803f000
7f0003f000
000007f000
000007e000
000007e000
000007fff0
000007fff0
00000fe3f8
00000fe1f8
00000fc1f8
00000fc1f8
00000fc1f8
00000fe7f0
00000fffe0
00000f8f80
ENDCHAR
STARTCHAR `s/s2
ENCODING  31302
SWIDTH 1056 0
DWIDTH 46 0
BBX 42 28 2 -1
BITMAP
0000000003c0
0000001c3fc0
000383fc3fc0
007fc3fc1fc0
003fc1fc1fc0
003f81fc1fc0
003f81fc1fc0
003f81fc3f80
003f81fc3f00
007f81fc7e00
00ff03fffc00
00ff83f3c000
01ff87e00000
03ffff800000
03f8fc000000
07f800000000
0ff000000000
0fe000000000
1fe000000000
1fc000000000
3f8000000000
7f8000000000
7f0000000000
ff0000000000
ff0000000000
ff0000000000
ff0000000000
700000000000
ENDCHAR
STARTCHAR `so/s2o
ENCODING  31303
SWIDTH 816 0
DWIDTH 36 0
BBX 32 30 2 -1
BITMAP
00000006
000001fe
0f0ff1ff
ff0ff0ff
ff0ff0ff
7f0ff07f
7f07e07f
7f07e07f
7e0fe07e
7e0fe0fe
fe1fe0fc
fe1ff1f8
fe3fffe0
ffff9f00
ffff8000
7eff0000
00fe0000
01fe0000
01fc0000
03fc0000
03f80000
07f00000
0ff00000
0fe00000
1fe00000
1fc00000
3fc00000
3fc00000
3fc00000
1fc00000
ENDCHAR
STARTCHAR `sWa/s2Wa
ENCODING  31304
SWIDTH 792 0
DWIDTH 41 0
BBX 37 36 2 -8
BITMAP
0000001c00
000043fc00
061fe3fc00
ff1fe1fc00
ff0fe0fc00
7f0fe0fc00
7f0fe0fc00
7f0fe0fc00
7f0fe1fc00
7e0fe1fc00
fe0fe3fc00
fe0ffff800
fe0f1ff800
ff3e03f800
fff803f800
7f0003f800
000007f000
000007f000
000007f000
000007f000
000007f000
00000fe000
00000fe000
00000fe000
00000fe000
00000fe000
00000fe000
00000fc000
00000feff0
001ffffff0
001ff807f0
001fc007f0
001f8003f0
001f8003f0
003f0001f8
001c000000
ENDCHAR
STARTCHAR re
ENCODING  31305
SWIDTH 648 0
DWIDTH 28 0
BBX 24 31 1 -1
BITMAP
0003f8
0007f8
0003f8
0003f8
0003f8
0003f8
0007f0
0007f0
000fe0
001fc0
003fc0
007f80
00ff00
01fe00
03fc00
07f000
0fe000
1fc000
1f8000
3f0000
7f0000
7e0000
7e0018
fe00fc
7e01fc
7f03fc
7f83fc
7ffffc
3ffffe
0f81ff
0000f8
ENDCHAR
STARTCHAR ru
ENCODING  31306
SWIDTH 744 0
DWIDTH 32 0
BBX 28 33 1 -1
BITMAP
003f0000
00ff8000
007f8000
007f0000
007f0000
007f0000
007e0000
00fc0000
01f80000
03f80000
07f00000
0fe00000
1fc00000
3f800000
3f000000
7f000000
7e000000
ff000000
ff0001e0
7f807fe0
7fffffe0
7fff8fe0
1fff8fe0
003f87e0
003f03f0
003f01e0
003f0000
003f0000
007f0000
007f0000
007f8000
007f8000
007e0000
ENDCHAR
STARTCHAR ri
ENCODING  31307
SWIDTH 600 0
DWIDTH 27 0
BBX 23 30 1 0
BITMAP
0003f8
0007f8
0003f8
0003f8
0003f8
0003f8
0007f0
0007f0
000fe0
001fc0
003fc0
007f80
00ff00
01fe00
03fc00
07f000
0fe000
1fc000
1f8000
3f01fe
7f01fe
7e01fe
7e00fe
fe00fc
7e01fc
7f01f8
7f87e0
3fff80
3ff000
0f0000
ENDCHAR
STARTCHAR ra
ENCODING  31308
SWIDTH 792 0
DWIDTH 35 0
BBX 31 30 1 0
BITMAP
0003f800
0007f800
0003f800
0003f800
0003f800
0003f000
0007f000
000ff000
000fe000
001fc000
003f8000
007f8000
00ff0000
01fe0000
03fc0000
07f80000
0ff000f8
1fe03ff8
1fc0fff8
3f81e3f8
7f03c1f8
7e07c1fc
7e07c0fe
fe0fc010
7e0fc000
7f0fc000
7f8fc000
7fff8000
3ff80000
07000000
ENDCHAR
STARTCHAR rE
ENCODING  31309
SWIDTH 768 0
DWIDTH 34 0
BBX 30 30 1 0
BITMAP
0003f800
0007f800
0003f800
0003f800
0003f800
0003f800
0007f000
0007f000
000fe000
001fc000
003fc000
007f8000
00ff0000
01fe0000
03fc0000
07f00000
0fe00000
1fc003f0
1f803ff8
3f01f3f8
7f07e1f8
7e07c1f8
7e0fc1fc
fe0fc1fc
7e07e1f8
7e07e1f8
7f0fe3e0
3fffff80
3ff3f000
0f000000
ENDCHAR
STARTCHAR r
ENCODING  31310
SWIDTH 672 0
DWIDTH 29 0
BBX 25 30 1 -1
BITMAP
00000e00
003ffe00
00fffe00
03f0fe00
07e0fe00
0fc07f00
1f803f00
1f800e00
3f800000
3f000000
3f000000
7f000000
7f000000
7f000000
7f000000
7f000000
7f000000
7f000000
ff000000
fe000000
fe000000
fe000e00
ff007e00
7f00fe00
7f00fe00
7f81fe00
7fffff00
3fffff00
1fe07f80
00003c00
ENDCHAR
STARTCHAR ro
ENCODING  31311
SWIDTH 744 0
DWIDTH 32 0
BBX 28 30 1 -1
BITMAP
0000ff80
0007ffe0
00ffe3f0
03ffe3f0
07c7e3f0
0f87e3f0
1f87e3f0
1f07e3f0
3f07e3e0
3f03f7e0
7f03ff80
7f000000
7f000000
7f000000
7f000000
7f000000
7f000000
7f000000
fe000000
fe000000
fe000000
fe001c00
ff00fc00
7f01fc00
7f01fc00
7f81fc00
7ffffe00
3ffffe00
1fe0ff00
00007c00
ENDCHAR
STARTCHAR rWa
ENCODING  31312
SWIDTH 816 0
DWIDTH 36 0
BBX 32 34 1 0
BITMAP
0000007f
0fc000fe
0fe000fe
07f000fe
07f001fe
07fffffe
0fffffe0
0003f800
0003f800
0003f000
0007f000
0007f000
000fe000
001fc000
003f8000
007f0000
00fe0000
01fc0000
03f80000
07f00000
0fe000f8
1fc03ff8
3f80fff8
7f03e3f8
7e07c3f8
fe07c1fc
fe0fc0fc
fe0fc010
fe0fc000
fe0f8000
ff1f8000
7fff8000
3ff00000
0e000000
ENDCHAR
STARTCHAR se
ENCODING  31313
SWIDTH 600 0
DWIDTH 27 0
BBX 23 32 1 -1
BITMAP
007e00
00fe00
00fe00
00fe00
00fe00
00ff00
01ffe0
03e7f0
0fc3f8
1f83f8
3f81fc
3f01fc
7f01fc
7f01fc
7f01fc
7f01fc
7f01fc
ff01fc
ff01fc
ff01fc
ff01fc
ff01fc
ff01fc
ff01fc
ff01fc
ff01fc
ff01fc
ff01fc
7f01fc
7f81fe
7f81fe
3801e0
ENDCHAR
STARTCHAR su
ENCODING  31314
SWIDTH 888 0
DWIDTH 38 0
BBX 34 32 1 -1
BITMAP
007e000000
00fe000000
00fe000000
00fe000000
00fe000000
00ff000000
01ffe00000
03e7f00000
0fc3f80000
1f83f80000
3f81f80000
3f01fc0700
7f01fc1f00
7f01fc3f00
7f01fc7f00
7f01fc7f00
7f01ffff80
ff01ffff80
ff01fc3fc0
ff01fc1f00
ff01fc0000
ff01fc0000
ff01fc0000
ff01fc0000
ff01fc0000
ff01fc0000
ff01fc0000
ff01fc0000
7f01fc0000
7f81fe0000
7f81fe0000
3801e00000
ENDCHAR
STARTCHAR si
ENCODING  31315
SWIDTH 888 0
DWIDTH 38 0
BBX 34 34 1 -3
BITMAP
007e000000
00fe000000
00fe000000
00fe000000
00fe000000
00ff000000
01ffe00000
03e7f00000
0fc3f80000
1f83f80000
3f81fc0000
3f01fc0000
7f01fc0000
7f01fc0000
7f01fc0000
7f01fc0000
7f01fc0000
ff01fc0000
ff01fc0000
ff01fc0000
ff01fc0000
ff01fc0000
ff01fc0000
ff01fc0000
ff03fc0000
ff03fc0000
ff03fc0f80
ff03fc3f80
7f01fc3f80
7f81ffff80
7f81ffff80
3801c03f80
0000003fc0
0000001fc0
ENDCHAR
STARTCHAR sa
ENCODING  31316
SWIDTH 600 0
DWIDTH 26 0
BBX 22 32 2 -1
BITMAP
00fc00
01fc00
01fc00
01fc00
01fc00
01fe00
03ffc0
0fcfe0
1f07f0
3f07f0
3e03f8
7e03f8
fe03f8
fe03f8
fe03f8
fe03f8
fe03f8
fe03f8
fe03f8
fe03f8
ff03f8
ff03f8
fe03f8
0003f8
0003f8
0003f8
0003f8
0003f8
0003f8
0003fc
0003fc
0003c0
ENDCHAR
STARTCHAR sE
ENCODING  31317
SWIDTH 816 0
DWIDTH 36 0
BBX 32 32 1 -1
BITMAP
001e0000
00fe0000
00fe0000
00fe0000
00fe0000
00fe0000
01ffc000
03e7f000
0fc3f000
1f83f800
3f83f800
3f01f800
7f01f800
7f01fc00
7f03fc00
7f03fc00
7f03fc00
ff03fc00
ff03f800
ff03f800
ff03f800
ff03f870
ff03fffe
ff03fcfe
ff03f87e
ff03f83f
ff03f83f
ff03f83e
7f03f87e
7f83fdfe
7f81fff8
38018040
ENDCHAR
STARTCHAR s
ENCODING  31318
SWIDTH 600 0
DWIDTH 26 0
BBX 22 32 1 -1
BITMAP
03f800
07f800
03fc00
03fc00
01fe00
01ff00
01ffe0
07e7f0
0fc3f8
1f83f8
3f83f8
3f01f8
7f01fc
7f01fc
7f01fc
7f03fc
7f03fc
ff03fc
fe03fc
fe03fc
fe03f8
fe03f8
ff03f8
ff03f8
ff03f8
ff03f8
ff03f8
ff03fc
7f03fc
7f83fc
7f81fc
3801e0
ENDCHAR
STARTCHAR so
ENCODING  31319
SWIDTH 600 0
DWIDTH 26 0
BBX 22 32 1 -1
BITMAP
001e00
00fe00
00fe00
00fe00
00fe00
00fe00
01ffc0
03e7f0
0fc3f0
1f83f8
3f83f8
3f01fc
7f01fc
7f01fc
7f03f8
7f03f8
7f03f8
ff03f8
ff03f8
ff03fc
ff03fc
ff03fc
ff01c0
ff0000
ff0000
ff0000
ff0000
ff0000
7f0000
7f8000
7f8000
380000
ENDCHAR
STARTCHAR sWa
ENCODING  31320
SWIDTH 840 0
DWIDTH 36 0
BBX 32 37 2 -6
BITMAP
00fe0000
01fe0000
01fe0000
01fe0000
01fc0000
01ff0000
03ffc000
0fcfe000
1f87f000
3f07f800
7f03f800
7e03f800
fe03f800
fe03f800
fe03f800
fe03f800
fe03f800
fe03f800
fe03f800
fe03f800
ff03f800
ff03f800
fe03f800
0003f800
0003f800
0003f800
0003f800
0003f800
0003f800
0003fdfe
07fffffe
07fe00fe
07f000fe
07e0007e
07e0007e
0fc0003f
07000000
ENDCHAR
STARTCHAR xe
ENCODING  31321
SWIDTH 792 0
DWIDTH 33 0
BBX 29 36 2 -1
BITMAP
00000030
000003f0
1c0007f0
7f000ff0
7f00fff0
3ffffff0
3fffc7f8
3f1fc3f8
7f1fc000
fc1fc000
003ff800
007ffc00
01f1fc00
03f0fe00
03e0fe00
07e0fe00
07e0fe00
0fe0fe00
0fe0fe00
0fe0fe00
0fe0fe00
1fe0fe00
1fc0fe00
1fc0fe00
1fc0fe00
1fc0fe00
1fe0fe00
1fe0fe00
1fe0fe00
1fe0fe00
1fe0fe00
1fe0fe00
0fe0fe00
0ff0ff00
0ff0ff00
07007000
ENDCHAR
STARTCHAR xu
ENCODING  31322
SWIDTH 936 0
DWIDTH 39 0
BBX 35 35 2 -1
BITMAP
000001f000
000007f000
7e0007f000
7f000ff000
3f07fff000
3fffe7f000
3fdfc7f800
7f1fc3f800
7e1fc00000
f83fe00000
007ff80000
01f1fc0000
03f0fc0000
03e0fe0000
07e0fe0f80
07e0fe1f80
0fe0fe3f80
0fe0fe3f80
0fe0fe7fc0
0fe0ffffc0
1fe0ff1fe0
1fc0fe1fc0
1fc0fe0000
1fc0fe0000
1fc0fe0000
1fe0fe0000
1fe0fe0000
1fe0fe0000
1fe0fe0000
1fe0fe0000
1fe0fe0000
0fe0fe0000
0ff0ff0000
0ff0ff0000
0700700000
ENDCHAR
STARTCHAR xi
ENCODING  31323
SWIDTH 936 0
DWIDTH 39 0
BBX 35 38 2 -3
BITMAP
000000f000
000007f000
7e0007f000
7f000ff000
3f03fff000
3fffe7f000
3fffc7f800
7f1fc3f800
7f1fc00000
f81f800000
003ff80000
007ffc0000
01f1fc0000
03f0fe0000
03e0fe0000
07e0fe0000
07e0fe0000
0fe0fe0000
0fe0fe0000
0fe0fe0000
0fe0fe0000
1fe0fe0000
1fc0fe0000
1fc0fe0000
1fc0fe0000
1fc0fe0000
1fe0fe0000
1fe0fe0000
1fe0fe0000
1fe0fe0000
1fe0fe07c0
1fe0fe1fc0
1fe0fe1fc0
0ff0ffffc0
0ff0ffffc0
0700601fc0
0000001fe0
0000000fe0
ENDCHAR
STARTCHAR xa
ENCODING  31324
SWIDTH 792 0
DWIDTH 33 0
BBX 29 36 3 -1
BITMAP
00000030
000007e0
3c000fe0
fe000fe0
7f00ffe0
7fffffe0
7fff8ff0
7f3f87f8
fe3f8000
fc3f8000
007ff000
01fff800
03f3fc00
07e1fc00
0fc1fc00
0fc1fc00
1fc1fc00
1fc1fc00
1fc1fc00
1fc1fc00
1fc1fc00
1f81fc00
3fc1fc00
3fc1fc00
3fc1fc00
1fe1fc00
1fc1fc00
0001fc00
0001fc00
0001fc00
0001fc00
0001fc00
0001fe00
0001fe00
0001fe00
0000e000
ENDCHAR
STARTCHAR xE
ENCODING  31325
SWIDTH 912 0
DWIDTH 37 0
BBX 33 36 2 -1
BITMAP
0000003000
000003f000
1c0007f000
7f000ff000
7f00fff000
3ffffff000
3fffc7f800
3f1fc3f800
7f1fc00000
fc1fc00000
003ff00000
007ff80000
01f1fc0000
03f0fc0000
03e0fc0000
07e0fe0000
07e0fe0000
0fe0fe0000
0fe0fe0000
0fe0fe0000
0fe0fe0000
1fe0fe0000
1fc0fe0000
1fc0fe0000
1fc0fe0000
1fc0fe3c00
1fe0ffff00
1fe0ff7f80
1fe0fe1f80
1fe0fe1f80
1fe0fe1f80
1fe0fe1f80
1fe0fe1f80
0ff0fe3f00
0ff0fffe00
0700600000
ENDCHAR
STARTCHAR x
ENCODING  31326
SWIDTH 792 0
DWIDTH 33 0
BBX 29 36 1 -1
BITMAP
00000030
000007e0
3c000fe0
ff000fe0
7f00ffe0
7ffffff0
7fff87f0
7f1fc7f8
7e1fc000
fc0fc000
001ffc00
003ffe00
00f8fe00
01f87f00
01f07f00
03f07f00
03f07f00
07f07f00
07f07f00
07f07f00
07f07f00
0ff07f00
0fe07f00
0fe07f00
0fe07f00
0fe07f00
0ff07f00
0ff07f00
0ff07f00
0ff07f00
0ff07f00
0ff07f00
0ff07f00
07f87f80
07f87f80
03803800
ENDCHAR
STARTCHAR xo
ENCODING  31327
SWIDTH 792 0
DWIDTH 33 0
BBX 29 35 2 -1
BITMAP
000003f0
000007f0
ff0007f0
7f001ff0
3f1ffff0
3fffc7f0
3f1fc3f8
7f1fc1c0
7e1fc000
003fe000
007ff800
01f1fc00
03f0fe00
03e0fe00
07e0fe00
07e0fe00
0fe0fe00
0fe0fe00
0fe0fe00
0fe0fe00
1fe0fe00
1fc0fe00
1fc0fe00
1fc0ff00
1fc0ff00
1fe07f00
1fe00000
1fe00000
1fe00000
1fe00000
1fe00000
1fe00000
0ff00000
0ff00000
07000000
ENDCHAR
STARTCHAR xWa
ENCODING  31328
SWIDTH 840 0
DWIDTH 37 0
BBX 33 41 1 -5
BITMAP
000007e000
fe000fe000
7f000fc000
7f001fc000
7f003fc000
7fffffc000
7ffffe0000
003f800000
003f800000
003f800000
003f800000
007ff00000
01fff80000
03f1fc0000
07e1fc0000
07e1fe0000
0fc0fe0000
0fc0fe0000
1fc0fe0000
1fc0fe0000
1fc0fe0000
1fc0fe0000
1fc1fe0000
1fc1fe0000
1fc1fc0000
1fc1fc0000
1fe1fc0000
1fc1fc0000
0001fc0000
0001fc0000
0001fc0000
0001fc0000
0001fe0000
0000fe0000
007fffff00
01ffffff00
00fc007f00
00fc003f00
01fc003f00
01f8001f80
03e0000f00
ENDCHAR
STARTCHAR qe
ENCODING  31329
SWIDTH 744 0
DWIDTH 32 0
BBX 28 33 1 -1
BITMAP
0001c000
001fe000
001fe000
001fc000
000fc000
000fc000
000fc000
000fc000
001fc000
001fff80
003fffe0
03ffc7f0
0f9fc7f0
3f1fc7f0
3e1fc7f0
7e1fc7e0
7e1fc7e0
7e1f87c0
fe1f8fc0
fe1fff00
7ffff800
7fff8000
3c3f8000
003f8000
003f8000
003f8000
003f8000
003f8000
003f8000
003f8000
003fc000
003fc000
003c0000
ENDCHAR
STARTCHAR qu
ENCODING  31330
SWIDTH 768 0
DWIDTH 33 0
BBX 29 33 1 -1
BITMAP
0001c000
001fe000
001fe000
001fc000
000fc000
000fc000
000fc000
000fc000
001fc000
001fff80
003fffe0
03ffc7f0
0f9fc7f0
1f1fc7f0
3e1fc7f0
7e1f87e0
7e1f87e0
7e1f8fc0
fe1f9fc0
ff1fff00
7ffff800
7fff81e0
3c3f87e0
003f8fe0
003f8fe0
003ffff0
003ffff0
003f87f8
003f87e0
003f8000
003fc000
003fc000
003c0000
ENDCHAR
STARTCHAR qi
ENCODING  31331
SWIDTH 768 0
DWIDTH 33 0
BBX 29 35 1 -3
BITMAP
00004000
001fe000
001fe000
001fc000
000fc000
000fc000
000fc000
000fc000
001fc000
001fdf00
001fffe0
01ffcfe0
0fffc7f0
1f1fc7f0
3e1fc7f0
7e1f87e0
7e1f87e0
7e1f87e0
fe1f8fc0
fe3fff80
7ffffe00
7fff8000
3c3f8000
003f8000
003f8000
003f8000
003f8000
003f81f0
003f87f0
003f87f0
003ffff0
003ffff0
003807f0
000007f8
000003f8
ENDCHAR
STARTCHAR qa
ENCODING  31332
SWIDTH 864 0
DWIDTH 37 0
BBX 33 34 3 -2
BITMAP
00003f0000
0000ff0000
0000fe0000
0000fe0000
00007e0000
00007e0000
00007e0000
0000fffe00
0001ffff00
001ffe3f80
007cfe3f80
00f8fe3f80
01f0fc3f80
03f0fc3f00
03f0fc3f00
03f0fc7e00
07f0fcfc00
03f9fff000
03fffc0000
01f9fc0000
0001fc0000
0001fc0000
0001f80000
0001f80000
0003f00000
0007e00000
003f800000
7ffc000000
7f00000000
7f00000000
7f00000000
7e00000000
7c00000000
f800000000
ENDCHAR
STARTCHAR qE
ENCODING  31333
SWIDTH 768 0
DWIDTH 32 0
BBX 28 33 1 -1
BITMAP
0001c000
001fe000
001fe000
001fc000
000fc000
000fc000
000fc000
001fc000
001fc000
001fff80
003fffe0
03ffc7e0
0f9fc7f0
1f1fc7f0
3e1f87f0
7e1f87e0
7e1f87e0
7e1f8fc0
fe1f9fc0
ff3fff00
7ffff800
7fff8000
3c3f8000
003f8000
003fffc0
003f8fc0
003f87e0
003f87e0
003f83e0
003f87e0
003f8fc0
003fff80
00380400
ENDCHAR
STARTCHAR q
ENCODING  31334
SWIDTH 768 0
DWIDTH 31 0
BBX 27 36 4 -1
BITMAP
3fc00000
1fc00000
1fe00000
1fc00000
1fc00000
1fffc000
3fffc000
1f0fc000
001fc000
001fc000
001fc000
001fc000
001fff80
003fffe0
03ff8fe0
0f9f87e0
3f1f87e0
7e1f87e0
7e3f87e0
fe3f87e0
fe3f8fc0
fe3f9f80
fe3fff00
fffff800
7fff8000
3c3f8000
003f8000
003f8000
003f8000
003f8000
007f0000
007f8000
007f8000
007f8000
003f8000
00380000
ENDCHAR
STARTCHAR qo
ENCODING  31335
SWIDTH 768 0
DWIDTH 32 0
BBX 28 35 1 0
BITMAP
0001e000
001ffc00
003e7e00
007c3f00
00fc3f00
00fc3f00
00fc3e00
00fc3e00
00fe7c00
007ff800
003fe000
001fc000
001fff80
001fffe0
00ffc7f0
07dfc7f0
1f1fc7f0
3f1fc3f0
7e1fc3e0
7e1fc7e0
7e1fc7c0
fe1fdfc0
ff1fff00
7ffff800
7fff8000
3c3f8000
003f8000
003f8000
003f8000
003f8000
003f8000
003f8000
003fc000
003fc000
003e0000
ENDCHAR
STARTCHAR qWe
ENCODING  31337
SWIDTH 912 0
DWIDTH 39 0
BBX 35 33 1 -1
BITMAP
0001c00000
001fe00000
001fe00000
001fc00000
000fc00000
000fc00000
000fc00000
000fc00000
001fc00000
001fff8000
003fffe000
03ffc7e000
0fffc7f000
1f1fc7f000
3f1fc7f000
7e1fc7f000
7e1fc7e000
7e1f87e000
fe1f8fc000
fe1fff0000
7ffffc0000
7fff800000
3c3f9fffc0
003fffc7e0
003fefc7e0
003f8fc7e0
003f8fc7e0
003f8fc7e0
003f8fc7e0
003f87ffc0
003fc38000
003fc00000
003c000000
ENDCHAR
STARTCHAR qWi
ENCODING  31339
SWIDTH 1248 0
DWIDTH 53 0
BBX 49 33 1 -1
BITMAP
0001e000000000
001fe000000000
001fe000000000
001fc000000000
000fc000000000
000fc000000000
000fc000000000
000fc000000000
001fc0001e0000
001fff80fe0000
003fffc0fe0000
03ffcfe0fe0000
0fdfc7f0fe0000
1f1fc7f0fe0000
3f1fc7fffe0000
7f1fc7fffc0000
7e1fc7f1fc0000
7e1f87e1fc7f00
fe1f8fe0ffff00
ff1fff80007f00
7ffffc00007f00
7fff8000003f00
3c3f8000003f80
003f8000000f80
003f8000000000
003f8000000000
003f8000000000
003f8000000000
003f8000000000
003f8000000000
003fc000000000
003fc000000000
003c0000000000
ENDCHAR
STARTCHAR qWa
ENCODING  31340
SWIDTH 720 0
DWIDTH 32 0
BBX 28 37 1 -4
BITMAP
0000c000
001fe000
001fe000
001fc000
000fc000
000fc000
000fce00
000fffc0
01ffefe0
07ffc7f0
1f9fc7f0
3f1fc7f0
7f1fc7e0
7e1fc7e0
7e1fc7e0
fe1f8fc0
fe1f9f80
7ffffe00
7fff8000
7f3f8000
003f8000
003f8000
003f8000
003f8000
007ffe00
3fffff00
3fc03f80
1fc03f80
3fc03f80
3f803f80
7f003f80
7e003f80
00003f80
00003f80
00003fc0
00003fc0
00003f00
ENDCHAR
STARTCHAR qWE
ENCODING  31341
SWIDTH 816 0
DWIDTH 36 0
BBX 32 38 1 -5
BITMAP
0001fc00
0001fc00
0001fc00
0001fc00
0001fc00
0001fc00
0001fff8
0007fffe
003ffcfe
00f9fc7f
03f1fc7f
07f1fc7e
07e1f87e
07e1f87e
0fe1f8fc
0fe3f8fc
0ff3fff0
07ffff80
07fff800
03c3f800
0003f800
0003fff8
0003fffc
0003f87c
0003f07e
0003f07e
0003f07e
0007f87c
0007f9fc
001ffff0
0fff0000
7fc00000
3f800000
3f800000
7f000000
7f000000
fe000000
78000000
ENDCHAR
STARTCHAR qWu/qW
ENCODING  31342
SWIDTH 1176 0
DWIDTH 50 0
BBX 46 33 1 -1
BITMAP
0007e0000000
001fe0000000
001fe0000000
001fe0000000
000fc0000000
000fc0000000
000fc0003e00
000fc001fe00
001fc001fe00
001fff80fc00
00ffffe0fc00
07ffc7e0fc00
1f9fc7f1fc00
3f1fc7f1fc00
3f1fc7fffc00
7e1fc7ffe7f8
7e1f87f003f8
fe1f87e003f8
fe1f8fe003f8
ff3fff8001fc
7ffffc0000fc
7fff80000038
3c3f80000000
003f80000000
003f80000000
003f80000000
003f80000000
003f80000000
003f80000000
003f80000000
003fc0000000
003fc0000000
003c00000000
ENDCHAR
STARTCHAR Qe
ENCODING  31345
SWIDTH 744 0
DWIDTH 33 0
BBX 29 37 1 -1
BITMAP
000003f0
000007e0
3f800fe0
1fc00fe0
1fdffff0
1fffeff0
1fcfc7f8
3f8fc3f0
3f0fc000
000fc000
000fc000
000fc000
001fc000
001fffc0
003fffe0
03ffc7f0
0f9fc7f0
3f1fc7f0
3e1fc7f0
7e1fc7e0
7e1fc7e0
fe1f87c0
fe1f8fc0
fe1fff00
7ffff800
7fff8000
3c3f8000
003f8000
003f8000
003f8000
003f8000
003f8000
003f8000
003f8000
003fc000
003fc000
003c0000
ENDCHAR
STARTCHAR Qu
ENCODING  31346
SWIDTH 768 0
DWIDTH 33 0
BBX 29 37 1 -1
BITMAP
000003f0
000007e0
3f800fe0
1fc00fe0
1fdffff0
1fffeff0
1fcfc7f8
3f8fc3f0
3f0fc000
000fc000
000fc000
000fc000
001fc000
001fff80
003fffe0
03ffc7f0
0f9fc7f0
1f1fc7f0
3e1fc7f0
7e1f87e0
7e1f87e0
7e1f8fc0
fe1f9fc0
ff1fff00
7ffff800
7fff81e0
3c3f87e0
003f8fe0
003f8fe0
003ffff0
003ffff0
003f87f8
003f87e0
003f8000
003fc000
003fc000
003c0000
ENDCHAR
STARTCHAR Qi
ENCODING  31347
SWIDTH 768 0
DWIDTH 33 0
BBX 29 39 1 -3
BITMAP
000003f0
000007e0
3f800fe0
1fc00fe0
1fdffff0
1fffeff0
1fcfc7f8
3f8fc3f0
3f0fc000
000fc000
000fc000
000fc000
001fc000
001fdf00
001fffe0
01ffcfe0
0fffc7f0
1f1fc7f0
3e1fc7f0
7e1f87e0
7e1f87e0
7e1f87e0
fe1f8fc0
fe3fff80
7ffffe00
7fff8000
3c3f8000
003f8000
003f8000
003f8000
003f8000
003f81f0
003f87f0
003f87f0
003ffff0
003ffff0
003807f0
000007f8
000003f8
ENDCHAR
STARTCHAR Qa
ENCODING  31348
SWIDTH 864 0
DWIDTH 38 0
BBX 34 41 3 -5
BITMAP
0000000380
0000003f00
01fc007f00
01fc007f00
00fe0fff00
00ffffff80
00fffe3f80
00fc7e3fc0
01fc7e0000
03e07e0000
00007e0000
00007e0000
0000fe0000
0000fefc00
0000ffff00
001ffe7f00
007efe3f80
00f8fe3f80
01f8fe3f80
03f0fc3f00
03f0fc3f00
03f0fc3e00
07f0fcfc00
03f8fff000
03fffc0000
01f9fc0000
0001fc0000
0001fc0000
0001f80000
0001f80000
0003f00000
0007e00000
001f800000
3ffe000000
7f00000000
7f00000000
7f00000000
7e00000000
7c00000000
f800000000
2000000000
ENDCHAR
STARTCHAR QE
ENCODING  31349
SWIDTH 768 0
DWIDTH 33 0
BBX 29 37 1 -1
BITMAP
000003f0
000007e0
3f800fe0
1fc00fe0
1fdffff0
1fffeff0
1fcfc7f8
3f8fc3f0
3f0fc000
000fc000
000fc000
000fc000
001fc000
001fff80
003fffe0
03ffc7e0
0f9fc7f0
1f1fc7f0
3e1f87f0
7e1f87e0
7e1f87e0
7e1f8fc0
fe1f9fc0
ff3fff00
7ffff800
7fff8000
3c3f8000
003f8000
003fffc0
003f8fc0
003f87e0
003f87e0
003f83e0
003f87e0
003f8fc0
003fff80
00380400
ENDCHAR
STARTCHAR Q
ENCODING  31350
SWIDTH 888 0
DWIDTH 38 0
BBX 34 41 2 -1
BITMAP
000000c000
00000fc000
7e001fc000
7f001fc000
7f07ffc000
3fffffc000
7fff9fe000
7f1fcfe000
7e1f800000
f01f800000
003fff8000
003fff8000
003f3f8000
00003f8000
00003f8000
00003f8000
00003f8000
00003fff00
00007fffc0
000fff1fc0
003f3f0fc0
007e3f0fc0
00fc3f0fc0
00fc7f0fc0
01fc7f0fc0
01fc7f1f80
01fc7f3f00
01fc7ffe00
01fffff000
00ffff0000
00787f0000
00007f0000
00007f0000
00007f0000
00007f0000
0000fe0000
0000ff0000
0000ff0000
0000ff0000
0000ff0000
0000700000
ENDCHAR
STARTCHAR Qo
ENCODING  31351
SWIDTH 864 0
DWIDTH 36 0
BBX 32 40 2 0
BITMAP
0000007e
7e0000fe
7f0000fe
7f001ffe
3ffffffe
7ffff0ff
7f1ffc7f
7e3c7e00
f87c3e00
00fc3e00
00fc3e00
00fc3e00
00fc7e00
00fc7c00
007ff000
003fe000
001fc000
001fff80
001fffe0
01ffc7e0
0fdfc7f0
1f1fc7f0
3f1fc7e0
7e1fc7e0
7e1fc7e0
fe1f87c0
fe1f9fc0
ff1fff00
7ffff800
7fff8000
3c3f8000
003f8000
003f8000
003f8000
003f8000
003f8000
003f8000
003f8000
003fc000
003e0000
ENDCHAR
STARTCHAR QWe
ENCODING  31353
SWIDTH 912 0
DWIDTH 39 0
BBX 35 36 1 -1
BITMAP
000003f000
060007e000
3f800fe000
1fc01fe000
1ffffff000
1fffe7f000
1fcfc7f800
3f8fc3e000
3f0fc00000
000fc00000
000fc00000
000fc00000
001fff8000
003fffe000
03ffc7e000
0fffc7f000
1f1fc7f000
3f1fc7f000
7e1fc7f000
7e1fc7e000
7e1f87e000
fe1f8fc000
fe1fff0000
7ffffc0000
7fff800000
3c3f9fffc0
003fffc7e0
003fefc7e0
003f8fc7e0
003f8fc7e0
003f8fc7e0
003f8fc7e0
003f87ffc0
003fc38000
003fc00000
003c000000
ENDCHAR
STARTCHAR QWi
ENCODING  31355
SWIDTH 1224 0
DWIDTH 53 0
BBX 49 36 1 -1
BITMAP
000003f0000000
060007e0000000
3f800fe0000000
1fc01fe0000000
1ffffff0000000
1fffe7f0000000
1fcfc7f8000000
3f8fc3e0000000
3f0fc000000000
000fc000000000
000fc000000000
001fc0001e0000
001fff80fe0000
003fffc0fe0000
03ffcfe0fe0000
0fdfc7f0fe0000
1f1fc7f0fe0000
3f1fc7fffe0000
7f1fc7fffc0000
7e1fc7f1fc0000
7e1f87e1fc7f00
fe1f8fe0ffff00
ff1fff80007f00
7ffffc00007f00
7fff8000003f00
3c3f8000003f80
003f8000000f80
003f8000000000
003f8000000000
003f8000000000
003f8000000000
003f8000000000
003f8000000000
003fc000000000
003fc000000000
003c0000000000
ENDCHAR
STARTCHAR QWa
ENCODING  31356
SWIDTH 744 0
DWIDTH 33 0
BBX 29 41 1 -4
BITMAP
000001e0
000007e0
7f800fe0
3f800fe0
1f87ffe0
1ffffff0
1fcfcff0
3f9fc7f8
3f1fc000
701fc000
001fce00
001fffc0
01ffdfe0
0fffcfe0
1f9f87e0
3f1f87e0
7e1f87e0
7e3f87e0
fe3f8fc0
fe3f8fc0
fe3f9f80
fffffe00
ffff8000
7f3f8000
003f8000
003f8000
003f8000
003f8000
007ffe00
3fffff00
3fc03f00
3fc03f80
3f803f80
3f803f80
7f003f80
7e003f80
00003f80
00003f80
00003f80
00003fc0
00003e00
ENDCHAR
STARTCHAR QWE
ENCODING  31357
SWIDTH 840 0
DWIDTH 36 0
BBX 32 43 1 -5
BITMAP
00000001
0000007e
03f000fe
03f800fe
03f81ffe
01fffffe
01fffcff
03f9fc7f
03f1fc00
07c1fc00
0001fc00
0001fff8
000ffffc
007ffcfe
01f9fc7e
03f1f87e
07e1f87e
07e1f87e
0fe3f87e
0fe3f8fc
0fe3f8f8
0ff3fff0
0fffff80
07fff800
03c3f800
0003f800
0003fff8
0003fffc
0003f07c
0003f07c
0007f07c
0007f07c
0007f07c
0007f9fc
001ffff0
1fff0000
7fc00000
3f800000
3f800000
7f000000
7e000000
fc000000
78000000
ENDCHAR
STARTCHAR QWu/QW
ENCODING  31358
SWIDTH 1176 0
DWIDTH 50 0
BBX 46 36 1 -1
BITMAP
000003f00000
060007e00000
3f800fe00000
1fc01fe00000
1ffffff00000
1fffe7f00000
1fcfc7f80000
3f8fc3e00000
3f0fc0000000
000fc0003e00
000fc001fe00
001fc001fe00
001fff80fc00
00ffffe0fc00
07ffc7e0fc00
1f9fc7f1fc00
3f1fc7f1fc00
3f1fc7fffc00
7e1fc7ffe7f8
7e1f87f003f8
fe1f87e003f8
fe1f8fe003f8
ff3fff8001fc
7ffffc0000fc
7fff80000038
3c3f80000000
003f80000000
003f80000000
003f80000000
003f80000000
003f80000000
003f80000000
003f80000000
003fc0000000
003fc0000000
003c00000000
ENDCHAR
STARTCHAR be
ENCODING  31523
SWIDTH 624 0
DWIDTH 25 0
BBX 21 31 2 -1
BITMAP
00ff80
03ffc0
0f87e0
1f07f0
1f03f0
3f03f0
7e03f0
7e03f8
7e03f8
fe03f8
fe03f8
fe03f8
fe03f8
fe03f8
fe03f8
fe03f8
fe07f0
fe07f0
fe07f0
fe07f0
fe07f0
fe07f0
fe07f0
fe07f0
fe07f0
fe07f0
ff07f8
ff07f8
ff07f8
7f03f8
7803c0
ENDCHAR
STARTCHAR bu
ENCODING  31524
SWIDTH 888 0
DWIDTH 37 0
BBX 33 31 2 -1
BITMAP
00ff800000
03ffe00000
0f8ff00000
1f07f00000
1f03f80000
3f03f80000
7f03f80000
7f03f81e00
7e03f87e00
fe03f8fe00
fe03f8fe00
fe03f8fe00
fe03ffff00
fe03ffff00
fe03f87f80
fe03f83c00
fe03f80000
fe03f80000
fe03f80000
fe03f80000
fe03f80000
fe03f80000
fe03f80000
fe03f80000
fe03f80000
fe03f80000
ff03f80000
ff03f80000
ff03fc0000
7f03fc0000
7803c00000
ENDCHAR
STARTCHAR bi
ENCODING  31525
SWIDTH 864 0
DWIDTH 37 0
BBX 33 33 2 -3
BITMAP
00ff800000
03ffe00000
0f8fe00000
1f07f00000
1f03f00000
3f03f80000
7f03f80000
7f03f80000
7e03f80000
fe03f80000
fe03f80000
fe03f80000
fe03f80000
fe03f80000
fe03f80000
fe03f80000
fe03f80000
fe03f80000
fe03f80000
fe03f80000
fe03f80000
fe03f80000
fe03f80000
fe03f80000
fe03f80000
fe03f81f00
ff03f87f00
ff03f87f00
ff03ffff00
7f03ffff00
7803807f00
0000007f80
0000003f80
ENDCHAR
STARTCHAR ba
ENCODING  31526
SWIDTH 576 0
DWIDTH 26 0
BBX 22 31 1 -1
BITMAP
00ff80
03ffe0
0f8ff0
1f07f0
3f03f8
3f03f8
7f03f8
7e03f8
fe03f8
fe03f8
fe03f8
fe03f8
fe03f8
fe03f8
fe03f8
fe03f8
fe03f8
fe03f8
ff03f8
ff03f8
ff03f8
7f83f8
7803f8
0003f8
0003f8
0003f8
0003f8
0003f8
0003fc
0003fc
0003c0
ENDCHAR
STARTCHAR bE
ENCODING  31527
SWIDTH 792 0
DWIDTH 35 0
BBX 31 31 2 -1
BITMAP
00ff8000
03ffe000
0f8fe000
1f07f000
1f03f000
3f03f800
7f03f800
7f03f800
7e03f800
fe03f800
fe03f800
fe03f800
fe03f800
fe03f800
fe03f800
fe03f800
fe03f800
fe03f800
fe03f800
fe03f800
fe03f8f0
fe03fffc
fe03fffc
fe03f87e
fe03f87e
fe03f07e
ff03f87e
ff03f87c
ff03fffc
7f03fff8
78038040
ENDCHAR
STARTCHAR b
ENCODING  31528
SWIDTH 864 0
DWIDTH 36 0
BBX 32 30 1 0
BITMAP
00003ff0
0000f3f8
0003e1fc
0007e0fc
000fc0fe
001fc0fe
001fc0fe
001fc0fe
001fc0fe
003fc0fe
01ffc0fe
7fbfc0fe
fe3fc0fe
7e3fc0fe
7e3fc0fe
7c3fc0fe
f83fc0fe
e03fc0fe
003fc0fe
003fc0fe
003fc0fe
003fc0fe
003fc0fe
003fc0fe
003fc0fe
003fc0fe
003fc0fe
001fe0ff
001fe0ff
001fc07e
ENDCHAR
STARTCHAR bo
ENCODING  31529
SWIDTH 600 0
DWIDTH 25 0
BBX 21 31 2 -1
BITMAP
00ff80
07ffe0
0f8fe0
1f07f0
3f07f0
7e07f0
7e07f0
fe07f0
fe07f0
fe07f0
fe07f0
fe07f0
fe07f0
fe07f0
fe07f0
fe07f0
fe07f0
fe07f0
fe07f0
fe07f8
fe07f8
fe07e0
fe0000
fe0000
fe0000
fe0000
fe0000
fe0000
ff0000
ff0000
700000
ENDCHAR
STARTCHAR bWa
ENCODING  31530
SWIDTH 816 0
DWIDTH 34 0
BBX 30 35 2 -5
BITMAP
00ff0000
07ffc000
0f8fe000
1f07f000
3e07f000
7e07f000
7e07f000
fe07f800
fe07f800
fe07f800
fe07f800
fe07f800
fe07f800
fe07f800
fe07f800
fe07f800
fe07f800
fe07f800
fe07f000
fe07f000
ff07f000
ff07f000
7807f000
0007f000
0007f000
0007f000
0007f000
0007f800
03fffffc
07fffffc
07f001fc
07f001fc
07e000fc
07c000fc
0f80007c
ENDCHAR
STARTCHAR ve
ENCODING  31531
SWIDTH 696 0
DWIDTH 31 0
BBX 27 36 1 0
BITMAP
000007c0
00001fc0
ff001fc0
7f003fc0
7f7fffc0
7fff1fc0
7f001fe0
7f0007c0
fc000000
000ff000
007ff800
01f0fc00
03e0fc00
07e0fe00
07c0fe00
0fc0fe00
0fc0fe00
0fc0fe00
1fc0fe00
1fc0fe00
1fc0fe00
1fc0fe00
1fc0fe00
1fc0fe00
1fc0fe00
1fc0fe00
1fc0fe00
1fc0fe00
1fc0fe00
1fc0fe00
1fc0fe00
1fc0fe00
1fe0fe00
1fe0fe00
0fe0ff00
0fe0fe00
ENDCHAR
STARTCHAR vu
ENCODING  31532
SWIDTH 888 0
DWIDTH 38 0
BBX 34 37 1 -1
BITMAP
000007c000
00001fc000
ff001fc000
7f001fc000
3f3fffc000
3fff9fe000
3f000fe000
7f0007c000
fe00000000
000fc00000
007ff80000
01f1fc0000
03e0fe0000
07e0fe0000
0fc0fe0000
0fc0fe0000
0fc0fe0f80
1fc0fe1f80
1fc0fe3f80
1fc0fe3f80
1fc0ffffc0
1fc0ff9fc0
1fc0fe1fc0
1fc0fe0000
1fc0fe0000
1fc0fe0000
1fc0fe0000
1fc0fe0000
1fc0fe0000
1fc0fe0000
1fc0fe0000
1fc0fe0000
1fc0fe0000
1fc0fe0000
1fe0ff0000
1fe0ff0000
0f00780000
ENDCHAR
STARTCHAR vi
ENCODING  31533
SWIDTH 864 0
DWIDTH 37 0
BBX 33 38 2 -2
BITMAP
000007c000
00001f8000
fe003f8000
7f003f8000
7f7fffc000
7fff1fc000
7f001fe000
7e000fc000
fc00000000
001fe00000
00fff00000
03e3f80000
07c1f80000
07c1fc0000
0fc1fc0000
0fc1fc0000
1fc1fc0000
1fc1fc0000
1fc1fc0000
1fc1fc0000
1fc1fc0000
1fc1fc0000
1fc1fc0000
1fc1fc0000
1fc1fc0000
1fc1fc0000
1fc1fc0000
1fc1fc0000
1fc1fc0000
1fc1fc0000
1fc1fc0000
1fc1fc1f00
1fc1fc3f00
1fc1fc3f00
1fe1ffff00
0fc0fc3f00
0000003f80
0000003f80
ENDCHAR
STARTCHAR va
ENCODING  31534
SWIDTH 720 0
DWIDTH 31 0
BBX 27 37 2 -1
BITMAP
000007c0
00001f80
fe003f80
7f003f80
7f7fffc0
7fff1fc0
7f001fe0
7e000fc0
fc000000
003fe000
00fff800
03e1fc00
07c1fc00
0fc0fc00
0fc0fe00
1fc0fe00
1fc0fe00
1fc0fe00
3fc0fe00
3fc0fe00
3fc0fe00
3fc0fe00
3fc0fe00
3fc0fe00
3fc0fe00
3fc0fe00
3fc0fe00
1fe0fe00
1fc0fc00
0800fc00
0000fc00
0000fc00
0000fe00
0000fe00
0000fe00
0000fe00
00004000
ENDCHAR
STARTCHAR vE
ENCODING  31535
SWIDTH 888 0
DWIDTH 38 0
BBX 34 37 2 -1
BITMAP
00000fc000
00001f8000
fe003f8000
7e003f8000
7f7fff8000
7fff3fc000
7f001fc000
fe000fc000
fc00000000
003fe00000
00fff80000
03e1fc0000
07c1fc0000
0fc0fe0000
1f80fe0000
3f80fe0000
3f80fe0000
3f80fe0000
7f80fe0000
7f80fe0000
7f80fe0000
7f80fe0000
7f80fe0000
7f80fe0000
7f80fe0000
7f80fe0000
7f80fe0000
7f80fe7e00
7f80ffff80
7f80fe3f80
7f80fe0fc0
7f81fe0fc0
7f81fe0fc0
7fc1fe1f80
7fc1ffff80
3fc0fffe00
1000400000
ENDCHAR
STARTCHAR v
ENCODING  31536
SWIDTH 864 0
DWIDTH 38 0
BBX 34 37 1 -1
BITMAP
0000001f80
0000003f00
01fc007f00
00fe007f00
00feffff80
00fffe7f80
00fe003fc0
01fc001f80
01f8000000
00003fe000
0001f7f000
0003c1f800
000fc1fc00
001fc1fc00
001f81fc00
003f81fc00
003f81fc00
003f81fc00
00ff81fc00
3fff81fc00
ff3f81fc00
fe3f81fc00
fe3f81fc00
fc3f81fc00
f83f81fc00
f03f81fc00
003f81fc00
003f81fc00
003f81fc00
003f81fc00
003f81fc00
003f81fc00
003f81fc00
003f81fc00
003fc1fe00
003fc1fe00
003f80fc00
ENDCHAR
STARTCHAR vo
ENCODING  31537
SWIDTH 696 0
DWIDTH 31 0
BBX 27 36 1 0
BITMAP
000007c0
00001fc0
ff001fc0
7f003fc0
3f3fffc0
3fff1fe0
7f000fe0
7f0007c0
fe000000
001fe000
007ff800
01f1fc00
03e0fe00
03e0fe00
07e0fe00
07e0fe00
0fe0fe00
0fe0fe00
0fc0fe00
0fc0fe00
0fc0fe00
0fc0fe00
0fc0fe00
0fc0fe00
0fc0fe00
0fc0fe00
0fc0fe00
0fc0fe00
0fc00000
0fc00000
0fc00000
0fe00000
0fe00000
0fe00000
0ff00000
0fc00000
ENDCHAR
STARTCHAR vWa
ENCODING  31538
SWIDTH 816 0
DWIDTH 37 0
BBX 33 44 -1 -5
BITMAP
000007c000
00001f8000
fe003f8000
7f003fc000
7f7fffc000
7fff1fc000
7f001fe000
7e000fc000
fc00000000
001fe00000
00fff80000
01f1fc0000
03e0fe0000
07c0fe0000
0fc0fe0000
0fc0fe0000
1fc0ff0000
1fc0ff0000
1fc0ff0000
1fc0ff0000
1fc0ff0000
1fc0ff0000
1fc0ff0000
1fc0ff0000
1fc0ff0000
1fc0ff0000
1fc0ff0000
1fc0fe0000
1fc0fe0000
1fe0fe0000
1fe0fe0000
0f00fe0000
0000fe0000
0000fe0000
0000fe0000
0000fe0000
0000ff0000
007fffff80
00ffffff80
00fe003f80
00fe003f80
00fc001f80
00f8001f80
01f0000f80
ENDCHAR
STARTCHAR te
ENCODING  31539
SWIDTH 792 0
DWIDTH 35 0
BBX 31 29 1 0
BITMAP
0000e000
000fe000
000fe000
000fe000
000fe000
000fe000
000fe000
000fe0fc
000ffff8
01fffff8
7fffe3f8
3f0fc1f8
3f0fc1fc
3f0fc0fe
7e0fc038
7c1fc000
f81fc000
001fc000
001fc000
001fc000
001fc000
001fc000
001fc000
001fc000
001fc000
001fc000
001fc000
001fe000
001fc000
ENDCHAR
STARTCHAR tu
ENCODING  31540
SWIDTH 792 0
DWIDTH 34 0
BBX 30 29 1 0
BITMAP
0001e000
001fe000
001fe000
000fe000
000fe000
000fe000
000fe000
000fe0f8
000ffff8
03fffff8
7fffc3f8
3f0fc3f8
3f0fc1fc
3f0fc0fc
7e1fc038
7c1fc000
f81fc000
001fc1e0
001fc7e0
001fcfe0
001fdfe0
001fffe0
001fc7f0
001fc7f0
001fc1c0
001fc000
001fc000
001fe000
001fc000
ENDCHAR
STARTCHAR ti
ENCODING  31541
SWIDTH 792 0
DWIDTH 35 0
BBX 31 32 1 -3
BITMAP
0000f000
000ff000
000ff000
000fe000
0007e000
000fe000
000fe000
000fe07c
000ffffc
01fffffc
7fffe1f8
3f0fe1fc
3f0fe0fc
3f0fe0fe
7e0fe03c
7c0fc000
f81fc000
001fc000
001fc000
001fc000
001fc000
001fc000
001fc000
001fc070
001fc1f8
001fc3f8
001fc3f8
001ffff8
001f83f8
000003f8
000001fc
00000060
ENDCHAR
STARTCHAR ta
ENCODING  31542
SWIDTH 864 0
DWIDTH 36 0
BBX 32 33 2 -2
BITMAP
00003000
000ff000
000ff800
0007f800
0003f800
0003f800
0003f800
0003f800
0003f000
0003f0fe
0003fffe
07fffefe
1ffff0fe
1fc7f0fe
1fc7f07f
1f87f03f
1f87f000
3f07f000
1c07f000
0007f000
0007f000
0007e000
0007e000
000fc000
001f8000
003f0000
7ffc0000
7f000000
7f000000
7e000000
7e000000
fc000000
f8000000
ENDCHAR
STARTCHAR tE
ENCODING  31543
SWIDTH 792 0
DWIDTH 34 0
BBX 30 29 1 0
BITMAP
0001e000
001fe000
001fe000
000fe000
000fe000
000fe000
000fe000
000fe0f8
000ffff8
03fffff8
7fffc3f8
3f0fc3f8
3f0fc1fc
3f0fc0fc
7e0fc038
7c1fc000
f81fc000
001fc000
001fc000
001fffc0
001fffe0
001fc7f0
001fc3f0
001f83f0
001f83f0
001fc3f0
001fc7e0
001fffc0
001fff00
ENDCHAR
STARTCHAR t
ENCODING  31544
SWIDTH 792 0
DWIDTH 35 0
BBX 31 35 1 0
BITMAP
07c00000
0fe00000
0ff00000
07f00000
07f00000
07f00000
0ff0f000
0ffff000
0207f000
0007f000
0007e000
000fe000
000fe000
000fe07c
000ffffc
01fffffc
7fffe1fc
3f0fe1fc
3f0fe0fc
3f0fe0fe
7e0fc03c
7c0fc000
f81fc000
001fc000
001fc000
001fc000
001fc000
001fc000
001fc000
001fc000
001fc000
001fc000
001fc000
001fe000
001fc000
ENDCHAR
STARTCHAR to
ENCODING  31545
SWIDTH 792 0
DWIDTH 35 0
BBX 31 33 1 1
BITMAP
0003fc00
000fff00
001f1f00
003e1f80
007e1f80
007e1f80
007e1f00
007e1f00
007f3e00
003ff800
001ff000
000fe000
000fe0fc
000ffffc
03fffffc
7fffe1fc
3f0fe1fc
3f0fe0fc
3f0fe07e
7e1fe03c
7c1fe000
f81fc000
001fc000
001fc000
001fc000
001fc000
001fc000
001fc000
001fc000
001fc000
001fc000
001fe000
001fc000
ENDCHAR
STARTCHAR tWa
ENCODING  31546
SWIDTH 792 0
DWIDTH 34 0
BBX 30 34 2 -6
BITMAP
001fc000
001fc000
001fc000
001fc000
001fc000
001fc000
001fc010
001fcff8
00fffff0
7fffe7f0
ff9fc7f0
7e1fc3f8
7e1f81f8
7c1f80fc
fc3f8000
f83f8000
e03f8000
003f8000
003f8000
003f8000
003f8000
003f8000
003f8000
003f8000
003f8000
003fbf80
01ffff80
7fffff80
7f801f80
7f001f80
7e001fc0
7e000fc0
fc000700
f0000000
ENDCHAR
STARTCHAR ce
ENCODING  31547
SWIDTH 792 0
DWIDTH 34 0
BBX 30 34 1 0
BITMAP
000000f8
000003f8
3f8003f8
1fc007f8
1fc7fff8
1fffe3fc
1fefe1fc
1f8fe0f0
3f0fe000
700fe000
000fe000
000fe000
000fe3f8
000ffff8
03fffbf8
7fffc3f8
7f1fc1f8
7f1fc1fc
7e1fc0fc
7e1fc000
7c1fc000
f81fc000
001fc000
001fc000
001f8000
001f8000
003f8000
003f8000
003f8000
003f8000
003f8000
003fc000
003fc000
001fc000
ENDCHAR
STARTCHAR cu
ENCODING  31548
SWIDTH 792 0
DWIDTH 34 0
BBX 30 34 1 0
BITMAP
000000f8
000003f8
3f0003f8
3f8007f8
1f81fff8
1ffffbf8
1fffe3fc
1f8fe1fc
3f8fe000
7c0fe000
000fc000
000fc000
000fc0f8
000ffff8
03fffff8
7fffc3f8
7f1fc3f8
7f1fc1f8
7e1fc0fc
7e1fc078
7c1fc000
f81fc000
001fc7e0
001f8fe0
001f8fe0
001fffe0
001fffe0
001f87f0
003f83f0
003f8000
003fc000
003fc000
003fe000
001fc000
ENDCHAR
STARTCHAR ci
ENCODING  31549
SWIDTH 792 0
DWIDTH 34 0
BBX 30 37 1 -3
BITMAP
00000078
000001f8
3f8003f8
3f8003f8
1fc1fff8
1ffffbf8
1fffe3fc
1fcfe1fc
3f8fe000
7c0fe000
000fe000
000fe000
000fe0f8
000ffff8
03fffff8
7fffc3f8
7f1fc3f8
7f1fc1fc
7e1fc0fc
7e1fc038
7c1fc000
f81fc000
001fc000
001fc000
001fc000
001fc000
001fc000
001fc000
001fc070
003fc1f8
003fc3f0
003fc7f0
003ffff0
001f87f8
000003f8
000003fc
000000e0
ENDCHAR
STARTCHAR ca
ENCODING  31550
SWIDTH 888 0
DWIDTH 37 0
BBX 33 38 2 -3
BITMAP
0000003f00
0000007e00
0fe000fe00
07f000fe00
07f0ffff00
07fffcff00
07fdf87f00
07f1f83f00
0fe1f80000
1f03f80000
0003f80000
0003f80000
0003f80000
0003f87f00
0003fffe00
00fffffe00
1ffff8fe00
0fc3f87e00
0fc3f07f00
0fc3f03f80
1f83f00e00
1f03f00000
1e03f00000
0007f00000
0007e00000
0007e00000
0007c00000
000fc00000
000f800000
001f000000
0ffc000000
7fc0000000
7f00000000
7e00000000
7e00000000
7c00000000
f800000000
7000000000
ENDCHAR
STARTCHAR cE
ENCODING  31551
SWIDTH 792 0
DWIDTH 34 0
BBX 30 34 1 0
BITMAP
000001f8
000003f8
7f8007f8
3f800ff8
1f8ffff8
1fffe3f8
1fcfe3fc
3f8fe0f0
3f0fe000
600fc000
000fc000
000fc018
000fcff8
000ffff8
03ffe7f8
7fffc3f8
7f1fc3f8
7f1fc1fc
7e1fc0fc
7e1fc000
7c1fc000
f81fc000
001f8000
001f8000
001fffc0
001fffe0
001f87e0
001f83f0
003f83f0
003f83f0
003f83e0
003f87e0
003fffc0
001fff00
ENDCHAR
STARTCHAR c
ENCODING  31552
SWIDTH 960 0
DWIDTH 40 0
BBX 36 39 1 0
BITMAP
fc00000000
7e0000e000
7f000fe000
7f000fe000
7f001fe000
7f07ffe000
ffffffe000
ffff8ff000
003f87f000
003f800000
003f800000
003fbf8000
003fff8000
00307f8000
00007f8000
00007f8000
00007f0000
00007f03e0
00007fffe0
001fffffc0
03ffff1fc0
01f87f0fe0
01f87f0fe0
01f87f07f0
03f0fe01c0
03e0fe0000
07c0fe0000
0000fe0000
0000fe0000
0000fe0000
0000fe0000
0000fe0000
0000fe0000
0000fe0000
0000fe0000
0000fe0000
0000fe0000
0000ff0000
0000fe0000
ENDCHAR
STARTCHAR co
ENCODING  31553
SWIDTH 792 0
DWIDTH 35 0
BBX 31 41 1 0
BITMAP
000000f0
070003f0
1fc001f0
1fe001f0
0fe001f0
0fe003f0
0fe003e0
0fe03f80
1fffff00
041e1f00
003c1f00
003c1f00
007c1f00
007c1f00
007e1e00
007e1c00
003ff800
001fe000
000fe000
000fe0fc
000ffff8
03fffff8
7fffc3f8
7f1fc1f8
7f1fc1fc
7e1fc0fe
7e1fc038
7c1fc000
f81fc000
001fc000
001fc000
001fc000
001fc000
001f8000
001f8000
003f8000
003f8000
003fc000
003fc000
003fe000
001fc000
ENDCHAR
STARTCHAR cWa
ENCODING  31554
SWIDTH 792 0
DWIDTH 34 0
BBX 30 35 1 -4
BITMAP
00003ff8
03fffff8
3ffffbf8
3f8fe1f8
1f8fe1f8
3f8fe1fc
3f0fe0fc
7e0fe000
100fe000
000fe008
000fe7f8
007ffff8
3ffff3f8
7f9fc3f8
7f1fc1f8
7f1fc1fc
7e1fc07c
7e1fc000
fc1fc000
701fc000
001fc000
001fc000
001fc000
001fc000
001f8000
003f8000
003fbfc0
01ffffc0
3fffffc0
3f801fc0
3f000fc0
3f000fc0
3f0007e0
7e000300
78000000
ENDCHAR
STARTCHAR `he/h2e
ENCODING  31555
SWIDTH 696 0
DWIDTH 28 0
BBX 24 31 2 -1
BITMAP
0007e0
001fe0
001fe0
001fe0
000fc0
000fc0
003fc0
1fffc0
7fdfdf
7f1fff
7e1f7f
7e007f
7c007f
fc007f
f000ff
0000ff
0000fe
0000fe
0000fe
0000fe
0001fe
0001fe
0001fc
0001fc
0001fc
0001fc
0003fc
0003fc
0003fe
0003fe
0001e0
ENDCHAR
STARTCHAR `hu/h2u
ENCODING  31556
SWIDTH 888 0
DWIDTH 38 0
BBX 34 31 2 -1
BITMAP
0003c00000
003fc00000
003fc00000
001fc00000
001fc00000
001fc00000
003fc00000
1fffc00000
ffdf820000
7e1fff0000
7e3e7e0000
7c00fe0000
fc00fe0000
f800fe0080
f000fe7f80
0000ffff80
0000fe3f80
0000fc3f80
0000fc1fc0
0001fc0fc0
0001fc07c0
0001fc0000
0001fc0000
0001fc0000
0001fc0000
0001f80000
0001f80000
0003fc0000
0003fc0000
0003fe0000
0001c00000
ENDCHAR
STARTCHAR `hi/h2i
ENCODING  31557
SWIDTH 888 0
DWIDTH 38 0
BBX 34 33 2 -3
BITMAP
0007c00000
003fc00000
001fc00000
001fc00000
001fc00000
001fc00000
003fc00000
1fffc00000
ffdfdf8000
7e1fff8000
7e1f7f0000
7e007f0000
fc007f0000
f8007f0000
f000ff0000
0000ff0000
0000fe0000
0000fe0000
0000fe0000
0000fe0000
0000fe0000
0000fe0000
0001fc0000
0001fc0000
0001fc0000
0001fc0f80
0001fc3f80
0001fc3f80
0001ffff80
0001ffff80
0001c03f80
0000003fc0
0000001fc0
ENDCHAR
STARTCHAR `ha/h2a
ENCODING  31558
SWIDTH 696 0
DWIDTH 29 0
BBX 25 33 2 -3
BITMAP
00004000
001fe000
001fe000
000fe000
000fe000
000fe000
001fe000
0fffe000
3fefe000
3f0fff80
3f0f3f80
3f003f80
3e003f80
7c003f80
78003f80
00007f80
00007f00
00007f00
00007f00
0000ff00
0000fe00
0001fc00
0003fc00
0007f000
000fe000
007f8000
7ffc0000
7f000000
7f000000
7e000000
7e000000
fc000000
f8000000
ENDCHAR
STARTCHAR `hE/h2E
ENCODING  31559
SWIDTH 840 0
DWIDTH 36 0
BBX 32 31 2 -1
BITMAP
0003c000
003fc000
003fc000
001fc000
001fc000
001fc000
003fc000
1fffc000
ffdf8700
7e1fff00
7e1f7f00
7c00ff00
fc00ff00
f800fe00
f000fe00
0000fe00
0000fe00
0000fe00
0000fe00
0001fe00
0001fff8
0001fffe
0001fc7e
0001fc3f
0001fc3f
0001fc3f
0003fc3f
0003fc3e
0003fffe
0003fffc
0001c000
ENDCHAR
STARTCHAR `h/h2
ENCODING  31560
SWIDTH 648 0
DWIDTH 27 0
BBX 23 31 2 0
BITMAP
000300
007f80
007f80
007f80
003f80
003f80
03ff00
0fff00
1f3f00
3e3ffe
7e3ffe
fe00fe
fe00fe
fe01fe
fe01fe
fe01fc
fc01fc
0001fc
0001fc
0003fc
0003fc
0003f8
0003f8
0003f8
0003f8
0003f8
0007f8
0007f8
0007f8
0007fc
0007f8
ENDCHAR
STARTCHAR `ho/h2o
ENCODING  31561
SWIDTH 1056 0
DWIDTH 46 0
BBX 42 33 1 -1
BITMAP
00000003fe00
00003fdfbf00
0000ffff1f80
0003ffff1f80
0003fc3f1f80
0007f03f1fc0
000ff03f1f80
000fe03f1f80
000fe03f1f80
001fe01fff00
00ffc01fe000
7fffc0000000
7f9fc0000000
7e1fc0000000
7e1fc0000000
7e1fe0000000
fc1ff0f80000
f81ffff80000
600ffff80000
000003f80000
000003f80000
000007f80000
000007f00000
000007f00000
000007f00000
000007f00000
000007f00000
000007f00000
00000ff00000
00000fe00000
00000ff00000
00000ff00000
00000ff00000
ENDCHAR
STARTCHAR hWe
ENCODING  31563
SWIDTH 1080 0
DWIDTH 46 0
BBX 42 31 2 -1
BITMAP
003fc0000000
003fc0000000
003fc0000000
001fc0000000
001fc0000000
001fc0000000
007fc0000000
3fff80000000
ffdfff800000
fe3fff800000
7e3f7f800000
fc007f800000
fc007f07ff00
f8007fffbf80
e000ffff1f80
0000ff1f0fc0
0000ff1f0fc0
0000ff1f0fc0
0000ff1f0fc0
0000fe1f1f80
0000fe1fff00
0000fe070000
0000fe000000
0001fe000000
0001fe000000
0001fe000000
0001fe000000
0001fe000000
0001ff000000
0001ff000000
0001e0000000
ENDCHAR
STARTCHAR hWi
ENCODING  31565
SWIDTH 1152 0
DWIDTH 49 0
BBX 45 31 2 -1
BITMAP
001fc0000000
003fc0000000
001fc0000000
001fc0000000
001fc0000000
001fc0000000
003fc0000000
3fffc001f000
ffdfff8ff000
fe3fff8ff000
7e3f7f87f000
fc007f87f000
fc007f87e000
f8007f0fe000
e000ffffe000
0000ffffc000
0000ff1fc000
0000ff1ffff0
0000fe0ffff0
0000fe0007f0
0000fe0007f0
0000fe0003f0
0000fe0001f8
0001fe0000f0
0001fc000000
0001fc000000
0001fc000000
0001fe000000
0001fe000000
0001fe000000
0001e0000000
ENDCHAR
STARTCHAR hWa
ENCODING  31566
SWIDTH 840 0
DWIDTH 36 0
BBX 32 36 2 -6
BITMAP
003fc000
003fc000
003fc000
001fc000
001fc000
001fc000
007fc000
3fff8000
ffdfff80
fe3fff80
7e3f3f80
fc007f80
fc007f00
f8007f00
e0007f00
00007f00
00007f00
00007f00
00007f00
0000ff00
0000fe00
0000fe00
000ffe00
01fffff0
1ffc07fc
1fe000fe
0fe0007e
1fe0007e
1fc0007e
3f8000fe
3f0000fe
000000fe
000000fe
000000ff
000000ff
000000fc
ENDCHAR
STARTCHAR hWE
ENCODING  31567
SWIDTH 816 0
DWIDTH 35 0
BBX 31 35 2 -5
BITMAP
000fc000
003fc000
003fc000
001fc000
001fc000
001fc000
007fc000
3fff8000
ffdf9f00
fe3fff00
7e3e7f00
fc007f00
fc00fe00
f800fe00
e000fe00
0000fe00
0000fe00
0000fc00
0001fcf8
0001fffe
0001fc3e
0001fc3e
0001fc1e
0001fc1e
0003f83e
0003fc7e
0003fffc
007ff000
1ffe0000
1fe00000
1fe00000
1fe00000
1fc00000
3f800000
3f000000
ENDCHAR
STARTCHAR hWu/hW
ENCODING  31568
SWIDTH 1104 0
DWIDTH 48 0
BBX 44 31 1 -1
BITMAP
001fe0000000
001fc0000000
001fc0000000
001fc0000000
001fc0000000
001fc0000000
003fc0000000
1fffc0001000
7fdfff87f000
7e1fff8ff000
7e1f3f87f000
7e007f87f000
7c007f87f000
f8007f87e000
f0007f07e000
00007fffe000
00007fffffe0
00007fc01fe0
00007f001fc0
0000ff001fc0
0000ff000fe0
0000fe0007e0
0000fe0003f0
0000fe000000
0000fe000000
0000fe000000
0000fe000000
0001fe000000
0001ff000000
0001ff000000
0000f0000000
ENDCHAR
STARTCHAR ne
ENCODING  31571
SWIDTH 504 0
DWIDTH 21 0
BBX 17 32 2 -1
BITMAP
070000
ff0000
ff0000
7f0000
7f0000
7f0000
7f0000
7f0000
7f0000
ff0000
ff0000
ffff80
78ff80
007f80
007f00
007f00
00fe00
00fe00
01fe00
01fc00
01fc00
03f800
03f800
07f000
07f000
0ff000
0fe000
0fe000
0fe000
1fe000
1fe000
0e0000
ENDCHAR
STARTCHAR nu
ENCODING  31572
SWIDTH 576 0
DWIDTH 25 0
BBX 21 30 2 -1
BITMAP
7f0000
ff0000
ff0000
7f0000
7f0000
7f0000
7e0000
fe0000
fe0000
fff000
fff800
03f800
03f800
07f800
07f038
0feff8
0ffff0
1fe7f0
1fc3f0
1fc3f8
3f81f8
3f80f8
7f0000
7f0000
7f0000
fe0000
fe0000
ff0000
ff0000
f00000
ENDCHAR
STARTCHAR ni
ENCODING  31573
SWIDTH 576 0
DWIDTH 25 0
BBX 21 32 1 -3
BITMAP
3f0000
ff8000
7f8000
7f8000
3f8000
3f0000
7f0000
7f0000
7f0000
7ffe00
78fe00
007e00
00fe00
00fe00
01fc00
01fc00
01fc00
03f800
03f800
07f000
07f000
0fe000
0fe000
0fc000
1fc1f8
1fc3f0
1fc7f0
3ffff0
3ffff0
1c07f8
0003f8
0001f8
ENDCHAR
STARTCHAR na
ENCODING  31574
SWIDTH 600 0
DWIDTH 27 0
BBX 23 31 1 -1
BITMAP
007ffc
07fffc
0fe1fc
3f81fc
3f01fc
7f01fe
7f00fe
fe0000
fe0000
fe0000
fe0000
fe0000
fe0000
fe0000
ff0000
ffffc0
7fffc0
003fc0
003fc0
003f80
003f80
003f80
003f80
003f80
003f80
003f80
003f80
003f80
003f80
007f80
003f80
ENDCHAR
STARTCHAR nE
ENCODING  31575
SWIDTH 528 0
DWIDTH 23 0
BBX 19 30 1 -1
BITMAP
3f0000
ff8000
7f8000
7f8000
3f8000
3f0000
7f0000
7f0000
7f0000
7ffe00
78ff00
00ff00
00fe00
00fe00
01fe00
01fc00
01fc00
03f800
03f800
07f300
07ffc0
0fe3e0
0fe3e0
0fc1e0
1fc1e0
1fc1e0
1f83e0
3fffc0
3fff80
180400
ENDCHAR
STARTCHAR n
ENCODING  31576
SWIDTH 600 0
DWIDTH 27 0
BBX 23 31 0 -1
BITMAP
01ffc0
7fffc0
7f1fc0
7f0fc0
3f1fc0
7e1fc0
7c1f80
f81f80
201f80
003f80
003ffe
003ffe
0000fe
0001fc
0001fc
0003fc
0003f8
0007f8
0007f0
0007f0
000fe0
000fe0
001fe0
001fc0
001fc0
003f80
003f80
003f80
007f80
007f80
003800
ENDCHAR
STARTCHAR no
ENCODING  31577
SWIDTH 768 0
DWIDTH 33 0
BBX 29 33 2 -1
BITMAP
00003fe0
0039fff0
03fff1f8
0ffff1f8
1fc3f1f8
3f83f1f8
3f83f1f8
7f03f1f8
7f03f1f8
7f03ffe0
7f01fe00
ff004000
ff000000
ff000000
ff000000
ff000000
ff81c000
7fffc000
7fffc000
001fc000
001fc000
001fc000
001fc000
001fc000
003f8000
003f8000
003f8000
003f8000
003f8000
003f8000
003f8000
003fc000
003f8000
ENDCHAR
STARTCHAR nWa
ENCODING  31578
SWIDTH 672 0
DWIDTH 30 0
BBX 26 35 1 -5
BITMAP
007ffc00
07fffc00
1ff1fc00
3fc1fc00
3f00fc00
7f00fe00
7f007f00
7e000000
fe000000
fe000000
fe000000
fe000000
fe000000
fe000000
ff008000
ffffc000
7fffc000
003fc000
003fc000
003fc000
003fc000
003f8000
003f8000
003f8000
003f8000
003f8000
003f8000
003f8780
3fffff80
3fffff80
3f001f80
3f001f80
3f001fc0
7e000fc0
78000700
ENDCHAR
STARTCHAR Ne
ENCODING  31579
SWIDTH 744 0
DWIDTH 33 0
BBX 29 35 1 -1
BITMAP
000000c0
000007e0
1c000fe0
ff000fe0
7f001fe0
7ffffff0
7ffffff0
7f1f87f8
7f1f87e0
fe1f8000
7c1f8000
001f8000
001f8000
003f0000
003f0000
003ffe00
0030fe00
0000fe00
0000fe00
0001fc00
0001fc00
0003fc00
0003f800
0007f800
0007f000
0007f000
000fe000
000fe000
001fc000
001fc000
001fc000
003fc000
003fc000
003fc000
001c0000
ENDCHAR
STARTCHAR Nu
ENCODING  31580
SWIDTH 792 0
DWIDTH 34 0
BBX 30 35 1 -1
BITMAP
000001e0
000007e0
7c000fe0
ff001fe0
7f00ffe0
7fffffe0
7fff8ff0
7f1f87f8
7e1f83c0
fc1f8000
301f8000
003f0000
003f0000
003f0000
003ffc00
0031fc00
0001fc00
0001fc00
0003f800
0003f838
0007fff8
0007fff8
0007f3f8
000fe3f8
000fe1fc
001fc0fc
001fc07c
003f8000
003f8000
003f8000
007f8000
007f8000
007f8000
007f8000
00780000
ENDCHAR
STARTCHAR Ni
ENCODING  31581
SWIDTH 768 0
DWIDTH 33 0
BBX 29 37 1 -3
BITMAP
000001e0
000007e0
7e000fe0
7f000fe0
7f80ffe0
7ffffff0
3fffcff0
7f1f87f8
7f1f83c0
fe1f8000
301f8000
001f8000
001f8000
003f0000
003ffe00
0038ff00
00007f00
0000fe00
0000fe00
0001fc00
0001fc00
0003f800
0003f800
0003f000
0007f000
0007f000
000fe000
000fe000
001fc000
001fc1f8
001fc3f0
003fc7f0
003ffff0
003ffff0
001c07f8
000003f8
000001f8
ENDCHAR
STARTCHAR Na
ENCODING  31582
SWIDTH 744 0
DWIDTH 31 0
BBX 27 38 2 -2
BITMAP
000003c0
00000fc0
fe001fc0
7f001fc0
7f3fffc0
7fffffc0
7f3f1fe0
fe3f0fe0
fc3f0000
003f9f00
07ffff00
0fe07f00
3f807f00
3f003f00
7f003f80
7e001f80
fe000000
fe000000
fe000000
fe000000
fe000000
ff018000
ffffc000
7fffc000
001fc000
001fc000
003fc000
003f8000
003f8000
003f8000
003f8000
003f8000
003f8000
003f8000
003f8000
003f8000
003f8000
003e0000
ENDCHAR
STARTCHAR NE
ENCODING  31583
SWIDTH 744 0
DWIDTH 33 0
BBX 29 35 1 -1
BITMAP
000001e0
000007e0
7c000fe0
ff001fe0
7f00ffe0
7fffffe0
7fff8ff0
7f1f87f8
7e1f83c0
fc1f8000
301f8000
003f0000
003f0000
003f0000
003ffe00
0038ff00
00007f00
0000fe00
0000fe00
0001fe00
0001fc00
0003fc00
0003f800
0003f800
0007f300
0007ffc0
000ff7e0
000fe3e0
001fe1e0
001fc1e0
001fc1e0
003f83e0
003fc7c0
003fff80
00180400
ENDCHAR
STARTCHAR N
ENCODING  31584
SWIDTH 696 0
DWIDTH 29 0
BBX 25 41 1 -2
BITMAP
70000300
fc000f80
7e001f80
7f003f80
7f003f00
7f007f80
ffffff80
ffffff80
003f0000
003e0000
003e0000
003fc000
0fffc000
ffffc000
7e1f8000
7e1f8000
7e1f8000
7c1f0000
fc3f0000
f03f0000
003ffc00
0031fc00
0001fc00
0001fc00
0003f800
0003f800
0007f800
0007f000
000ff000
000fe000
000fe000
001fc000
001fc000
003fc000
003f8000
003f8000
007f8000
007f0000
007f8000
007f8000
00300000
ENDCHAR
STARTCHAR No
ENCODING  31585
SWIDTH 840 0
DWIDTH 38 0
BBX 34 40 0 -2
BITMAP
000003f000
000007f000
7f000ff000
7f800ff000
3ffffff000
3ffffff000
3fffc7f800
3f0fc3f800
7f0fc00000
fe0fc00000
000fc3ff00
00ffffdf80
03ffff8fc0
07e03f0fc0
0fc03f0fc0
1fc01f07c0
1f801f0fc0
3f801f8fc0
3f801f8f80
3f801fff80
3f800ffe00
3f80000000
3f80000000
3fc0000000
1fe3f00000
1ffff00000
0007f00000
0007f00000
000fe00000
000fe00000
000fe00000
000fe00000
000fe00000
000fe00000
000fe00000
000fe00000
001fe00000
001fe00000
001fe00000
000f800000
ENDCHAR
STARTCHAR NWa
ENCODING  31586
SWIDTH 744 0
DWIDTH 31 0
BBX 27 43 2 -6
BITMAP
000003c0
7e000fe0
7f000fc0
3f801fc0
3f801fc0
3fffffc0
7fffffc0
003f0000
003f0000
003f0000
003fff00
07ffff00
0fe07f00
3f807f00
3f003f00
7f003f80
7e000f80
fe000000
fe000000
fe000000
fe000000
ff000000
ff818000
ffffc000
7fffc000
001fc000
001fc000
003fc000
003fc000
003f8000
003f8000
003f8000
003f8000
003f8000
003f8000
007fff80
7fffff80
3fe03f80
3f003f80
3f001f80
7e001fc0
7c000fc0
70000000
ENDCHAR
STARTCHAR e/a
ENCODING  31587
SWIDTH 696 0
DWIDTH 28 0
BBX 24 33 2 -1
BITMAP
00c000
1fc000
1fe000
1fe000
1fe000
0fe000
0fe000
0fe000
0fe000
0fff00
0ffe00
00fe00
01fc00
01fc00
03f8c0
07fff0
0ffff8
0fe1fc
1fc1fc
1f80fc
3f80fc
3f80fe
7f00fe
7f00fe
7f00fe
fe00fe
fe00fe
fe00fe
fe00fe
fe00fe
ff00ff
ff00ff
700070
ENDCHAR
STARTCHAR u/U
ENCODING  31588
SWIDTH 888 0
DWIDTH 38 0
BBX 34 33 2 -1
BITMAP
00c0000000
1fc0000000
1fc0000000
1fe0000000
1fe0000000
0fe0000000
0fe0000000
0fe0000000
0fe0000000
0fff000000
0ffe000000
00fe000000
01fc000000
01fc000000
03f8e00000
07fff80000
07fff80000
0fe1fc0000
1fc1fc0000
1f80fc0000
3f80fc0f80
3f80ffff80
7f00ffff00
7f00fc3f00
7f00fe3f80
fe00fe1f80
fe00fe0fc0
fe00fe0300
fe00fe0000
fe00fe0000
ff00ff0000
ff00ff0000
7000700000
ENDCHAR
STARTCHAR i
ENCODING  31589
SWIDTH 936 0
DWIDTH 39 0
BBX 35 35 2 -3
BITMAP
01c0000000
1fe0000000
1fe0000000
1fe0000000
0fe0000000
0fe0000000
0fe0000000
0fe0000000
0fe1000000
0fff000000
0ffe000000
00fe000000
01fc000000
01fc000000
03fbe00000
07fff80000
07fff80000
0fe1fc0000
1fc1fc0000
1f80fc0000
3f80fc0000
3f80fe0000
7f00fe0000
7f00fe0000
7f00fe0000
fe00fe0000
fe00fe0000
fe00fe07e0
fe00fe0fc0
fe00fe1fc0
ff00ffffc0
ff00ffffc0
7000701fc0
0000001fe0
0000000fe0
ENDCHAR
STARTCHAR a/A
ENCODING  31590
SWIDTH 672 0
DWIDTH 27 0
BBX 23 33 3 -1
BITMAP
01c000
1fe000
1fe000
1fe000
0fe000
0fe000
0fe000
0fe000
0fe180
0fff00
0ffe00
01fc00
03fc00
03f800
07f7c0
0ffff0
1feff0
3fc3f8
3f83f8
7f01f8
7f01f8
ff01fc
fe01fc
fe01fc
ff01fc
ff01fc
6001fc
0001fc
0001fc
0001fe
0001fe
0001fe
000080
ENDCHAR
STARTCHAR E
ENCODING  31591
SWIDTH 864 0
DWIDTH 37 0
BBX 33 33 2 -1
BITMAP
0020000000
0ff0000000
0ff0000000
0ff0000000
07f0000000
07f0000000
07f0000000
07f0000000
07f0000000
07ff800000
07ff000000
00fe000000
01fe000000
01fc000000
03f8e00000
07fff80000
07fff80000
0fe1fc0000
1fc1fc0000
1f80fc0000
3f80fc0000
3f80fe0000
7f00fe0000
7f00fe7c00
7f00ffff00
fe00fe3f80
fe00fe1f80
fe00fe1f80
fe00fe0f80
fe00fe1f80
ff00fe3f00
ff00fffe00
7000601000
ENDCHAR
STARTCHAR I
ENCODING  31592
SWIDTH 672 0
DWIDTH 28 0
BBX 24 33 2 -1
BITMAP
3f8000
3fc000
3fc000
3fc000
3fc000
3ffc00
7efc00
01f800
01f800
03f000
03ef00
00fe00
01fe00
01fc00
03f800
07f1e0
07fff0
0fe3f8
1fc1fc
1fc1fc
3f80fc
3f80fc
7f00fc
7f00fc
7f00fc
fe00fc
fe00fc
fe00fc
fe00fe
fe00fe
ff00ff
ff00ff
7000f0
ENDCHAR
STARTCHAR o/O
ENCODING  31593
SWIDTH 672 0
DWIDTH 28 0
BBX 24 33 2 -1
BITMAP
00c000
3fc000
3fc000
1fc000
1fc000
1fc000
1fc000
1fe000
1fe000
1ffe00
1ffe00
00fc00
01fc00
01f800
03f9e0
07fff8
07fff8
0fe1fc
1fc1fc
1f80fc
3f80fc
3f80fc
7f00fc
7f00fe
7f00fe
fe00fe
fe00ff
fe00fc
fe0000
fe0000
ff0000
ff0000
700000
ENDCHAR
STARTCHAR e3
ENCODING  31594
SWIDTH 816 0
DWIDTH 34 0
BBX 30 36 2 -1
BITMAP
00000fc0
18001f80
fe003f80
7f007f80
7fffffc0
7fff9fc0
7f3f9fe0
fe3f8f80
fc3f8000
003f8000
003f8000
003fc000
003ffc00
003ffc00
0001f800
0003f800
0007f000
000ff180
000fffe0
001ffff0
003f87f0
003f03f0
007f03f8
007e03f8
00fe03f8
00fe01f8
01fc01f8
01fc01f8
01fc03f8
01fc03f8
03f803f8
03fc03f8
03fc03fc
03fc03fc
01fc01fc
01c001e0
ENDCHAR
STARTCHAR ke
ENCODING  31595
SWIDTH 720 0
DWIDTH 30 0
BBX 26 33 1 -1
BITMAP
0f000000
ff000000
ff000000
7f000000
7f000000
7f000000
7f07f800
7f3ffe00
7ffc7f00
7ff83f80
7ff83f80
03f03f80
03f03f80
07f03f80
07e03f80
07e03f80
0fe03f80
0fe03f80
0fe03f80
0fe03f80
0fe03f80
0fe03f80
0fe03f80
0fe03f80
0fe03f80
0fe03f80
0fe03f80
0fe03f80
0fe03f80
0ff03fc0
0ff03fc0
07f03fc0
07801c00
ENDCHAR
STARTCHAR ku
ENCODING  31596
SWIDTH 984 0
DWIDTH 42 0
BBX 38 33 1 -1
BITMAP
0f00000000
ff00000000
ff00000000
7f00000000
7f00000000
7f00000000
7f07f80000
7f3ffe0000
7ffc7f0000
7ff83f8000
7ff83f8000
03f03f8000
03f03f8060
07f03f83f0
07e03f87f0
07e03f87f0
0fe03f8ff0
0fe03ffff0
0fe03ffff8
0fe03f87fc
0fe03f83e0
0fe03f8000
0fe03f8000
0fe03f8000
0fe03f8000
0fe03f8000
0fe03f8000
0fe03f8000
0fe03f8000
0ff03fc000
0ff03fc000
07f03fc000
07801c0000
ENDCHAR
STARTCHAR ki
ENCODING  31597
SWIDTH 984 0
DWIDTH 41 0
BBX 37 35 1 -3
BITMAP
0300000000
ff00000000
ff00000000
7f00000000
7f00000000
7f00000000
7f03f00000
7f1ffe0000
7f7c7f0000
7ff83f0000
7ff83f8000
c3f03f8000
03f03f8000
07f03f8000
07e03f8000
07e03f8000
0fe03f8000
0fe03f8000
0fe03f8000
0fe03f8000
0fe03f8000
0fe03f8000
0fe03f8000
0fe03f8000
0fe03f8000
0fe03f8000
0fe03f8000
0fe03f81f8
0fe03f83f0
0ff03f87f0
0ff03ffff0
07f03ffff0
07801c07f8
00000003f8
00000001f8
ENDCHAR
STARTCHAR ka
ENCODING  31598
SWIDTH 720 0
DWIDTH 30 0
BBX 26 33 2 -1
BITMAP
1e000000
fe000000
fe000000
fe000000
fe000000
fe000000
fe0ff000
fe7ffc00
fffcfe00
fff07f00
fff07f00
07e03f00
07e03f80
0fe03f80
0fe03f80
1fc03f80
1fc03f80
1fc03f80
1fc03f80
1fc07f80
1fc07f80
1fc07f80
1fc07f80
1fe07f80
1fe07f00
1fe07f00
0c007f00
00007f00
00007f80
00007f80
00003f80
00003fc0
00003c00
ENDCHAR
STARTCHAR kE
ENCODING  31599
SWIDTH 936 0
DWIDTH 39 0
BBX 35 33 2 -1
BITMAP
1e00000000
fe00000000
fe00000000
fe00000000
fe00000000
fe00000000
fe0ff00000
fe7ffc0000
fff8fe0000
fff07f0000
fff07f0000
07e07f0000
07e07f8000
0fe07f8000
0fe07f8000
0fc07f8000
1fc07f8000
1fc07f8000
1fc07f8000
1fc07f8000
1fc07f0000
1fc07f0000
1fc07f0e00
1fc07fffc0
1fc07fffc0
1fc07f0fe0
1fc07f07e0
1fc07f07e0
1fc07f07e0
1fe07f0fc0
1fe07fbfc0
0fe03fff00
0f00380800
ENDCHAR
STARTCHAR k
ENCODING  31600
SWIDTH 720 0
DWIDTH 29 0
BBX 25 33 2 -1
BITMAP
3f000000
ff000000
7f000000
7f000000
7f000000
7f000000
7f0ff800
7f7ffe00
7ffcff00
7ff87f00
7ff03f80
87e03f80
0fc03f80
1fc03f80
1f803f80
1ff03f80
3fe03f80
3fe03f80
07e03f80
0fc07f80
1fc07f80
1f807f80
3f807f80
3f807f00
3f807f00
7f007f00
7f007f00
7f007f00
7f007f00
7f007f00
7f807f00
7f807f80
7e007e00
ENDCHAR
STARTCHAR ko
ENCODING  31601
SWIDTH 720 0
DWIDTH 30 0
BBX 26 33 1 -1
BITMAP
0f000000
ff000000
ff000000
7f000000
7f000000
7f000000
7e07f800
7e3ffe00
7efc7f00
7ff83f80
fff83f80
03f03f80
03f03f80
07f03f80
07e03f80
07e03f80
0fe03f80
0fe03f80
0fe03f80
0fe03f80
0fe03f80
0fe03fc0
0fe03fc0
0fe03f00
0fe00000
0fe00000
0fe00000
0fe00000
0fe00000
0ff00000
0ff00000
07f00000
07800000
ENDCHAR
STARTCHAR kWe
ENCODING  31603
SWIDTH 1056 0
DWIDTH 44 0
BBX 40 34 2 -1
BITMAP
0e00000000
fe00000000
fe00000000
fe00000000
fe00000000
fe00000000
fe00000000
fe1fc00000
fefff00000
fff3f80000
ffe1fc0000
ffc1fc0000
0f81fc0000
1f81fc0000
3f81fc0000
3f01fc0030
3f01fcfffe
7f01fffe3f
7f01ff7e3f
7f01fc7e3f
7f01fc7e3f
7f01fc7e3f
7f01fc7e3f
7f01fc3f7e
7f01fc3ff8
7f01fc0000
7f01fc0000
7f01fc0000
7f01fc0000
7f01fc0000
7f01fe0000
7f81fe0000
7f81fe0000
3800e00000
ENDCHAR
STARTCHAR kWi
ENCODING  31605
SWIDTH 1128 0
DWIDTH 48 0
BBX 44 34 2 -1
BITMAP
0e0000000000
fe0000000000
fe0000000000
fe0000000000
fe0000000000
fe0000000000
fe0000000000
fe1fc0000000
fefff0000000
fff3f8000000
ffe1fc3fc000
ffc1fc3fc000
0f81fc3fc000
1f81fc1fc000
3f81fc3f8000
3f01fc3f8000
3f01fcff8000
7f01ffff8000
7f01ff3f8000
7f01fc3f8000
7f01fc3fffc0
7f01fc3fffc0
7f01fc001fc0
7f01fc000fc0
7f01fc000fe0
7f01fc0007f0
7f01fc000080
7f01fc000000
7f01fc000000
7f01fc000000
7f01fe000000
7f81fe000000
7f81fe000000
3800e0000000
ENDCHAR
STARTCHAR kWa
ENCODING  31606
SWIDTH 840 0
DWIDTH 36 0
BBX 32 38 2 -6
BITMAP
ff000000
ff000000
ff000000
7f000000
7e000000
7e000000
7e0f8000
7e7ff000
7ff3f800
ffc1fc00
ff81fc00
0f80fc00
1f80fe00
3f00fe00
7f00fe00
7f00fe00
7f00fe00
7f01fe00
7f01fe00
7f01fe00
7f81fe00
7f81fc00
7e01fc00
0001fc00
0003fff0
01fffffc
01fe01fc
01fc00fe
01fc00fe
01f800fe
03f000fe
03e000fe
000000fe
000000fe
000000fe
000000ff
000000fe
00000040
ENDCHAR
STARTCHAR kWE
ENCODING  31607
SWIDTH 864 0
DWIDTH 37 0
BBX 33 38 1 -6
BITMAP
7f00000000
ff00000000
7f00000000
7f00000000
7f00000000
7f00000000
7f07800000
7f7ff00000
7ff9f80000
7ff0fc0000
7fe0fe0000
07c0fe0000
0fc0fe0000
1f80fe0000
1f80fe0000
3f80fe0000
3f80fe0000
3f80fe0000
3f80fe0000
3f80fe0000
3f80fe0000
3f80ffff00
3fc0ffff80
3fc0fe3f80
3e00fc1f80
0000fc1f80
0000fe1f80
0000fe1f80
0000fe3f00
0001fffe00
007ffff800
01fe000000
00fe000000
00fe000000
01fc000000
01f8000000
03f0000000
01c0000000
ENDCHAR
STARTCHAR kWu/kW
ENCODING  31608
SWIDTH 1056 0
DWIDTH 45 0
BBX 41 34 2 -1
BITMAP
0e0000000000
fe0000000000
fe0000000000
fe0000000000
fe0000000000
fe0000000000
fe0000000000
fe1fe0000000
fefff8000000
fff3f8018000
ffe1fc3f8000
ffc1fc3f8000
0f81fc3f8000
1f81fc3f8000
3f81fc3f8000
3f01fc3f8000
3f01fc3f0000
7f01ffff0000
7f01ffffff00
7f01fe00ff00
7f01fc00fe00
7f01fc007f00
7f01fc007f00
7f01fc003f80
7f01fc001f80
7f01fc000000
7f01fc000000
7f01fc000000
7f01fc000000
7f01fc000000
7f01fe000000
7f81fe000000
7f81fe000000
3800e0000000
ENDCHAR
STARTCHAR Ke
ENCODING  31611
SWIDTH 888 0
DWIDTH 39 0
BBX 35 37 1 -1
BITMAP
000003e000
00000fc000
ff001fc000
7f001fc000
3f9fffc000
3fffffe000
3f9f8fe000
7f1f87f000
7e1f800000
001f800000
001f83fe00
001f8fff80
001fbf3fc0
003ffe1fc0
003ffc0fc0
0000fc0fe0
0001f80fe0
0001f80fe0
0003f80fe0
0003f80fe0
0003f80fe0
0003f80fe0
0003f01fe0
0007f01fe0
0007f01fe0
0007f01fc0
0007f01fc0
0007f81fc0
0007f81fc0
0007f81fc0
0007f81fc0
0007f81fc0
0003f81fc0
0003f81fe0
0003fc1fe0
0003fc1fe0
0001c00e00
ENDCHAR
STARTCHAR Ku
ENCODING  31612
SWIDTH 1152 0
DWIDTH 51 0
BBX 47 37 1 -1
BITMAP
000003e00000
00000fc00000
ff001fc00000
7f001fc00000
3f9fffc00000
3fffffe00000
3f9f8fe00000
3f1f87f00000
7e1f80000000
001f80000000
001f83fc0000
001f9fff0000
003fff3f8000
003ffe1fc000
003ffc1fc000
0001f80fc000
0001f80fe038
0003f80fe1f8
0003f80fe3f8
0003f80fe3f8
0003f00fe3f8
0007f01ffffc
0007f01ffffc
0007f01fe1fe
0007f01fe0f0
0007f01fe000
0007f01fe000
0007f01fe000
0007f01fe000
0007f01fc000
0007f01fc000
0007f81fc000
0007f81fc000
0007f81fe000
0003fc1fe000
0003fc0fe000
0003c00e0000
ENDCHAR
STARTCHAR Ki
ENCODING  31613
SWIDTH 1152 0
DWIDTH 49 0
BBX 45 39 2 -3
BITMAP
000007c00000
00001f800000
fe003f800000
7f003f800000
7f1fffc00000
7fffdfc00000
7f3f1fe00000
7e3f0fe00000
fc3f00000000
003f00000000
003f01f00000
003f1ffe0000
003f7e7f0000
003ffc3f8000
003ff81f8000
0001f81fc000
0003f01fc000
0003f01fc000
0007f01fc000
0007f01fc000
0007f01fc000
0007e03fc000
000fe03fc000
000fe03fc000
000fe03f8000
000fe03f8000
000fe03f8000
000fe03f8000
000fe03f8000
000fe03f8000
000ff03f8000
000ff03f81f8
000ff03f83f0
0007f03f87f0
0007f83ffff0
0007f83ffff0
0003801c07f8
0000000007f8
0000000003f8
ENDCHAR
STARTCHAR Ka
ENCODING  31614
SWIDTH 888 0
DWIDTH 39 0
BBX 35 37 1 -1
BITMAP
000003e000
00000fc000
ff001fc000
7f001fc000
3f9fffc000
3fffffe000
3f9f8fe000
3f1f87f000
7e1f800000
001f800000
001f81fe00
001f8fff80
001fbf3fc0
001ffe1fc0
001ffc0fe0
0001fc0fe0
0001f80fe0
0003f80fe0
0003f80fe0
0003f80fe0
0003f80fe0
0007f80fe0
0007f00fe0
0007f00fe0
0007f01fe0
0007f01fe0
0007f81fe0
0007f81fc0
0007f81fc0
0003f81fc0
0003801fc0
0000001fc0
0000001fc0
0000001fe0
0000001fe0
0000000fe0
0000000e00
ENDCHAR
STARTCHAR KE
ENCODING  31777
SWIDTH 1104 0
DWIDTH 48 0
BBX 44 37 1 -1
BITMAP
000003c00000
00001fc00000
ff001fc00000
7f001fc00000
3f1fffc00000
3fffdfc00000
3f9f9fe00000
7f1f8fe00000
fe1f80000000
001f80000000
001f83fc0000
001f9fff0000
003ffe3f8000
003ffc1fc000
003ffc1fc000
0001f81fc000
0001f81fe000
0003f81fe000
0003f01fe000
0007f01fe000
0007f01fe000
0007f01fc000
0007f01fc000
0007f01fc000
0007f01fc000
0007f01fc000
0007f01fc780
0007f01fffe0
0007f01ffff0
0007f03fc3f0
0007f03fc3f0
0007f03fc3f0
0007f03fc3f0
0007f81fc3f0
0007f81fefe0
0003f81fffc0
0003800c0200
ENDCHAR
STARTCHAR K
ENCODING  31778
SWIDTH 864 0
DWIDTH 38 0
BBX 34 37 1 -1
BITMAP
000003e000
00000fc000
ff001fc000
7f001fc000
3f1fffc000
3fffffe000
3fdf8fe000
7f1f87f000
7e1f800000
001f800000
001f87fc00
001f9fff00
001ffe7f80
003ffc1f80
003ff81fc0
0003f01fc0
0007e01fc0
0007e01fc0
000fe01fc0
000ff81fc0
001ff81fc0
001ff01fc0
0003f01fc0
0007e03fc0
0007e03fc0
000fe03fc0
000fc03fc0
001fc03f80
001fc03f80
001fc03f80
003f803f80
003f803f80
003f803f80
003f803f80
003fc03f80
003fc03fc0
003f003f00
ENDCHAR
STARTCHAR Ko
ENCODING  31779
SWIDTH 888 0
DWIDTH 39 0
BBX 35 37 1 -1
BITMAP
000003e000
00000fc000
ff001fc000
7f001fc000
3f9fffc000
3fffffe000
3fdf8fe000
7f1f87f000
7e1f800000
001f800000
001f83fe00
001f8fff80
003fbf3fc0
003ffe1fc0
003ffc0fe0
0000fc0fe0
0001f80fe0
0001f80fe0
0003f80fe0
0003f80fe0
0003f80fc0
0003f80fc0
0003f80fc0
0003f81fc0
0003f81fe0
0003f81fe0
0003f80fe0
0003f80f80
0003f80000
0003f80000
0003f80000
0003f80000
0003f80000
0003f80000
0003fc0000
0003fc0000
0001c00000
ENDCHAR
STARTCHAR KWe
ENCODING  31781
SWIDTH 1056 0
DWIDTH 57 0
BBX 53 37 -11 -1
BITMAP
000000f0000000
000003e0000000
ff0007e0000000
7f0007e0000000
3f9fffe0000000
3ffffff0000000
3f9f87f0000000
7f1f83f8000000
7e1f8000000000
001f8000000000
001f83fe000000
001f8fff800000
001fbf1fc00000
003ffe0fc00000
003ffc07c00000
0000fc07e00000
0001f807e00000
0001f807e00000
0003f807e00180
0003f807e7fff0
0003f807fff1f8
0003f807fbf1f8
0003f00fe3f1f8
0007f00fe3f1f8
0007f00fe3f1f8
0007f00fe3f1f8
0007f00fe1fbf0
0007f80fe1ffc0
0007f80fe00000
0007f80fe00000
0007f80fe00000
0007f80fe00000
0003f80fe00000
0003f80ff00000
0003fc0ff00000
0003fc0ff00000
0001c007000000
ENDCHAR
STARTCHAR KWi
ENCODING  31783
SWIDTH 1128 0
DWIDTH 60 0
BBX 56 37 -10 -1
BITMAP
000001e0000000
000007c0000000
ff000fc0000000
7f000fc0000000
3f9fffc0000000
3fffffe0000000
3f9f8fe0000000
7f1f87f0000000
7e1f8000000000
001f8000000000
001f83fc000000
001f9fff000000
003fff3f800000
003ffe1fc3fc00
003ffc1fc3fc00
0001f80fc3fc00
0001f80fe1fc00
0003f80fe3f800
0003f80fe3f800
0003f80feff800
0003f00ffff800
0007f01ff3f800
0007f01fe3f800
0007f01fe3fffc
0007f01fe3fffc
0007f01fe001fc
0007f01fe000fc
0007f01fe000fe
0007f01fe0007f
0007f01fc00008
0007f01fc00000
0007f01fc00000
0007f81fc00000
0007f81fe00000
0007fc1fe00000
0007fc0fe00000
0003800e000000
ENDCHAR
STARTCHAR KWa
ENCODING  31780
SWIDTH 840 0
DWIDTH 48 0
BBX 44 42 -10 -6
BITMAP
000003e00000
00000fc00000
ff001fc00000
7f001fc00000
3f9fffc00000
3fffffe00000
3f9f8fe00000
3f1f87f00000
7e1f80000000
001f80000000
001f81fc0000
001f8fff0000
001fbf3f8000
001ffc1fc000
001ff81fc000
0001f80fe000
0001f80fe000
0003f00fe000
0003f00fe000
0007e00fe000
0007e00fe000
0007e01fe000
0007e01fe000
0007f01fe000
0007f81fe000
0007f81fc000
0003e01fc000
0000001fc000
0000003fff00
00001fffffc0
00001fe01fc0
00001fc00fe0
00001fc00fe0
00001f800fe0
00003f000fe0
00003e000fe0
000000000fe0
000000000fe0
000000000fe0
000000000ff0
000000000fe0
000000000400
ENDCHAR
STARTCHAR KWE
ENCODING  31785
SWIDTH 864 0
DWIDTH 47 0
BBX 43 42 -9 -6
BITMAP
000001f00000
000007e00000
ff000fe00000
7f000fe00000
3f9fffe00000
3ffffff00000
3f9fc7f00000
3f1fc3f80000
7e1fc0000000
001fc0000000
001fc3f80000
001fdffe0000
001ffe7f0000
001ffc3f0000
001ff83f8000
0003f01f8000
0003f01f8000
0007e01fc000
0007e01fc000
0007e01fc000
0007e01fc000
000fc01fc000
000fc01fc000
000fc01fc000
000fe03f8000
000fe03fffc0
000ff03fffe0
0007f03f8fe0
0007803f07e0
0000003f07e0
0000003f87e0
0000003f87e0
0000003f8fc0
0000007fff80
00001ffffe00
00007f800000
00003f800000
00003f800000
00007f000000
00007e000000
0000fc000000
000070000000
ENDCHAR
STARTCHAR KW
ENCODING  31786
SWIDTH 1056 0
DWIDTH 55 0
BBX 51 37 -8 -1
BITMAP
00000f80000000
00003f00000000
ff007f00000000
7f007f00000000
3fbfff00000000
3fffff80000000
3fbe3f80000000
3f3e1fc0000000
7e3e0000000000
003e0000000000
003e0ff0000000
003e7ffc000000
003ffcfe006000
003ff87f0fe000
003ff07f0fe000
0007e03f0fe000
0007e03f8fe000
000fe03f8fe000
000fe03f8fe000
000fe03f8fc000
000fe03fffc000
001fc07fffffc0
001fc07f803fc0
001fc07f803f80
001fc07f801fc0
001fc07f801fc0
001fc07f800fe0
001fc07f8007e0
001fc07f800000
001fc07f000000
001fc07f000000
001fe07f000000
001fe07f000000
001fe07f800000
000ff07f800000
000ff03f800000
000e0038000000
ENDCHAR
STARTCHAR we
ENCODING  31789
SWIDTH 768 0
DWIDTH 33 0
BBX 29 23 2 2
BITMAP
00000300
007fffc0
01ffe7e0
07cfe3f0
1f8fe3f0
1f0fc1f8
3f0fc1f8
7e0fc1f8
7e0fc1f8
7e0fc1f8
fe0fc1f8
fe0fc3f8
fc0fc3f0
fc0fc3f0
fc1f83f0
fc1f83f0
fc1f83e0
fc1fc7e0
fc1fcfc0
7e3fff00
7e3ff800
3ff00000
0f000000
ENDCHAR
STARTCHAR wu
ENCODING  31790
SWIDTH 1032 0
DWIDTH 43 0
BBX 39 24 2 1
BITMAP
0000078000
007fffe000
03ffe7f000
07c7e3f800
1f87e3f800
3f07e1f800
3f0fe1f800
7f0fc1f800
7e0fc1f800
7e0fc1f800
fe0fc1f800
fe0fc1f800
fe0fc1f800
fe0fc3f800
fe0fc3f000
fc0fc3f078
fc1fc3f1f8
fc1fc3e3f8
fe1fc7e3f8
7e1feffff8
7e3ffffffc
3ff00003fc
0f000001fe
00000000e0
ENDCHAR
STARTCHAR wi
ENCODING  31791
SWIDTH 744 0
DWIDTH 32 0
BBX 28 32 1 -4
BITMAP
00000600
00ffff80
07ffcfc0
0f9fc7e0
1f0fc7e0
3f1fc7e0
7e1f87e0
7e1f87e0
7e1f87e0
7e1f87e0
fe1f87e0
7e1f8fc0
7e1f8fc0
7e3f9f80
7fbffe00
3fffc000
1fbf8000
003f8000
003f8000
003f8000
003f0000
003f0000
003f0000
003f00c0
007f07e0
007f0fe0
007f8fe0
007fffe0
007f0fe0
00200ff0
000007f0
000001c0
ENDCHAR
STARTCHAR wa
ENCODING  31792
SWIDTH 720 0
DWIDTH 32 0
BBX 28 30 1 -2
BITMAP
00000f80
00ffffc0
07ffc7e0
0f8fc7e0
1f0fc3f0
3f0fc3f0
7f0fc3f0
7e0fc7f0
7e1fc7f0
7e1f87e0
fe1f87e0
7e1f87c0
7e1f8fc0
7f1fff00
7ffffc00
3fff8000
1fbf8000
003f8000
003f8000
003f8000
003f8000
003f8000
003f8000
007f0000
007f0000
007f8000
007f8000
007f8000
007f8000
00200000
ENDCHAR
STARTCHAR wE
ENCODING  31793
SWIDTH 720 0
DWIDTH 32 0
BBX 28 30 1 -2
BITMAP
0000ff80
00ffffc0
07ffc7e0
0f8fc7e0
1f0fc7f0
3f0fc3f0
7f0fc3f0
7e1fc7f0
7e1fc7f0
7e1f87e0
fe1f87e0
7e1f87e0
7e1f8fc0
7f1fff00
7ffffc00
3fff8000
1fbf8000
003f8000
003f8000
003fff00
003fff80
003f9fc0
003f87c0
007f07c0
007f07c0
007f07c0
007f0fc0
007fff80
007fff00
00700000
ENDCHAR
STARTCHAR w
ENCODING  31794
SWIDTH 1056 0
DWIDTH 44 0
BBX 40 23 2 2
BITMAP
0000078000
007fffe000
03fffff000
07cfe3f800
1f8fc3f800
3f0fc3f83e
3f0fc3f87e
7e0fc1f8fe
7e0fc1f8fe
7e0fc3fffe
fe0fc3ffff
fc0fc3f8ff
fc0fc3f87f
fc1f83f000
fc1f83f000
fc1f83f000
fc1f87e000
fc1f87e000
fc1fc78000
7c3fff0000
7e3ff00000
3ff0000000
0f00000000
ENDCHAR
STARTCHAR wo
ENCODING  31795
SWIDTH 768 0
DWIDTH 33 0
BBX 29 30 2 -1
BITMAP
001fffe0
00fffbf0
03e3f1f8
07c3f1f8
0fc3f0f8
1f83f0f8
1f87e0f8
3f87e1f8
3f87e1f8
3f87e1f8
3f87e1f8
3f87e1f0
3f87e3f0
1ffff7e0
1fffff80
07dff000
007f8000
00fe0000
01fc0000
07f00000
0fe00000
1fc00000
1f800000
3f000000
7e000000
7e000000
fe000000
fe000000
ff000000
fc000000
ENDCHAR
STARTCHAR `e/e2
ENCODING  31797
SWIDTH 600 0
DWIDTH 26 0
BBX 22 28 1 0
BITMAP
0000e0
007ff8
01fff8
07e1fc
0fc0fc
1f80fc
1f80fc
3f00fc
3f00fc
3f00fc
7f00fc
7f01fc
7f01f8
7e01f8
7e01f8
7e01f8
7e01f8
fe03f8
fe03f0
fe03f0
fe03f0
fc07f0
fc07f0
fe0fe0
fe1fe0
ffffc0
7f8000
3c0000
ENDCHAR
STARTCHAR `u/u2
ENCODING  31798
SWIDTH 864 0
DWIDTH 37 0
BBX 33 28 1 0
BITMAP
0003f80000
00fffc0000
03fffc0000
0fe0fc0000
0fc0fc0000
1fc0fc0000
1f80fc0000
3f80fc0000
3f80fc0000
3f00fc3f00
7f01ffff00
7f01fffe00
7f01f8fe00
7e01f87f00
7e01f87f00
7e03f83f80
7e03f80600
fe03f80000
fe03f00000
fc03f00000
fc07f00000
fc07f00000
fc0ff00000
fc0fe00000
fe3fe00000
ffffc00000
7f80000000
3c00000000
ENDCHAR
STARTCHAR `i/i2
ENCODING  31799
SWIDTH 792 0
DWIDTH 35 0
BBX 31 33 1 -3
BITMAP
01fe0000
07ff8000
1f0f8000
3f0fc000
7e0fc000
7e0fc000
7e0fc000
fe0fc000
fe0fc000
fe0fc000
7e0f8000
7e1f8000
7e1f8000
7f3fff00
3ffe7e00
07e0fe00
0000fe00
0001fc00
0001fc00
0001f800
0003f800
0003f800
0007f000
0007f000
0007e000
000fe078
000fe1f8
000fc3f8
001fe3f8
001ffff8
000f03f8
000003fc
000001fe
ENDCHAR
STARTCHAR `a/A2
ENCODING  31800
SWIDTH 624 0
DWIDTH 28 0
BBX 24 31 1 -1
BITMAP
007e00
07ff80
1f0f80
3f0fc0
7e0fc0
7e0fc0
7e0fc0
7e0fc0
fe0fc0
fe0fc0
fe0f80
7e1f80
7e1f80
7e3fff
3ffe7f
07e0fe
0000fe
0001fc
0001fc
0001fc
0003f8
0003f8
0007f0
0007f0
0007e0
000fe0
000fe0
000fe0
001fe0
001fe0
000f80
ENDCHAR
STARTCHAR `E/E2
ENCODING  31801
SWIDTH 744 0
DWIDTH 32 0
BBX 28 31 1 -1
BITMAP
01ff0000
0fdf8000
1f0fc000
3f0fc000
7f0fc000
7e0fc000
7e0fc000
7e0fc000
fe0fc000
fe0fc000
fe0fc000
7e0f8000
7e1fce00
7f1fff00
3ffc7f00
07e0fe00
0000fe00
0000fc00
0001fc00
0001fc00
0003f800
0003ffe0
0003fff0
0007f1f0
0007f0f0
000fe0f0
000fe0f0
000fe1f0
001ff7e0
001fffc0
000f1f00
ENDCHAR
STARTCHAR `I/I2
ENCODING  31802
SWIDTH 600 0
DWIDTH 26 0
BBX 22 32 1 0
BITMAP
000300
007f00
00ff00
007f00
007f00
007f00
007f00
007f00
007fe0
00fff0
01e3f8
0781fc
0f81fc
1f01fc
3f01fc
3f01fc
7f01fc
7f01fc
7f01fc
7e01fc
7e01fc
7e01fc
fe03fc
fe03fc
fe03f8
7e03f8
7e07f0
7e07f0
7e0fe0
7f3f80
3ffe00
1f8000
ENDCHAR
STARTCHAR `o/o2
ENCODING  31803
SWIDTH 624 0
DWIDTH 27 0
BBX 23 31 2 -1
BITMAP
001ff8
007ffc
01f0fc
03f0fe
03f0fe
07e0fe
07e0fc
07e0fc
07e0fc
07e0fc
07e0fc
07e0f8
07e1f0
07f3e0
03ff80
01f800
03f000
07e000
07c000
0fc000
1f8000
3f8000
3f0000
7f0000
7e0000
fe0000
fe0000
fe0000
fe0000
ff0000
fe0000
ENDCHAR
STARTCHAR ze
ENCODING  31805
SWIDTH 600 0
DWIDTH 26 0
BBX 22 29 1 -1
BITMAP
0003f8
7f87fc
7f83fc
7f83fc
3f81fc
3f81f8
3f83f8
3f83f8
3f83f8
7f83f8
7f3ff8
7ffff8
7fe3f8
7f03f8
7f03f8
7f03f8
7f03f8
7f03f8
7f03f8
7f07f0
7f07f0
7f07f0
7f07f0
ff07f0
fe07f0
ff07f0
ff07f8
ff07f0
700200
ENDCHAR
STARTCHAR zu
ENCODING  31806
SWIDTH 864 0
DWIDTH 37 0
BBX 33 29 1 -1
BITMAP
0003f80000
7f87fc0000
7f83fc0000
7f83fc0000
3f81fc0000
3f81f80000
3f83f80000
3f83f80000
3f83f80e00
7f83f87e00
7f3ff8fe00
7ffff8fe00
7fe3f8fe00
7f03ffff00
7f03ffff00
7f03f87f80
7f03f83c00
7f03f80000
7f03f80000
7f07f00000
7f07f00000
7f07f00000
7f07f00000
7f07f00000
7e07f00000
7f07f00000
ff07f80000
ff07f00000
7002000000
ENDCHAR
STARTCHAR zi
ENCODING  31807
SWIDTH 816 0
DWIDTH 36 0
BBX 32 31 1 -3
BITMAP
0003f800
7f07fc00
7f83fc00
7f83fc00
3f81f800
3f81f800
3f83f800
3f83f800
3f83f800
7f03f800
7f3ff800
7ffff800
7fe3f800
7f03f800
7f03f800
7f03f800
7f03f800
7f03f800
7f03f000
7f07f000
7f07f000
7f07f000
7f07f000
7f07f07e
7e07f0fe
7f07f0fe
ff07fffe
ff07f8fe
700200fe
000000ff
0000003c
ENDCHAR
STARTCHAR za
ENCODING  31808
SWIDTH 600 0
DWIDTH 25 0
BBX 21 29 1 0
BITMAP
000030
0707f8
ff07f8
ff07f8
7f03f8
7f03f8
7f03f8
7f03f0
7f03f0
7f07f0
7f0ff0
7ffff0
7ffff0
7f87f0
7f07f0
7e07f0
7e07f0
fe07f0
fe07f0
ff07f0
ff07f0
780fe0
000fe0
000fe0
000fe0
000fe0
000fe0
000ff0
000fe0
ENDCHAR
STARTCHAR zE
ENCODING  31809
SWIDTH 768 0
DWIDTH 34 0
BBX 30 29 1 -1
BITMAP
0003f800
7f07fc00
7f83fc00
7f83fc00
3f81f800
3f81f800
3f83f800
3f83f800
3f83f800
7f03f800
7f3ff800
7ffff800
7fe3f800
7f03f800
7f03f800
7f03f800
7f03f800
7f03f800
7f03fbf0
7f07fffc
7f07f9fc
7f07f0fc
7f07f07c
7f07f07c
7e07f07c
7f07f0fc
ff07fff8
ff07ffe0
70020000
ENDCHAR
STARTCHAR z
ENCODING  31810
SWIDTH 840 0
DWIDTH 35 0
BBX 31 29 2 -1
BITMAP
000000fe
000f01fe
03ffc1fe
7fffc0fe
7f1fc0fe
7f1fc0fe
7e1fc0fe
7e1fc0fe
fc1fc0fe
f81fc0fe
001fdffe
001ffffe
001ff9fc
001fc1fc
001fc1fc
001fc1fc
001fc1fc
001fc1fc
003f81fc
003f81fc
003f81fc
003f81fc
003f81fc
003f81fc
003f81fc
003f81fc
003f81fc
003fc1fc
003c0100
ENDCHAR
STARTCHAR zo
ENCODING  31811
SWIDTH 600 0
DWIDTH 26 0
BBX 22 29 1 -1
BITMAP
0003f8
7f07fc
7f83fc
7f83fc
3f81fc
3f81f8
3f83f8
3f83f8
3f83f8
7f83f8
7f3ff8
7ffff8
7fe3f8
7f03f8
7f03f8
7f03f8
7f03f8
7f03f8
7f03f8
7f03f8
7f0300
7f0000
7f0000
7f0000
7e0000
7f0000
ff0000
ff0000
700000
ENDCHAR
STARTCHAR zWa
ENCODING  31812
SWIDTH 768 0
DWIDTH 33 0
BBX 29 33 1 -5
BITMAP
0007f000
ff07f800
ff07f800
7f03f800
7f03f800
7f03f800
7f03f000
7f03f000
7f07f000
7f07f000
7f7ff000
7ffff000
7f87f000
7e07f000
7e07f000
7e07f000
7e07f000
fe07f000
ff07f000
ff0ff000
780fe000
000fe000
000fe000
000fe000
000fe000
000fe000
0ffffff0
0ffffff0
0fc003f0
0fc003f0
0fc003f8
1f8001f8
1e000060
ENDCHAR
STARTCHAR Ze
ENCODING  31813
SWIDTH 1008 0
DWIDTH 44 0
BBX 40 30 1 -1
BITMAP
0000000006
0078001ffe
3ffe00fffe
ff3f01f8fe
7e1f01f0fe
7e1f03f07e
7e1f83f03f
fc1f83f00e
f83f87f000
f03f87e000
003f87e000
003f7fe000
003fffe000
003fc7e000
003f07e000
007f07e000
007f07e000
007f0fe000
007f0fe000
007e0fe000
007e0fe000
007e0fe000
007e0fe000
00fe0fe000
00fe0fe000
00fe0fe000
00fe0fe000
00fe0fe000
00fe0fe000
00f00e0000
ENDCHAR
STARTCHAR Zu
ENCODING  31814
SWIDTH 1008 0
DWIDTH 44 0
BBX 40 30 1 -1
BITMAP
0000000006
007c001ffe
3ffe007ffe
7f1f01f8fe
7f1f81f07e
7e1f83f07f
7e1f83f03f
7c1f83f00f
f81f83f000
f01f83f000
001f87f000
003fbff0fc
003ffffffc
003fe7fff8
003f07f1f8
003f07e1fc
003f07e0fc
003f07e07e
003f07e000
007f07e000
007f07e000
007e0fe000
007e0fe000
007e0fe000
007e0fe000
007e0fe000
007e0fe000
00ff0fe000
00ff0ff000
00f00f0000
ENDCHAR
STARTCHAR Zi
ENCODING  31815
SWIDTH 1032 0
DWIDTH 44 0
BBX 40 31 2 -3
BITMAP
000000001e
00fc003ffe
7fff00fffe
fe3f01f0fe
7e1f83f0fe
7e1f83f07e
7c3f87e03f
fc3f87e00c
f83f87e000
e03f87e000
003fffe000
003fffe000
003fe7e000
003f07e000
007f07e000
007f07e000
007f07e000
007f0fe000
007e0fe000
007e0fc000
007e0fc000
007e0fc000
00fe0fc000
00fe0fc0fc
00fe0fc1f8
00fe0fe3f8
00fe0ffff8
00ff0ffff8
00f00e03fc
00000001fc
00000000fc
ENDCHAR
STARTCHAR Za
ENCODING  31816
SWIDTH 1008 0
DWIDTH 44 0
BBX 40 30 1 -1
BITMAP
000000003e
01fc003ffe
7ffe00fcfe
fe1f01f0fe
7e1f83f0fe
7e1f83f07f
7c1f83f03f
fc3f87f000
f83f87e000
603f87e000
003f8fe000
003fffe000
003fffe000
003f87e000
003f07e000
007f07e000
007f0fe000
007f0fe000
007f0fe000
007f0fe000
007f8fe000
00780fe000
00000fe000
00000fc000
00000fc000
00000fe000
00000fe000
00000fe000
00000fe000
00000f8000
ENDCHAR
STARTCHAR ZE
ENCODING  31817
SWIDTH 1008 0
DWIDTH 45 0
BBX 41 29 1 -1
BITMAP
00080007ff00
07ff003fff00
7f9f80fc7f00
7f0f81f87f00
3f0f81f87f00
3f0fc1f03f80
7e1fc3f00f80
7c1fc3f00000
f81fc3f00000
001fc3f00000
001fdff00000
001ffff00000
001ff3f00000
001f83f00000
003f83f00000
003f83f00000
003f83e00000
003f83e00000
003f87e3c000
003f07fff000
003f07f1f800
003f07e0f800
007f07e0f800
007f07e0f800
007f07e0f800
007f07f1f800
007f07fff000
007f87ffe000
003806010000
ENDCHAR
STARTCHAR Z
ENCODING  31818
SWIDTH 1032 0
DWIDTH 45 0
BBX 41 41 1 -1
BITMAP
f8000e000000
fc003f000000
fe007e000000
7f00fe000000
7f00fe000000
7f00fe000000
fffffe000000
ffffff000000
007e00000000
007e00000000
007e00000000
007e00000300
007e000fff00
3fff007fff00
ff1f80fc7f00
7e0fc0f87f00
7e0fc1f83f80
7e0fc1f81f80
fc1fc1f80700
f81fc1f80000
f01fc3f80000
001fc3f80000
001fdff00000
001ffff00000
001ff3f00000
001f83f00000
003f83f00000
003f83f00000
003f83f00000
003f87f00000
003f87f00000
003f07f00000
003f07f00000
003f07f00000
007f07f00000
007f07f00000
007f07f00000
007f07f00000
007f07f00000
007f87f00000
007807000000
ENDCHAR
STARTCHAR Zo
ENCODING  31819
SWIDTH 1032 0
DWIDTH 44 0
BBX 40 30 2 -1
BITMAP
0000000006
0078001ffe
3ffe00fffe
ff3f01f8fe
7e1f01f0fe
7e1f83f07f
7c1f83f03f
fc3f83f00e
f83f87f000
e03f87f000
003f87f000
003fffe000
003fffe000
003fe7e000
003f07e000
007f07e000
007f07e000
007f0fe000
007f0ff000
007f0ff000
007e07c000
007e000000
007e000000
00fe000000
00fe000000
00fe000000
00fe000000
00fe000000
00ff000000
0070000000
ENDCHAR
STARTCHAR ZWa
ENCODING  31820
SWIDTH 1032 0
DWIDTH 46 0
BBX 42 34 1 -5
BITMAP
00000003ff80
07fe003fff00
7fbf00fe7f00
7f1f00fc7f00
7e1f81f83f80
7e1f81f81f80
7e1f81f80fc0
fc1f81f80000
f83f83f80000
003f83f80000
003f8ff80000
003ffff80000
003ffff80000
003fc3f80000
003f83f80000
007f03f80000
007f03f80000
007f03f00000
007f03f00000
007f07f00000
007f87f00000
007807f00000
000007f00000
000007f00000
000007f00000
000007f00000
000007f00000
0003fffff800
000ffffff800
0007e001f800
0007e001f800
0007e001f800
000fc000fc00
000f80007800
ENDCHAR
STARTCHAR ye
ENCODING  31821
SWIDTH 552 0
DWIDTH 25 0
BBX 21 32 1 -1
BITMAP
001fc0
01fff0
07e3f8
0fc3f8
1f83f8
3f83f8
3f03f8
7f03f8
7f03f8
7f07f0
7f07f0
ff0fe0
7f1fc0
7f7f00
7ff000
7f8000
7fc000
3fe000
3fe000
1fe000
0fe000
0fe000
0fe000
0fe000
0fe000
0fe000
0fe000
0fe000
0fe000
0ff000
0ff000
070000
ENDCHAR
STARTCHAR yu
ENCODING  31822
SWIDTH 600 0
DWIDTH 26 0
BBX 22 31 1 -1
BITMAP
007fe0
03fff0
0fc3f0
1f83f0
3f03f0
3f03f0
7f03f0
7f03f0
7e07f0
fe07f0
fe0fe0
7e1fc0
7f3f00
7ffc00
7fc000
7fc000
3fc000
3fe0f8
1ffff8
0ffff8
0fe3f8
0fe3f8
0fe1f8
0fe0fc
0fe078
0fe000
0fe000
0fe000
0ff000
0ff000
070000
ENDCHAR
STARTCHAR yi
ENCODING  31823
SWIDTH 864 0
DWIDTH 37 0
BBX 33 32 1 -1
BITMAP
003fc00000
01fff00000
07e3f00000
1f83f80000
3f83f80000
3f03f80000
7f03f80000
7f03f80000
7e07f00000
7e07f00000
fe07f00000
fe0fe00000
ff1f800000
7f7f000000
7ff0000000
7f800e0000
7fc1fe0000
3fc1fe0000
3fe0fe0000
1fe0fe0000
0fe0fe0000
0ffffe0000
0ffffe0000
0fe1ffff00
0fe1ffff00
0fe0007f00
0fe0007f00
0fe0003f80
0fe0001f80
0ff0000200
0ff0000000
0700000000
ENDCHAR
STARTCHAR ya
ENCODING  31824
SWIDTH 672 0
DWIDTH 29 0
BBX 25 35 2 -4
BITMAP
0001fe00
000fff80
003e1f80
007c1f80
00f81f80
01f81f80
01f81f80
03f01f80
03f03f80
03f03f00
03f07f00
03f07e00
03f1f800
03ffe000
03fe0000
03f80000
03f80000
03f80000
01fc0000
01fc0000
01fe0000
00fe0000
00ff0000
007f0000
007f8000
003f8000
7e7c0000
fef00000
ffc00000
7f000000
7f000000
7f000000
7e000000
7c000000
e0000000
ENDCHAR
STARTCHAR yE
ENCODING  31825
SWIDTH 792 0
DWIDTH 35 0
BBX 31 32 1 -1
BITMAP
001fc000
01fff000
07e3f000
0f83f800
1f83f800
3f03f800
7f03f800
7f03f800
7e07f000
7e07f000
fe07e000
fe0fe000
7e1f8000
7f7e0000
7ff00000
7f800000
7fc01ff0
3fc0fffc
3ffff87c
1ffff87e
0fe1f87e
0fe1f87e
0fe1f87e
0fe1f87c
0fe1f87c
0fe0fffc
0fe0fff0
0fe00000
0fe00000
0ff00000
0ff00000
07000000
ENDCHAR
STARTCHAR y
ENCODING  31826
SWIDTH 768 0
DWIDTH 34 0
BBX 30 34 1 -5
BITMAP
00007e00
0007ffc0
001f9fc0
003e0fc0
007c0fc0
00fc0fc0
01f80fc0
01f81fc0
03f81fc0
03f81fc0
03f83f80
03f87f00
03f8fe00
03fff800
03ffc000
03f80000
03f803fc
03fc03fc
01fc03fc
01fc01fc
01fc01fc
01fe01fc
00fe01f8
00ff03f0
007f83e0
03ffffc0
3f80fe00
7f800000
3f000000
3f000000
7f000000
7e000000
fc000000
70000000
ENDCHAR
STARTCHAR yo
ENCODING  31827
SWIDTH 768 0
DWIDTH 34 0
BBX 30 31 1 -1
BITMAP
00ffc000
07efe000
0f87e000
1f83e000
3f03e000
7f03e000
7f03f000
7e03fff8
7e07fff8
fe07e3f8
fe0fc3f8
7e1f81fc
7f7e01fc
7ff0007c
7f800000
7fc00000
3fe00000
3fe00000
1fe00000
0fe00000
0fe00000
0fe00000
0fe00000
0fe00000
0fe00000
0fe00000
0fe00000
0fe00000
0ff00000
0ff00000
07000000
ENDCHAR
STARTCHAR yWa
ENCODING  31828
SWIDTH 552 0
DWIDTH 31 0
BBX 27 41 0 -1
BITMAP
00000fe0
fc001fc0
fe001fc0
7f001fc0
7f003fc0
7fffffc0
fffffc00
003f0000
003f0000
003fe000
00fff800
03f1fc00
07e1fc00
0fc1fc00
1fc1fc00
1f81fc00
3f81fc00
3f81fc00
3f83f800
3f83f800
7f87f000
3f8fe000
3fbf8000
3ff80000
3fc00000
3fe00000
1ff00000
1ff00000
0ff00000
07f00000
07f00000
07f00000
07f00000
07f00000
07f00000
07f00000
07f00000
07f00000
07f80000
07f80000
03800000
ENDCHAR
STARTCHAR de
ENCODING  31829
SWIDTH 792 0
DWIDTH 31 0
BBX 27 31 3 -1
BITMAP
0001fc00
000ffe00
003e7f00
00fc7f00
01f87f00
01f87f00
03f07f00
03f07f00
03f07f00
07f07f00
07f0fe00
07f0fc00
03f3f800
03ffe000
03ff0000
03f80000
01fc0000
01fc0000
01fc0000
00fe0000
00fe0000
007f81c0
00ffffc0
3fc03fc0
7f801fc0
7f801fc0
7f000fe0
7f000fe0
fe0007e0
fc000000
70000000
ENDCHAR
STARTCHAR du
ENCODING  31830
SWIDTH 1032 0
DWIDTH 43 0
BBX 39 33 2 -1
BITMAP
00001f8000
0001ffe000
0007e7f000
000fc7f000
001f87f000
001f07f000
003f07f000
003f07f000
007f07f000
007f0fe000
007f0fe000
007f1fc000
007f3f0000
007ffc0000
007fe00000
003f800000
003f800000
003f800000
007fdff800
03fffff800
1f9ffff81c
7f8003fffc
3f8003fffc
3f0003f1fc
7f0007f1fc
7e0007e0fc
fc0007e0fe
70000fe03c
00000fe000
00000fe000
00000fe000
00001fe000
00000fe000
ENDCHAR
STARTCHAR di
ENCODING  31831
SWIDTH 1032 0
DWIDTH 43 0
BBX 39 35 2 -4
BITMAP
00007fc000
0003ffe000
0007c7f000
000f87f000
001f87f000
003f07f000
003f07f000
007f07f000
007f07e000
007f0fe000
007f0fc000
007f1f8000
007f7f0000
007ff80000
003f800000
003f800000
003f800000
007f806000
03fffff800
1f9ffff800
7f8001f800
3f8003f800
3f0003f000
7f0003f000
7e0007f000
fc0007e000
700007e038
00000fe0fc
00000fe1f8
00000fe1f8
00000ffff8
00000fe3fc
00000001fc
00000001fe
0000000070
ENDCHAR
STARTCHAR da
ENCODING  31832
SWIDTH 768 0
DWIDTH 33 0
BBX 29 32 2 -1
BITMAP
00003fc0
0001ffe0
0007c7f0
000f87f0
001f87f0
003f07f0
003f07f0
003f07f0
007f07e0
007f0fe0
007f0fe0
007f1fc0
007f3f00
007ffc00
003fe000
003f8000
003f8000
007f8000
03fffff0
1f9ffff8
7f8001f8
3f8003f8
3f0003f0
7f0003f0
7e0003f0
fc0007f0
700007f0
000007f0
000007f0
000007f0
000007f0
000007f0
ENDCHAR
STARTCHAR dE
ENCODING  31833
SWIDTH 960 0
DWIDTH 41 0
BBX 37 32 2 -2
BITMAP
0000fc0000
000fff0000
003e7f0000
007c3f8000
00fc3f8000
01f83f8000
01f83f8000
03f83f0000
03f03f0000
03f07f0000
03f07e0000
03f0fe0000
03f9f80000
03ffe00000
01ff000000
01fc000000
01fc000000
00fc000000
00fe000000
007f000000
003f803f00
007ff1ffe0
0ff0ffe3f0
3fc007e1f0
3fc007e1f8
3f8007e1f8
3f8007e1f8
7f0007e1f0
ff0007e3f0
7c0003f3f0
000003ffc0
0000018000
ENDCHAR
STARTCHAR d
ENCODING  31834
SWIDTH 936 0
DWIDTH 39 0
BBX 35 31 2 0
BITMAP
0000f80000
000ffe0000
003e7e0000
00fc7f0000
01f87f0000
01f07f0000
03f07fffc0
03f07fffc0
03f07f3fc0
07f07f1fc0
07f0fe1fc0
07f0fc0fe0
07f1f807e0
03ffe00000
03ff000000
03f8000000
03f8000000
01f8000000
01fc000000
00fe000000
00fe000000
007f80c000
007fffc000
1fc03fc000
7f801fc000
7f801fc000
7f801fc000
7f000fe000
ff0007e000
fe00000000
7800000000
ENDCHAR
STARTCHAR do
ENCODING  31835
SWIDTH 768 0
DWIDTH 33 0
BBX 29 33 1 -1
BITMAP
0001f800
001ffe00
007e7f00
00f87f00
01f87f00
01f87f00
03f07f00
03f07f00
07f07f00
07f07e00
07f0fe00
07f1fc00
07fbf800
03ffe000
03ff0000
01f80000
00fc0000
03ffe000
07fffff0
0fe00ff0
1f8007f0
3f0007f0
3f0007f0
7e0003f8
7e0000f8
7e000000
7e000000
7e000000
fe000000
fe000000
ff000000
7f000000
7c000000
ENDCHAR
STARTCHAR dWa
ENCODING  31836
SWIDTH 1032 0
DWIDTH 45 0
BBX 41 38 1 -8
BITMAP
0001fc000000
000fff000000
003e7f000000
007c3f000000
00f83f000000
01f83f000000
03f83f000000
03f03f000000
03f07f000000
03f07e000000
03f07e000000
03f0fc000000
03f1f8000000
03ffe0000000
03ff00000000
03f800000000
01fc00000000
01fc00000000
00fe00000000
00fe00000000
007f00000000
007f00000000
00ffffe00000
3fc03fe00000
7f801fe00000
3f801fe00000
3f800fe00000
7f000fe00000
7e0007f00000
fc0001f03f00
700000ffff00
0000ffffff00
0000ff007f00
0000fc003f00
0000fc003f00
0000fc001f80
0001f8000e00
0001e0000000
ENDCHAR
STARTCHAR De
ENCODING  31837
SWIDTH 792 0
DWIDTH 31 0
BBX 27 36 3 -1
BITMAP
001fe000
001fe000
001fc000
000fc000
000fc000
000ffc00
001ffe00
007e7f00
00fc7f00
01f87f00
01f87f00
03f07f00
03f07f00
03f07f00
07f07e00
07f0fe00
07f0fc00
03f3f800
03ffe000
03ff0000
03f80000
01fc0000
01fc0000
01fc0000
00fe0000
00fe0000
007f81c0
00ffffc0
3fc03fc0
7f801fc0
7f801fc0
7f000fe0
7f000fe0
fe0007e0
fc000000
70000000
ENDCHAR
STARTCHAR Du
ENCODING  31838
SWIDTH 1032 0
DWIDTH 43 0
BBX 39 39 2 -1
BITMAP
0000040000
0001fc0000
0001fc0000
0001fc0000
0001fc0000
0001fc0000
0001ff8000
0001ffe000
0007e7f000
000fc7f000
001f87f000
003f07f000
003f07f000
003f07f000
007f07e000
007f0fe000
007f0fe000
007f1fc000
007f3f0000
007ffc0000
007fe00000
003f800000
003f800000
003f800000
007fdff800
03fffff800
1f9ffff81c
7f8003fffc
3f8003fffc
3f0003f1fc
7f0007f1fc
7e0007e0fc
fc0007e0fe
70000fe03c
00000fe000
00000fe000
00000fe000
00001fe000
00000fe000
ENDCHAR
STARTCHAR Di
ENCODING  31839
SWIDTH 1032 0
DWIDTH 43 0
BBX 39 42 2 -4
BITMAP
0000040000
0001fc0000
0001fc0000
0001fc0000
0001fc0000
0001fc0000
0001fc0000
0001ffc000
0003ffe000
000fc7f000
001f87f000
001f87f000
003f07f000
003f07f000
007f07f000
007f07e000
007f0fe000
007f0fc000
007f1f8000
007f7f0000
007ff80000
003f800000
003f800000
003f800000
007f806000
03fffff800
1f9ffff800
7f8001f800
3f8003f800
3f0003f000
7f0003f000
7e0007f000
fc0007e000
700007e038
00000fe0fc
00000fe1f8
00000fe1f8
00000ffff8
00000fe3fc
00000001fc
00000001fe
0000000070
ENDCHAR
STARTCHAR Da
ENCODING  31840
SWIDTH 768 0
DWIDTH 33 0
BBX 29 39 2 -1
BITMAP
00000c00
0001fc00
0001fc00
0001fc00
0001fc00
0001fc00
0001fc00
0001ffc0
0003ffe0
000fe7f0
001f87f0
001f87f0
003f07f0
003f07f0
007f07f0
007f07e0
007f0fe0
007f0fe0
007f1fc0
007f3f00
007ffc00
003fe000
003f8000
003f8000
007f8000
03fffff0
1f9ffff8
7f8001f8
3f8003f8
3f0003f0
7f0003f0
7e0003f0
fc0007f0
700007f0
000007f0
000007f0
000007f0
000007f0
000007f0
ENDCHAR
STARTCHAR DE
ENCODING  31841
SWIDTH 960 0
DWIDTH 41 0
BBX 37 38 2 -2
BITMAP
000fe00000
000fe00000
000fe00000
000fe00000
000fe00000
000fe00000
000ffe0000
001fff0000
007f7f0000
00fc3f8000
01fc3f8000
01f83f8000
03f83f8000
03f83f0000
03f03f0000
03f07f0000
03f07e0000
03f0fe0000
03f9f80000
03ffe00000
01ff000000
01fc000000
01fc000000
00fc000000
00fe000000
007f000000
003f803f00
007ff1ffe0
0ff0ffe3f0
3fc007e1f0
3fc007e1f8
3f8007e1f8
3f8007e1f8
7f0007e1f0
ff0007e3f0
7c0003f3f0
000003ffc0
0000018000
ENDCHAR
STARTCHAR D
ENCODING  31842
SWIDTH 936 0
DWIDTH 39 0
BBX 35 38 2 0
BITMAP
0000600000
000fe00000
000fe00000
000fe00000
000fe00000
000fe00000
000fe00000
000ffe0000
001fff0000
007eff0000
00fc7f0000
01f87f0000
03f87f0000
03f07fffc0
03f07fffc0
03f07f3fc0
07f07f1fc0
07f0fe1fc0
07f0fc0fe0
07f1f807e0
03ffe00000
03ff000000
03f8000000
03f8000000
01f8000000
01fc000000
00fe000000
00fe000000
007f80c000
007fffc000
1fc03fc000
7f801fc000
7f801fc000
7f801fc000
7f000fe000
ff0007e000
fe00000000
7800000000
ENDCHAR
STARTCHAR Do
ENCODING  31843
SWIDTH 768 0
DWIDTH 33 0
BBX 29 40 1 -1
BITMAP
0000e000
000fe000
000fe000
000fe000
000fe000
000fe000
000fe000
000ffc00
001ffe00
007e7f00
00f87f00
01f87f00
03f87f00
03f07f00
07f07f00
07f07f00
07f07e00
07f0fe00
07f1fc00
07fbf800
03ffe000
03ff0000
01f80000
00fc0000
03ffe000
07fffff0
0fe00ff0
1f8007f0
3f0007f0
3f0007f0
7e0003f8
7e0000f8
7e000000
7e000000
7e000000
fe000000
fe000000
ff000000
7f000000
7c000000
ENDCHAR
STARTCHAR DWa
ENCODING  31844
SWIDTH 792 0
DWIDTH 44 0
BBX 40 43 3 -8
BITMAP
001fe00000
001fe00000
001fc00000
000fc00000
000fc00000
000ffc0000
001ffe0000
003e7f0000
007c3f0000
00f83f0000
01f83f0000
01f03f0000
03f03f0000
03f07f0000
03f07e0000
03f07e0000
03f0fc0000
03f1f80000
03ffe00000
03ff000000
03f8000000
01fc000000
01fc000000
00fe000000
00fe000000
007f000000
007f000000
00ffffe000
3fc03fe000
7f801fe000
3f801fe000
3f800fe000
7f000fe000
7e0007f000
fc0001f07e
700000fffe
0000fffffe
0000ff00fe
0000fc00fe
0000fc007f
0000fc003e
0001f8001c
0001e00000
ENDCHAR
STARTCHAR je
ENCODING  31845
SWIDTH 816 0
DWIDTH 35 0
BBX 31 39 2 -7
BITMAP
000000fc
000001f8
3f8003f8
1fc007f8
1fc7fffc
0ffff1fc
1fe7e1fe
1fc7e078
3f87f800
601ffe00
003e3f00
007c3f00
00fc3f80
00fc3f80
00fc3f80
01f83f80
01f83f00
01f87f00
01fc7f00
01fdfe00
01fff800
01ff8000
01fc0000
01fc0000
01fc0000
01fe0000
00fe0000
00fe0000
00ff0000
007f8000
01ffffe0
0f87ffe0
7f800fe0
7f800fe0
7f800fe0
7f0007f0
7f0003f0
fe000000
f8000000
ENDCHAR
STARTCHAR ju
ENCODING  31846
SWIDTH 960 0
DWIDTH 41 0
BBX 37 39 2 -7
BITMAP
000001f800
0e0003f800
3f8007f800
3f803ff800
1fbffff800
1fffe3fc00
1f8fe1fc00
3f8fe00000
7e0ffc0000
003e7e0000
007c3f0000
00f83f0000
01f83f0000
01f83f0000
01f87f0000
01f87f0000
01f87f0000
01f8fe0000
01f9fe0000
01fffc0000
01fff00000
01f8000000
00fc000000
00fe000000
00ff7fc000
03ffffe000
1f7fffc3f0
7f001ffff0
3f001fffe0
3f001f8fe0
7e003f87f0
7e003f83f0
fc003f81f8
78003f0000
00007f0000
00007f0000
00007f8000
00007f8000
0000300000
ENDCHAR
STARTCHAR ji
ENCODING  31847
SWIDTH 960 0
DWIDTH 40 0
BBX 36 41 2 -9
BITMAP
000001f800
000003f800
7f8007f800
3f800ff800
1f8ffff800
1fffe3f800
1fcfe3fc00
3f8fe0f000
3f0ff00000
403ffe0000
007c7e0000
00fc3f0000
00f83f0000
01f83f0000
01f87f0000
01f87f0000
01f87f0000
01f87e0000
01f8fe0000
01fbfc0000
01fff80000
01fb800000
00fc000000
00fc000000
00fe078000
03ffffc000
1f7fffc000
7f001fc000
3f001fc000
3f001f8000
7e003f8000
7e003f8000
fc003f0000
78003f07e0
00007f0fe0
00007f0fe0
00007fffe0
00007fffe0
0000300fe0
0000000ff0
00000003e0
ENDCHAR
STARTCHAR ja
ENCODING  31848
SWIDTH 816 0
DWIDTH 34 0
BBX 30 39 2 -7
BITMAP
000001f8
0e0003f8
3f8007f8
3f803ff8
1fbffff8
1fffe3fc
1f8fe1fc
3f8fe000
7e0ffc00
003e7e00
007c3f00
00f83f00
01f83f00
01f83f00
01f87f00
01f87f00
01f87f00
01f87e00
01f8fe00
01fffc00
01fff000
01f80000
00fc0000
00fe0000
00ff3fc0
03ffffc0
1fbfffc0
7f000fc0
3f001fc0
3f001f80
7f001f80
7e003f80
fc003f80
78003f80
00003f80
00007f80
00007f80
00007f80
00003000
ENDCHAR
STARTCHAR jE
ENCODING  31849
SWIDTH 912 0
DWIDTH 38 0
BBX 34 40 2 -8
BITMAP
000000f800
000003f800
3f0003f800
3f8007f800
1f83fff800
1ffff3f800
1fffe3fc00
3f8fe1fc00
3f0fc00000
7c1ffc0000
007c7e0000
00fc3f0000
00f83f0000
01f83f0000
01f83f0000
01f87f0000
03f87f0000
03f87e0000
03f8fe0000
03f9fc0000
03fff80000
03ffc00000
03f8000000
03f8000000
03fc000000
01fc000000
01fc000000
01fe000000
00ff000000
00ff87ff00
03ffffff80
0f3fff8fc0
7f001f8fc0
7f001f0fc0
7f001f0fc0
7f001f0fc0
fe001f0fc0
fc001f8fc0
f8000fff80
00000ffc00
ENDCHAR
STARTCHAR j
ENCODING  31850
SWIDTH 912 0
DWIDTH 40 0
BBX 36 39 1 -7
BITMAP
0000001c00
000000fc00
0f8001fc00
1fc003fc00
1fc03ffc00
0ffffffc00
0ffff1fe00
0fc7f0fe00
1fc7f00000
3f07fe0000
001f3f0000
003e1f8000
007c1f8000
007c1fffe0
00fc1fffe0
00fc3f8fe0
00fc3f8fe0
01fc3f87f0
01fc7f03f0
01fc7e00e0
01fffc0000
01ff800000
01fc000000
01fc000000
01fc000000
00fe000000
00fe000000
00fe000000
007f000000
007f800000
01fffff000
0fc7ffe000
7f800fe000
7f800fe000
7f8007f000
7f8007f000
7f0003f800
fe00000000
fc00000000
ENDCHAR
STARTCHAR jo
ENCODING  31851
SWIDTH 768 0
DWIDTH 33 0
BBX 29 40 2 -6
BITMAP
000001f0
000007f0
7e000fe0
7f000fe0
7f07fff0
3fffe7f0
3fffc7f8
7f1f83f0
7e1ff000
f03ffc00
00f8fe00
01f0fe00
03f0fe00
07e0fe00
07e0fe00
07e0fe00
07e0fe00
0fe0fc00
0fe1f800
07e1f000
07e7e000
03ff0000
03f00000
01f80000
03ff0000
07ffffe0
1fe00fe0
1f800fe0
3f8007e0
7f0007f0
7f0003f0
fe0001f0
fe000000
fc000000
fc000000
fc000000
fe000000
fe000000
ff000000
fe000000
ENDCHAR
STARTCHAR jWa
ENCODING  31852
SWIDTH 816 0
DWIDTH 45 0
BBX 41 47 2 -15
BITMAP
000000fc0000
000001f80000
3f8003f80000
1fc007f80000
1fc7fffc0000
0ffff1fc0000
1fe7e1fe0000
1fc7e0780000
3f87f8000000
601ffe000000
003e3f000000
007c1f000000
00fc1f800000
00fc1f800000
00fc1f800000
01f83f800000
01f83f000000
01f87f000000
01fc7f000000
01fdfe000000
01fff8000000
01ff80000000
01fc00000000
01fc00000000
01fc00000000
01fe00000000
00fe00000000
00fe00000000
00ff00000000
007f80000000
01ffffe00000
0f87ffe00000
7f801fe00000
7f800fe00000
7f800fe00000
7f0007e00000
7f0007e00000
fe0003f00000
f80000f03f00
0000007fff00
00007fffff00
00007f807f00
00007e003f00
00007e003f00
00007e001f80
0000fc000e00
0000f0000000
ENDCHAR
STARTCHAR ge
ENCODING  31853
SWIDTH 552 0
DWIDTH 22 0
BBX 18 28 2 -1
BITMAP
000f00
07ff80
7fffc0
7f1fc0
7e0fc0
7e0fc0
7c0fc0
fc1fc0
f81fc0
001fc0
001fc0
001f80
003f80
003f80
003f80
003f80
003f80
007f00
007f00
007f00
007f00
007f00
007f00
00fe00
00ff00
00ff00
007f00
007000
ENDCHAR
STARTCHAR gu
ENCODING  31854
SWIDTH 768 0
DWIDTH 33 0
BBX 29 28 2 -1
BITMAP
000f0000
03ffc000
7fffc000
7f1fe000
7f0fe000
7e0fe000
7e0fe000
7c1fc000
f81fc000
001fc000
001fc3f0
001ffff0
003ffff0
003f87f0
003f87f0
003f83f8
003f81f8
007f0060
007f0000
007f0000
007f0000
007f0000
007f0000
00fe0000
00ff0000
00ff0000
007f0000
00700000
ENDCHAR
STARTCHAR gi
ENCODING  31855
SWIDTH 720 0
DWIDTH 31 0
BBX 27 30 2 -3
BITMAP
003f8000
1fffc000
ff3fc000
7e1fc000
7e0fc000
7e1fc000
fc1fc000
f81fc000
f01fc000
001fc000
003f8000
003f8000
003f8000
003f8000
003f8000
007f8000
007f0000
007f0000
007f0000
007f0000
00ff0000
00ff0000
00fe07e0
00fe0fc0
00ff1fc0
00ffffc0
00ffffc0
00701fe0
00000fe0
000007e0
ENDCHAR
STARTCHAR ga
ENCODING  31856
SWIDTH 696 0
DWIDTH 29 0
BBX 25 29 2 -2
BITMAP
0000fc00
003fff00
01fc7f00
01fc3f80
01fc3f80
01f83f80
01f83f80
03f01f80
03c01f80
00001f80
00001f80
00001f80
00003f80
00003f80
00003f00
00007f00
00007e00
0000fc00
0001f800
0003f000
000fc000
007f0000
7ff80000
7f000000
7f000000
7e000000
7e000000
fc000000
f8000000
ENDCHAR
STARTCHAR gE
ENCODING  31857
SWIDTH 696 0
DWIDTH 29 0
BBX 25 28 2 -1
BITMAP
000e0000
07ff8000
7fffc000
7e1fc000
7e0fe000
7e0fe000
7c0fc000
fc1fc000
f81fc000
001fc000
001fc000
001f8000
003f8000
003f8000
003f8000
003f8000
003f0000
007f1e00
007fff00
007f1f80
007f0f80
007f0f80
00fe0f80
00fe0f80
00fe1f80
00ffff00
00fffe00
00600000
ENDCHAR
STARTCHAR g
ENCODING  31858
SWIDTH 672 0
DWIDTH 29 0
BBX 25 28 1 -1
BITMAP
00007e00
01ffff00
1fff3f80
3e7e1f80
7c7e1f80
fc3e1f80
fc3e3f80
fc3e3f80
fc7e3f80
fe7e3f00
7ffc3f00
3f807f00
00007f00
00007f00
00007f00
00007e00
0000fe00
0000fe00
0000fe00
0000fe00
0000fe00
0001fc00
0001fc00
0001fc00
0001fe00
0001fe00
0001fe00
0000e000
ENDCHAR
STARTCHAR go
ENCODING  31859
SWIDTH 576 0
DWIDTH 26 0
BBX 22 34 1 -1
BITMAP
00fe00
01fe00
01fe00
00fe00
00fe00
00fe00
00fe00
00fff0
07fff8
7ffffc
7f03fc
7f01fc
7e01f8
7e03f8
fc03f8
f803f8
0003f8
0007f0
0007f0
0007f0
0007f0
0007f0
000fe0
000fe0
000fe0
000fe0
000fe0
001fc0
001fc0
001fc0
001fc0
001fe0
001fe0
000e00
ENDCHAR
STARTCHAR gWe
ENCODING  31861
SWIDTH 936 0
DWIDTH 39 0
BBX 35 28 2 -1
BITMAP
001f000000
07ffc00000
7fffc00000
7f0fe00000
7e0fe00000
7e0fe00000
7c0fe00000
fc1fc00000
f81fc00000
001fc00000
001fc0ff80
001fffefc0
003fffc7e0
003f8fc7e0
003f8fc7e0
003f8fc7e0
003f8fc7e0
007f0fc7e0
007f07ff80
007f03c000
007f000000
00fe000000
00fe000000
00fe000000
00ff000000
00ff000000
00ff000000
00f0000000
ENDCHAR
STARTCHAR gWi
ENCODING  31863
SWIDTH 984 0
DWIDTH 42 0
BBX 38 28 1 -1
BITMAP
000f000000
07ffc00000
7fffe00000
7f0fe00000
7f0fe07000
7e0fe7f800
7e0fe7f800
7c0fc3f800
f80fc3f000
001fc3f000
001fc7f000
001ffff000
001ffff000
001f87f000
003f87f1fc
003f87fff8
003f8003f8
003f8003f8
003f0001fc
007f0000fc
007f00007c
007f000000
007f000000
007f000000
007f000000
00ff000000
007f800000
0078000000
ENDCHAR
STARTCHAR gWa
ENCODING  31864
SWIDTH 648 0
DWIDTH 28 0
BBX 24 30 0 -1
BITMAP
03ffe0
1fc3f0
1fc3f0
1f83f0
1f83f0
1f83f0
3f03f0
3c03f0
0007e0
0007e0
0007e0
001fe0
00ffde
7fe07e
3f807f
3f807f
7f00fe
7f00fe
fe01fe
7801fc
0003fc
0003f8
0003f8
0007f0
0007f0
000fe0
000fe0
000ff0
000ff0
000f00
ENDCHAR
STARTCHAR gWE
ENCODING  31865
SWIDTH 792 0
DWIDTH 35 0
BBX 31 33 1 -2
BITMAP
00002000
001ffc00
03fffe00
03f87e00
03f87f00
03f07f00
03f07f00
03e07e00
07c0fe00
0100fe00
0000fe00
0000fc00
0000fc00
0001fc00
0001fc00
0001fff8
0001fffc
0003f87c
0003f87e
0003f83e
0003f03e
0007f07c
0007f0fc
0007fff8
001fffe0
0fff0000
7fc00000
3f800000
3f800000
7f000000
7f000000
fe000000
78000000
ENDCHAR
STARTCHAR gWu/gW
ENCODING  31866
SWIDTH 936 0
DWIDTH 41 0
BBX 37 28 1 -1
BITMAP
003fc00000
0fffe00000
7f9fe00000
7f0fe07800
7f0fe3f800
7e0fe3f800
7e0fe3f800
7c0fe3f800
f80fe3f800
001fe3f800
001fe3f000
001ffff800
001fffcff0
001fc00ff0
003fc007f0
003f8007f0
003f8003f0
003f8003f8
003f8000f0
007f800000
007f000000
007f000000
007f000000
007f000000
007f000000
007f800000
007f800000
0038000000
ENDCHAR
STARTCHAR Ge
ENCODING  31869
SWIDTH 552 0
DWIDTH 32 0
BBX 28 37 -1 -1
BITMAP
000007e0
00001fc0
fe003fc0
7f003fc0
7f7fffe0
7fff1fe0
7f001ff0
7e000fe0
fc000000
0001e000
00fff000
0ffff800
0fe3f800
0fc1f800
0fc1f800
0f81f800
1f83f800
1f03f800
0003f800
0003f800
0003f000
0007f000
0007f000
0007f000
0007f000
0007f000
000fe000
000fe000
000fe000
000fe000
000fe000
000fe000
001fc000
001fe000
001fe000
000fe000
000e0000
ENDCHAR
STARTCHAR Gu
ENCODING  31870
SWIDTH 768 0
DWIDTH 36 0
BBX 32 37 -1 -1
BITMAP
000007e0
00001fc0
fe003fc0
7f003fc0
7f7fffe0
7fff1fe0
7f001ff0
7e000fe0
fc000000
0001e000
007ff800
0ffff800
0fe3fc00
0fe1fc00
0fc1fc00
0fc1fc00
0f83f800
1f03f800
0003f800
0003f87e
0003fffe
0007fffe
0007f0fe
0007f0fe
0007f07f
0007f03f
000fe00c
000fe000
000fe000
000fe000
000fe000
000fe000
001fc000
001fe000
001fe000
000fe000
000e0000
ENDCHAR
STARTCHAR Gi
ENCODING  32033
SWIDTH 720 0
DWIDTH 36 0
BBX 32 39 -3 -3
BITMAP
000003fc
00000ff8
fe001ff8
7f001ff8
7f7ffffc
7fff87fc
7f0007fe
7e0003fc
fc000000
0001fc00
00fffe00
07f9fe00
03f0fe00
03f07e00
03f0fe00
07e0fe00
07c0fe00
0780fe00
0000fe00
0001fc00
0001fc00
0001fc00
0001fc00
0001fc00
0003fc00
0003f800
0003f800
0003f800
0003f800
0007f800
0007f800
0007f03f
0007f07e
0007f8fe
0007fffe
0007fffe
000380ff
0000007f
0000003f
ENDCHAR
STARTCHAR Ga
ENCODING  32034
SWIDTH 696 0
DWIDTH 36 0
BBX 32 38 2 -2
BITMAP
0000007e
000001fc
3f8003fc
1fc003fc
1fdffffe
1fffe1fe
1fc001ff
1f8000fe
3f000000
0000fc00
003fff00
01fc7f00
01fc3f80
01fc3f80
01f83f80
01f83f80
03f01f80
03c01f80
00001f80
00001f80
00001f80
00003f80
00003f80
00003f00
00007f00
00007e00
0000fc00
0001f800
0003f000
000fc000
007f0000
7ff80000
7f000000
7f000000
7e000000
7e000000
fc000000
f8000000
ENDCHAR
STARTCHAR GE
ENCODING  32035
SWIDTH 696 0
DWIDTH 35 0
BBX 31 37 -3 -1
BITMAP
000001fc
000007f8
ff000ff8
7f800ff8
7fbffffc
7fffc7fc
7f8007fe
7f0003fc
fe000000
00007000
003ffc00
03fffe00
03f0fe00
03f07f00
03f07f00
03e07e00
07e0fe00
07c0fe00
0000fe00
0000fe00
0000fc00
0001fc00
0001fc00
0001fc00
0001fc00
0001f800
0003f8f0
0003fff8
0003f8fc
0003f87c
0003f87c
0007f07c
0007f07c
0007f0fc
0007fff8
0007fff0
00030000
ENDCHAR
STARTCHAR G
ENCODING  32036
SWIDTH 672 0
DWIDTH 36 0
BBX 32 37 -1 -1
BITMAP
0000003e
000000fc
ff0001fc
7f8001fc
7fbffffe
7ffff8fe
7f8000ff
7f00007e
fe000000
00001f80
007fffc0
07ffcfe0
0f9f87e0
1f1f87e0
3f0f87e0
3f0f8fe0
3f0f8fe0
3f1f8fe0
3f9f8fc0
1fff0fc0
0fe01fc0
00001fc0
00001fc0
00001fc0
00001f80
00003f80
00003f80
00003f80
00003f80
00003f80
00007f00
00007f00
00007f00
00007f80
00007f80
00007f80
00003800
ENDCHAR
STARTCHAR Go
ENCODING  32037
SWIDTH 576 0
DWIDTH 39 0
BBX 35 40 -4 -1
BITMAP
0000000fc0
0000003f80
ff00007f80
7f80007f80
7fbfffff80
7ffff83fc0
7f87f03fe0
7f0ff01fc0
fe0ff00000
0007f00000
0007f00000
0007f00000
0007f00000
0007ff8000
003fffc000
03ffffe000
03f81fe000
03f80fe000
03f00fc000
03f01fc000
07e01fc000
07c01fc000
00001fc000
00003f8000
00003f8000
00003f8000
00003f8000
00003f8000
00007f0000
00007f0000
00007f0000
00007f0000
00007f0000
0000fe0000
0000fe0000
0000fe0000
0000fe0000
0000ff0000
0000ff0000
0000700000
ENDCHAR
STARTCHAR GWa
ENCODING  32038
SWIDTH 648 0
DWIDTH 33 0
BBX 29 40 -3 -1
BITMAP
000003f0
00000fe0
fe001fe0
7f001fe0
7f7ffff0
7fff8ff0
7f000ff8
7e0007f0
fc000000
00000000
007ffc00
03f87e00
03f87e00
03f07e00
03f07e00
03f07e00
07e07e00
07807e00
0000fc00
0000fc00
0000fc00
0003fc00
001ffbc0
0ffc0fc0
07f00fe0
07f00fe0
0fe01fc0
0fe01fc0
1fc03fc0
0f003f80
00007f80
00007f00
00007f00
0000fe00
0000fe00
0001fc00
0001fc00
0001fe00
0001fe00
0001e000
ENDCHAR
STARTCHAR Te
ENCODING  32039
SWIDTH 936 0
DWIDTH 40 0
BBX 36 25 1 -1
BITMAP
00007ffc00
000fffff00
003ffcff80
00f9fc3fc0
03f1fc1fe0
07e1fc0fe0
0fc1fc0fe0
0fc1fc0ff0
1f81fc07f0
3f81fc07f0
3f81fc07f0
7f01fc07f0
7f01fc07f0
7f01fc07f0
7f01fc07e0
7f01fc07e0
ff01fc0fe0
ff01f80fe0
ff03f80fe0
ff03f80fe0
fe03f80fe0
ff03f80fe0
ff03fc0ff0
7f03fc0ff0
7001c00fc0
ENDCHAR
STARTCHAR Tu
ENCODING  32040
SWIDTH 1224 0
DWIDTH 51 0
BBX 47 25 2 -1
BITMAP
0000fc700000
001ffffe0000
007ffcff0000
01f1fc3f8000
03e1fc1fc000
07e1fc0fc000
0fc1fc0fe07c
1f81fc0fe1f8
3f81fc0fe1fc
3f81fc0fe3fc
7f01fc0fe7fc
7f03f80ffffc
7f03f80ff9fe
ff03f80fe0fe
fe03f80fe000
fe03f80fe000
fe03f80fe000
fe03f80fe000
fe03f80fe000
fe03f80fe000
fe03f80fe000
fe03f80fe000
ff03f80fe000
ff03f80ff000
7003c00fc000
ENDCHAR
STARTCHAR Ti
ENCODING  32041
SWIDTH 1200 0
DWIDTH 51 0
BBX 47 27 2 -3
BITMAP
0000fc000000
001ffffe0000
007ffcff8000
01f1fc3fc000
03e1fc1fc000
07e1fc0fe000
0fc1fc0fe000
1f81fc0fe000
3f81fc0fe000
3f81fc0fe000
7f01fc0fe000
7f03f80fe000
7f03f80fe000
ff03f80fe000
fe03f80fe000
fe03f80fe000
fe03f80fe000
fe03f80fe000
fe03f80fe000
fe03f80fe07c
fe03f80fe1fc
fe03f80fe1f8
ff03f80fe3f8
ff03f80ffff8
7003c00f83fc
0000000001fc
0000000001fe
ENDCHAR
STARTCHAR Ta
ENCODING  32042
SWIDTH 840 0
DWIDTH 37 0
BBX 33 29 2 -1
BITMAP
0003fff000
00fffffc00
03fff0fe00
07c7f07f00
1f87f07f00
1f07f03f00
3f07f03f80
7e07e03f80
7e07e03f00
fe07e03f00
fe0fe07f00
fe0fe07f00
fe0fe07f00
fe0fe07f00
fe0fe07f00
fe0fe07f00
fe0fe07e00
fe0fe0fe00
000000fe00
000000fe00
000000fe00
000000fe00
000000fe00
000000fe00
000001fc00
000001fc00
000001fc00
000001fe00
000001fc00
ENDCHAR
STARTCHAR TE
ENCODING  32043
SWIDTH 1128 0
DWIDTH 49 0
BBX 45 25 2 -1
BITMAP
0000fcf80000
001fffff0000
007ffcff8000
01f1fc3fc000
03e1fc1fc000
07e1fc0fc000
0fc1fc0fe000
1f81fc0fe000
3f81fc0fe000
3f81fc0fe000
7f01fc0fe000
7f03f80fe000
7f03f80fc000
ff03f80fc000
fe03f80fc000
fe03f80fffe0
fe03f80ffff0
fe03f80fc3f0
fe03f80fc1f8
fe03f80fc1f8
fe03f80fc1f8
fe03f80fc1f0
ff03f80feff0
ff03f80fffe0
7003c00f8f80
ENDCHAR
STARTCHAR T
ENCODING  32044
SWIDTH 864 0
DWIDTH 36 0
BBX 32 28 2 1
BITMAP
0003fe00
00ffffe0
03f7f7f8
0fc7f1fc
1f87f0fe
3f87e07e
3f07e07e
7f07e07f
7f07e07f
7f0fe07f
ff0fe07f
ff0ff8ff
ff0ff878
7c03f000
0003f000
0003f000
0007f000
0007f000
0007f000
0007f000
000fe000
000fe000
000fe000
000fe000
000fe000
001fe000
001fe000
001fe000
ENDCHAR
STARTCHAR To
ENCODING  32045
SWIDTH 888 0
DWIDTH 38 0
BBX 34 27 1 1
BITMAP
0003fffc00
001fffff00
007ff87f80
00f1f83f80
03f3f83fc0
03e3f81fc0
07c3f81fc0
0fc3f81fc0
1fc3f81fc0
1f83f81f80
3f83f83f80
3f83f83f80
3f83f83f80
7f03f83f80
7f03f83f80
7f03f83fc0
7f03f83fc0
7f03f81fc0
7f03f81800
7f00000000
ff00000000
ff00000000
7f00000000
7f00000000
7f00000000
7f80000000
7f00000000
ENDCHAR
STARTCHAR TWa
ENCODING  32046
SWIDTH 1056 0
DWIDTH 45 0
BBX 41 30 2 -2
BITMAP
0003fff00000
007ffffc0000
01fbf0fe0000
07e7f07f0000
0fc7f07f0000
1f87f03f0000
3f07f03f8000
7f07e03f8000
7e07e03f8000
fe07e03f0000
fe0fe03f0000
fe0fe03f0000
fe0fe07f0000
fe0fe07f0000
fe0fe07f0000
fe0fe07f0000
fe0fe07f0000
fe0fe07f0000
0000007f0000
0000007f0000
0000007f0000
0000007f0000
0000007f0000
00001fffff00
0000ffffff80
0000fe003f00
0000fe003f00
0000fc003f80
0000f8001f80
0001f0000f80
ENDCHAR
STARTCHAR Ce
ENCODING  32047
SWIDTH 1296 0
DWIDTH 56 0
BBX 52 25 1 -1
BITMAP
000001ff800000
0001fffffc0000
001fffffff0000
007f9fc07f8000
01fc1fc01fc000
03f81fc01fe000
07f01fc00fe000
0fe01fc00fe000
1fc01fc00fe000
1fc01fc00fe000
3f801fc00fe000
3f801fc00fe000
7f801fc00fe000
7f801fc00fe000
7f001fc00fe000
7f7e1fc00fe000
7fff1fff8fffe0
7f0f9f8fcfe3f0
7f0f9f87cfe1f0
7f07bf83cfe1f0
ff07bf83cfe0f0
7f07bf87cfe1f0
7f8f3f87cfe1e0
7ffe3fff8fffe0
78003ffe0fff80
ENDCHAR
STARTCHAR Cu
ENCODING  32048
SWIDTH 1392 0
DWIDTH 59 0
BBX 55 25 1 -1
BITMAP
000001ff800000
0001fffffc0000
001fffffff0000
007f9fc07f8000
01fc1fc01fc07c
03f81fc01fc1f8
07f01fc00fe3f8
0fe01fc00fe3f8
1fc01fc00ffffc
1fc01fc00ffffc
3f801fc00ff3fc
3f801fc00fe1fe
7f801fc00fe0e0
7f801fc00fe000
7f001fc00fe000
7f7e1fc00fe000
7fff1fff8fffe0
7f0f9fc7cfe1f0
7f0f9f83cfe1f0
7f07bf83cfe0f0
ff07bf83cfe0f0
7f07bf83cfe1f0
7f8f3fc7cfe1e0
7ffe3fff8fffe0
78003ffe0fff80
ENDCHAR
STARTCHAR Ci
ENCODING  32049
SWIDTH 1368 0
DWIDTH 60 0
BBX 56 30 1 -6
BITMAP
000003ff800000
0001fffffc0000
001fffffff0000
007f9fc07f8000
01fc1fc01fc000
03f81fc01fe000
07f01fc00fe000
0fe01fc00fe000
1fc01fc00fe000
1fc01fc00fe000
3f801fc00fe000
3f801fc00fe000
7f801fc00fe000
7f801fc00fe000
7f001fc00fe000
7f7e1fc00fe000
7fff1fff8fe000
7f1f9fcfcfe000
7f0f9f87cfe000
7f0fbf83cfe000
ff0fbf83cfe000
7f0fbf83cfe000
7f0f3fc7cffffe
7ffe3fff8ffffc
78003ffe0ffffc
000000000001fc
000000000001fc
000000000000fe
0000000000007f
00000000000008
ENDCHAR
STARTCHAR Ca
ENCODING  32050
SWIDTH 1248 0
DWIDTH 53 0
BBX 49 29 1 -1
BITMAP
0000ffffe00000
001fffe7fc0000
00ffbf80ff0000
03f83f803f8000
0fc03f803fc000
1f803f801fc000
3f003f801fc000
7f003f001fc000
7e387f001fc000
fffe7fff3fc000
ff3f7fffbf8000
fe1f7f0fbf8000
fe1f7f0fbf8000
fe1f7f0fbf8000
fe1f7f0fbf8000
fe1e7f0fbf8000
fffe7fff7f8000
fff07ffc7f0000
000000007f0000
000000007f7c00
000000007fff00
000000007f1f80
000000007f0f80
00000000ff0f80
00000000ff0f80
00000000ff0f80
00000000ff1f00
00000000fffe00
000000007c0000
ENDCHAR
STARTCHAR CE
ENCODING  32051
SWIDTH 1296 0
DWIDTH 56 0
BBX 52 25 1 -1
BITMAP
000001ff800000
0001fffffc0000
001fffffff0000
007f9fc07f8000
01fc1fc01fc000
03f81fc01fe000
07f01fc00fe000
0fe01fc00fe000
1fc01fc00fe000
1fc01fc00fe000
3f801fc00fe000
3f801fc00fe000
7f801fc00fe000
7f801fc00fe000
7f001fc00fe000
7f7e1fc00fe000
7fff1fff8fffe0
7f1f9fc7cfe3f0
7f0f9f83cfe1f0
7f0fbf83cfe1f0
ff0fbf83cfe1f0
7f0fbf83cfe1f0
7f1f3fc7cfe3e0
7ffe3fff8fffe0
78003ffe0fff80
ENDCHAR
STARTCHAR C
ENCODING  32052
SWIDTH 1248 0
DWIDTH 53 0
BBX 49 29 1 -1
BITMAP
0007ffffc00000
007ffffff80000
01ff1fc1fe0000
07f81fc07f0000
0fe01fc07f0000
1fc01fc03f8000
3f801fc03f8c00
7f001fc03fff80
7ffc1fc03fdf80
ff3e3f803f8780
fe1e3f803f8780
fe1e3f803f8780
fe0e3fe03f8780
fe1e0fe03f8700
fe1e0fe03ffe00
fffc0fe03f9000
ffe00fe0000000
00000fe0000000
00000fc0000000
00001fdf800000
00001fffc00000
00001fc7e00000
00001fc3e00000
00001fc3e00000
00001fc3e00000
00001fc3e00000
00001fc7c00000
00001fff800000
00001e00000000
ENDCHAR
STARTCHAR Co
ENCODING  32053
SWIDTH 1296 0
DWIDTH 55 0
BBX 51 28 2 -1
BITMAP
00000fffc00000
0007fffffc0000
003fff83fe0000
00fc3f807f0000
01f03f803f0000
03e03f803f8000
07e03f801f8000
0fc03f801f8000
1f807f001fc000
1f807f001fc600
3f007ffe1fffc0
3f007fff9fc7c0
7f007f0f9fc3e0
7f007f0f9fc3e0
7f007f079fc3e0
fe007f0f9fc3c0
fe007f0fbfc7c0
fe007fbf3fff80
fe007ffe1ffe00
fffe2000000000
ff3f0000000000
fe1f0000000000
fe1f0000000000
fe1f0000000000
fe1f0000000000
fe1f0000000000
fffe0000000000
fff80000000000
ENDCHAR
STARTCHAR CWa
ENCODING  32054
SWIDTH 1296 0
DWIDTH 55 0
BBX 51 34 1 -6
BITMAP
0000fffff00000
001ffffffe0000
007f1f8fff0000
01fc1f80ff8000
03f03f807f8000
0fe03f803fc000
1fc03f803fc000
1f803f801fc000
3f803f801fc000
3f003f801fc000
7f003f801fc000
7f003f801fc000
fe003f801fc000
fe003f801fc000
fe003f801fc000
fffc3ffe1fc000
fffe3fff1fc000
fe1f3f0f9fc000
fe1f3f0f9fc000
fe1f3f0f9fc000
fe1f3f0f9fc000
fe1f3f0f9fc000
fffe7f9f1fc000
fff87ffe1fc000
40003f803fc000
000000003fffc0
00000003ffffe0
0000003fffffc0
0000003fc00fc0
0000003f800fe0
0000003f0007e0
0000003f0007e0
0000007e0001c0
00000038000000
ENDCHAR
STARTCHAR Pe
ENCODING  32055
SWIDTH 624 0
DWIDTH 26 0
BBX 22 34 2 -1
BITMAP
03f800
07f800
03f800
03f800
03f800
03f800
03ff00
0f0fc0
3e0fe0
7e0fe0
7e0fe0
fe0fe0
fe0fe0
fe0fc0
fe1fc0
7e3f80
7fff00
3f7e00
01fc00
03f9c0
07ffe0
0ffff0
1fc7f0
3f07f8
7f07f8
7e07f8
7e07f8
fe03f8
fe03f8
fe03f8
fe03fc
fe03fc
ff03fc
fe01fc
ENDCHAR
STARTCHAR Pu
ENCODING  32056
SWIDTH 864 0
DWIDTH 36 0
BBX 32 34 2 -1
BITMAP
00f80000
07f80000
07f80000
03f80000
03f80000
03f80000
03ff0000
0f0f8000
3e0fc000
7e0fc000
7e0fe000
fc0fe000
fc0fc000
fc1fc000
fc1fc000
7e3f8000
7fff0000
3f7e0000
01fc0000
03f8c000
07fff000
0ffff000
1fc7f806
3f07f9fe
7f07fffe
7e07fcfe
7e07f8fe
fe03f87f
fe03f83f
fe03f81f
fe03fc00
fe03fc00
ff03fc00
fe01fc00
ENDCHAR
STARTCHAR Pi
ENCODING  32057
SWIDTH 888 0
DWIDTH 38 0
BBX 34 37 2 -4
BITMAP
03f8000000
07f8000000
03f8000000
03f8000000
03f8000000
03f8000000
03ff800000
0f0fc00000
3e0fe00000
7e0fe00000
7e0fe00000
7e0fe00000
fe0fe00000
fc0fc00000
7e1fc00000
7e3f800000
7fff000000
3f7e000000
01fc000000
03f9800000
07ffe00000
0fffe00000
1fc7f00000
3f07f00000
7f07f00000
7e07f80000
7e07f80000
fe03f80000
fe03f80600
fe03f83f80
fe03f83f00
fe03fc7f00
ff03ffff00
fe01fc7f00
0000007f80
0000003fc0
0000000e00
ENDCHAR
STARTCHAR Pa
ENCODING  32058
SWIDTH 624 0
DWIDTH 26 0
BBX 22 35 2 -2
BITMAP
03f800
07f800
03f800
03f800
03f800
03f800
03ff00
0f9fc0
3f0fc0
3e0fe0
7e0fe0
7e0fe0
fe0fe0
fe0fc0
7e1fc0
7e1f80
7f7f80
3f7f00
01fe00
03f800
0ff7e0
1fffe0
3ffff0
7f87f0
7f07f8
fe07f8
fe07f8
fe07f8
fe03f8
ff03f8
fe03f8
4003fc
0003fc
0003fc
0001f0
ENDCHAR
STARTCHAR PE
ENCODING  32059
SWIDTH 792 0
DWIDTH 34 0
BBX 30 34 2 -1
BITMAP
03f80000
07f80000
07f80000
03f80000
03f80000
03f80000
03ff0000
1f0f8000
3e0fc000
7e0fc000
7e0fe000
fe0fc000
fe0fc000
fc0fc000
fe1f8000
7e3f8000
7fff0000
3f7e0000
01fc0000
03f1c000
07ffe000
0ffff000
1fc7f000
3f07f800
7f07f800
7e07fff8
7e07f8f8
fe03f87c
fe03f87c
fe03f83c
fe03f87c
fe03f878
ff03fff8
fe01ffe0
ENDCHAR
STARTCHAR P
ENCODING  32060
SWIDTH 792 0
DWIDTH 35 0
BBX 31 34 1 -1
BITMAP
03f80000
07f80000
03f80000
03f80000
03f80000
03f80000
03ff8000
0f0fe000
3e0fe000
7e07e000
7e0ffffc
fe0ffffc
fe0fe3f8
fe0fe1fc
fe1fe1fc
7e3fc0fe
7fff803c
3fbf0000
00fe0000
01fce000
03fff000
07fff800
0fe3f800
1f83fc00
3f83fc00
3f03fc00
3f03fc00
7f01fc00
7f01fc00
7f01fc00
7f01fe00
7f01fe00
7f81fe00
7f00fe00
ENDCHAR
STARTCHAR Po
ENCODING  32061
SWIDTH 624 0
DWIDTH 26 0
BBX 22 34 2 -1
BITMAP
03f800
07f800
03f800
03f800
03f800
03f800
03ff00
0f0fc0
3e0fc0
3e0fe0
7e0fe0
7e0fe0
fe0fe0
fe0fc0
7e1fc0
7e3f80
7fff00
3f7e00
01fc00
03f9c0
07fff0
0ffff0
1fc7f8
3f07f8
7f07f8
7e03f8
7e03f8
fe03fc
fe03fc
fe03fc
fe01e0
fe0000
ff0000
fe0000
ENDCHAR
STARTCHAR PWa
ENCODING  32062
SWIDTH 624 0
DWIDTH 37 0
BBX 33 41 1 -8
BITMAP
01fc000000
03fc000000
01fc000000
01fc000000
01fc000000
01fc000000
01ff800000
07cfe00000
1f87e00000
1f07f00000
3f07f00000
3f07f00000
7f07f00000
7f07e00000
3f0fe00000
3f0fc00000
3fbfc00000
1fbf800000
00ff000000
01fc000000
07fbf00000
0ffff00000
1ffff80000
3fc3f80000
3f83fc0000
7f03fc0000
7f03fc0000
7f03fc0000
ff01fc0000
ff01fc0000
7f01fc0000
7801fe0000
0001fe0000
0001fe0e00
01ffffff00
01ffff3e00
01fc003e00
01f8003f00
01f8001f00
03f0000f80
03c0000000
ENDCHAR
STARTCHAR Se
ENCODING  32063
SWIDTH 624 0
DWIDTH 26 0
BBX 22 31 2 -1
BITMAP
000600
01ffc0
1f9fc0
3f0fe0
3e0fe0
7e0fe0
7e0fe0
7e0fc0
fe0fc0
fe1fc0
7e1f80
7f7f00
7fff00
1cfe00
01fc00
03f800
07f1c0
0fffe0
1ffff0
1fc7f0
3f07f0
7f07f8
7e07f8
7e07f8
fe03f8
fe03f8
fe03f8
fe03fc
fe03fc
ff03fc
fe01fc
ENDCHAR
STARTCHAR Su
ENCODING  32064
SWIDTH 864 0
DWIDTH 36 0
BBX 32 30 2 -1
BITMAP
00ff8000
0fffc000
3f0fc000
7e0fe000
7e0fe000
7c0fc000
fc0fc000
fc0fc000
fc1f8000
fc1f8000
fe7f0000
7fff0000
3efe0000
01fc0000
03f80000
07f0c000
0ffff000
1ffff000
1fc7f806
3f07f9fe
7f07fffe
7e07fcfe
7e07f8fe
fe03f87f
fe03f83f
fe03f81f
fe03fc00
fe03fc00
ff03fc00
fe01fc00
ENDCHAR
STARTCHAR Si
ENCODING  32065
SWIDTH 888 0
DWIDTH 38 0
BBX 34 34 2 -4
BITMAP
0006000000
01ffc00000
1f9fc00000
3f0fe00000
3e0fe00000
7e0fe00000
7e0fe00000
fe0fc00000
fc0fc00000
fe1fc00000
7e1f800000
7f7f000000
7fff000000
1cfe000000
01fc000000
03f8000000
07f1800000
0fffe00000
1fffe00000
1fc7f00000
3f07f00000
7f07f00000
7e07f80000
7e07f80000
fe03f80000
fe03f80600
fe03f83f80
fe03f83f00
fe03fc7f00
ff03ffff00
fe01fc7f00
0000007f80
0000003fc0
0000000e00
ENDCHAR
STARTCHAR Sa
ENCODING  32066
SWIDTH 600 0
DWIDTH 26 0
BBX 22 31 1 -1
BITMAP
000e00
01ff80
1f9fc0
3f0fe0
7e0fe0
7e0fe0
fe0fc0
fc0fc0
fc0fc0
fc1f80
fe1f80
7f7f00
7ffe00
1efe00
01fc00
03f800
07f1c0
0fffe0
1ffff0
3fc7f0
7f07f0
7f03f8
fe03f8
fe03f8
fe03f8
ff03f8
ff03f8
f003fc
0003fc
0001fc
000080
ENDCHAR
STARTCHAR SE
ENCODING  32067
SWIDTH 792 0
DWIDTH 33 0
BBX 29 31 2 -1
BITMAP
000e0000
01ff8000
1f9fc000
3e0fc000
7e0fe000
7e0fe000
fc0fc000
fc0fc000
fc1fc000
fc1f8000
fc3f8000
ff7f0000
7ffe0000
1cfe0000
01fc0000
03f80000
07f1c000
0fffe000
1ffff000
1fc7f000
3f07f000
7f07f800
7e07fff0
7e07fdf8
fe03f8f8
fe03f878
fe03f878
fe03f878
fe03f8f8
ff03fff0
fe01ffc0
ENDCHAR
STARTCHAR S
ENCODING  32068
SWIDTH 792 0
DWIDTH 34 0
BBX 30 31 2 -1
BITMAP
000e0000
01ff8000
1f9fc000
3e0fc000
7e0fe070
7e0ffff8
fc0ffff0
fc0fe7f0
fc0fc3f8
fc1fc1f8
fe3f80fc
7f7f8020
7fff0000
3cfe0000
01fc0000
03f80000
07f1c000
0fffe000
1ffff000
1fc7f000
3f07f800
7f07f800
7e07f800
7e07f800
fe03f800
fe03f800
fe03f800
fe03fc00
fe03fc00
ff03fc00
fe01fc00
ENDCHAR
STARTCHAR So
ENCODING  32069
SWIDTH 624 0
DWIDTH 26 0
BBX 22 31 2 -1
BITMAP
000600
01ffc0
1f9fc0
3f0fe0
3e0fe0
7e0fe0
7e0fe0
7e0fc0
fe0fc0
fe1fc0
7e1f80
7f7f00
7fff00
1cfe00
01fc00
03f800
07f1c0
0ffff0
1ffff0
1fc7f8
3f07f8
7f07f8
7e03f8
7e03f8
fe03fc
fe03fc
fe03fc
fe01e0
fe0000
ff0000
fe0000
ENDCHAR
STARTCHAR SWa
ENCODING  32070
SWIDTH 840 0
DWIDTH 37 0
BBX 33 37 1 -7
BITMAP
0006000000
01ffc00000
0f8fe00000
1f07e00000
3f07e00000
7e07e00000
7e07e00000
7e07e00000
7e0fc00000
7e0fc00000
7e1f800000
7f3f800000
3fff000000
1e7e000000
00fc000000
01fc000000
07f9c00000
0ffff00000
0ffff00000
1fe7f80000
3f83f80000
7f03f80000
7f01f80000
7f01f80000
ff01fc0000
ff01fc0000
7f01fc0000
7801fc0000
0001fc0000
0001fc0e00
01ffffff00
01fffe7e00
01fc007e00
01f8007f00
01f8003f00
03f0001f80
03c0000000
ENDCHAR
STARTCHAR `Se/S2e
ENCODING  32071
SWIDTH 528 0
DWIDTH 23 0
BBX 19 28 1 0
BITMAP
007fc0
03ffc0
0f9fe0
1f8fe0
1f07e0
3f07e0
3f07e0
7f07e0
7e07e0
7e07e0
7e07e0
7effe0
ffffe0
fe0fe0
fe0fe0
fe0fe0
fe0fc0
fe0fc0
fe0fc0
fe0fc0
fe0fc0
fe0fc0
fe1f80
fe1f80
ff3f00
7ff000
7f8000
3c0000
ENDCHAR
STARTCHAR `Su/S2u
ENCODING  32072
SWIDTH 792 0
DWIDTH 34 0
BBX 30 28 1 0
BITMAP
007fc000
03ffc000
0f8fe000
1f8fe000
3f07e000
3f07e000
3f07e000
7f07e000
7e07e000
7e07e000
7e0fe008
feffe3f8
fffffff8
fe0ffbf8
fe0fe3f8
fe0fe3f8
fe0fe1fc
fe0fc0fc
fe0fc000
fe0fc000
fe0fc000
fe0fc000
fe1f8000
fe1f8000
ff3f0000
7ff00000
7f800000
3c000000
ENDCHAR
STARTCHAR `Si/S2i
ENCODING  32073
SWIDTH 696 0
DWIDTH 31 0
BBX 27 34 1 -3
BITMAP
00ff0000
0fff8000
1f1fc000
3e0fe000
7e0fe000
7e0fe000
7fffe000
7fffe000
fe0fe000
fe0fe000
7e1fe000
7f1fc000
7fffc000
7fffc000
1fdfc000
003f8000
003f8000
003f8000
003f8000
007f8000
007f0000
007f0000
007f0000
00ff0000
00fe0000
00fe0000
00fe07c0
00fe1fc0
00fe1fc0
00ffff80
00ffffc0
00e01fc0
00001fe0
00000fe0
ENDCHAR
STARTCHAR `Sa/S2a
ENCODING  32074
SWIDTH 528 0
DWIDTH 22 0
BBX 18 32 2 -1
BITMAP
003e00
1fff00
3fff80
7e1fc0
fe1fc0
fc1fc0
fc1fc0
ffffc0
ffffc0
fc1fc0
fc1fc0
fe3fc0
fe3f80
ffff80
3fbf80
007f80
007f00
007f00
007f00
00ff00
00ff00
00fe00
00fe00
01fe00
01fe00
01fc00
01fc00
01fc00
01fc00
01fe00
01fe00
01e000
ENDCHAR
STARTCHAR `SE/S2E
ENCODING  32075
SWIDTH 648 0
DWIDTH 29 0
BBX 25 32 1 -1
BITMAP
001f0000
0fff8000
1f1fc000
3f0fe000
7e0fe000
7e0fe000
7e7fe000
7fffe000
7e0fe000
fe0fe000
7e1fe000
7f1fe000
7fffc000
7fffc000
1fdfc000
003fc000
003f8000
003f8000
003f8000
007f8000
007f8000
007f1800
007fff00
00ff3f00
00ff1f80
00fe0f80
00fe0f80
00fe1f80
00fe1f00
00fe3f00
00fffc00
00e01000
ENDCHAR
STARTCHAR `S/S2
ENCODING  32076
SWIDTH 600 0
DWIDTH 26 0
BBX 22 32 1 -1
BITMAP
000700
00ff00
00ff00
007f00
007f00
007f00
007f00
007f00
007ff0
00fff8
03f7f8
07c1fc
0f81fc
1f81fc
3f81fc
3f81fc
7f3ffc
7ffdfc
7f01fc
7f01fc
7f03fc
ff03fc
ff03fc
fe03f8
fe03f8
fe07f8
fe07f0
7f0fe0
7f1fc0
7fff80
3ff000
1f0000
ENDCHAR
STARTCHAR `So/S2o
ENCODING  32077
SWIDTH 600 0
DWIDTH 26 0
BBX 22 32 2 -1
BITMAP
0001c0
001ff8
0078fc
01f07c
03f07c
03e07c
07fffc
07fefc
07e0fc
07e0fc
07e0f8
07e0f8
07e0f8
07e1f0
03f3c0
03ff00
01f800
03f000
07e000
07c000
0fc000
1f8000
3f8000
3f0000
7f0000
7e0000
fe0000
fe0000
fe0000
fe0000
ff0000
fe0000
ENDCHAR
STARTCHAR fe
ENCODING  32079
SWIDTH 792 0
DWIDTH 34 0
BBX 30 28 1 0
BITMAP
0003f800
0007f800
0007f800
0003f800
0003f800
0007f000
0007f000
000fe000
001fc000
003fc000
007f8000
00ff0000
01fe0000
03fc0000
07f80000
0ff20000
1fff8000
3fdfc000
3f8fc000
7f0fc0f8
7f0fc3f0
7f0fc7f0
ff0fc7f0
ff0f9ff8
7f0ffff8
7fff03f8
7ff003fc
3f0001e0
ENDCHAR
STARTCHAR fu
ENCODING  32080
SWIDTH 792 0
DWIDTH 33 0
BBX 29 32 1 -1
BITMAP
000f8000
007f8000
007f8000
007f8000
007f0000
00ff0000
01fe0000
03fc0000
07f80000
0ff00000
1fe00000
3ffe0000
7fff8000
7f0fc1f0
fe1fc7f0
fe1fc7f0
7e1f8ff0
7e3ffff0
7ffffff8
3fff87f8
087f03f8
007f0000
00fe0000
00fe0000
00fe0000
01fc0000
01fc0000
01fc0000
03fc0000
03fc0000
03fc0000
01c00000
ENDCHAR
STARTCHAR fi
ENCODING  32081
SWIDTH 792 0
DWIDTH 35 0
BBX 31 30 1 0
BITMAP
00007800
0007f800
0007f800
0003f800
0003f800
0003f000
0007f000
000fe000
001fe000
003fc000
007f8000
00ff0000
00fe0000
01fe0000
03fc0000
07f8000c
0fff81fc
1fffc3fe
1f8fc1fe
3f0fc1fe
7f0fc1fe
7e0fc1fc
7e0fc1fc
7e0fc1f8
fe1fc3e0
ff3fff80
7ffff800
7fc00000
3f000000
0c000000
ENDCHAR
STARTCHAR fa
ENCODING  32082
SWIDTH 792 0
DWIDTH 34 0
BBX 30 31 1 -1
BITMAP
001f8000
007f8000
007f8000
003f8000
007f0000
00ff0000
01fe0000
03fc0000
07f80000
0ff00000
1ff00000
3fff8000
7fffc000
7f0fc000
7e0fc000
fe0fc000
fe1fc038
7f1ffff8
7ffffff8
001fc3f8
001fc3f8
001f81f8
001f81fc
001f807c
003f8000
003f8000
003f8000
003fc000
003fc000
003fc000
001c0000
ENDCHAR
STARTCHAR fE
ENCODING  32083
SWIDTH 936 0
DWIDTH 40 0
BBX 36 33 1 -4
BITMAP
0001f80000
0007f80000
0003f80000
0003f80000
0003f80000
0003f00000
0007f00000
000fe00000
001fe00000
003fc00000
007f800000
00ff000000
01ff000000
03fe000000
07f8000000
0ff0000000
1fff800000
1fffc00000
3f9fc00000
7f0fc00000
7f0fc00000
7f0fc07e00
fe0fc1ffc0
ff0fc7f7e0
ff0fffe3f0
7f1fffc3f0
7fff07c3f0
7ff007c3f0
3f000fc3f0
00000fc3f0
000007e3f0
000007ffe0
000003ff80
ENDCHAR
STARTCHAR f
ENCODING  32084
SWIDTH 768 0
DWIDTH 33 0
BBX 29 31 1 -1
BITMAP
00000060
003fffe0
01ffffe0
07fe0fe0
0ff00fe0
1fc007f0
3f8003f0
3f8001f0
7f000000
7f000000
7f000000
7f000000
7f7fc000
ff1fc000
ff0fc000
7f1fc000
7f1fc000
7f1fc070
7ffffff0
3ffffff0
001fc7f0
001fc7f0
001fc3f0
001fc1f8
001f80f8
003f8000
003f8000
003fc000
003fc000
003fc000
001c0000
ENDCHAR
STARTCHAR fo
ENCODING  32085
SWIDTH 792 0
DWIDTH 34 0
BBX 30 30 1 0
BITMAP
00003ff0
0000fff8
003ff9fc
01fff8fc
07e1f8fc
0fc1f8fc
1f81f8fc
3f81f8fc
3f81f8fc
7f01fdf8
7f00fff0
7f007000
7f000000
7f000000
7f000000
ff000000
ff1e0000
ffff0000
ffff8000
ff3f8000
ff1f8000
ff1f80f8
7e1f83f0
7e1f87f0
7f1f87f0
7f1fbff8
7fbffff8
3ffe03f8
3fe003fc
1f0001e0
ENDCHAR
STARTCHAR fWa
ENCODING  32086
SWIDTH 792 0
DWIDTH 34 0
BBX 30 36 1 -6
BITMAP
001f8000
007f8000
007f8000
003f8000
007f0000
00ff0000
01fe0000
03fc0000
07f80000
0ff00000
1fe00000
3fff8000
7fdfc000
7f0fc000
fe0fc000
fe0fc000
7e1fc038
7f1ffff8
3ffffff8
001f83f8
001f83f8
001f83f8
001f81fc
001f807c
003f8000
003f8000
003f8000
003f8000
001fdfe0
3fffffe0
3ff00fe0
3f800fe0
3f0007e0
3f0007e0
7e0003f0
38000000
ENDCHAR
STARTCHAR pe
ENCODING  32087
SWIDTH 816 0
DWIDTH 34 0
BBX 30 32 3 -1
BITMAP
00000ff8
000ffff0
0ffff7f0
ffff87f0
7e1f83f8
7e1f81f8
7e1f80fc
fc1f8000
f83f8000
f03f8000
003f8000
003f8000
003f8000
003f8000
003f8000
003f8000
003f8000
003f8000
003f8000
003f8000
003f0000
003f0000
003f0000
003f0000
003f0000
003f0000
003f0000
007f8000
007f8000
003f8000
003f8000
00100000
ENDCHAR
STARTCHAR pu
ENCODING  32088
SWIDTH 816 0
DWIDTH 34 0
BBX 30 32 3 -1
BITMAP
00000ff8
000ffff0
0ffff7f0
ffff87f0
7e1f83f8
7e1f81f8
7e1f80fc
fc1f8000
f81f8000
f03f8000
003f8000
003f8000
003f8000
003f81e0
003f87e0
003f8fe0
003f9fe0
003f9fe0
003fffe0
003feff0
003f8ff8
003f0380
003f0000
003f0000
003f0000
003f8000
003f8000
003f8000
003f8000
003f8000
003f8000
00100000
ENDCHAR
STARTCHAR pi
ENCODING  32089
SWIDTH 816 0
DWIDTH 33 0
BBX 29 35 3 -3
BITMAP
00000010
00001ff0
001ffff0
0fffe7f0
ffff87f0
7e1f83f0
7e1f83f8
7e1f80f8
fc1f8000
f83f8000
f03f8000
003f8000
003f8000
003f8000
003f8000
003f8000
003f0000
003f0000
003f0000
003f0000
003f0000
003f0000
003f0000
003f0000
003f0000
003f0000
007f0000
007f03f0
007f07e0
007f8fe0
007fffe0
003ffff0
003007f0
000007f8
000003f0
ENDCHAR
STARTCHAR pa
ENCODING  32090
SWIDTH 912 0
DWIDTH 38 0
BBX 34 34 3 -2
BITMAP
0000000380
000001ff80
0000ffff80
00fffe3f80
07fffc3f80
07f1fc1f80
07f1fc1fc0
07e1fc07c0
07e1fc0000
07c1fc0000
0f81fc0000
0001fc0000
0001fc0000
0001fc0000
0001f80000
0001f80000
0001f80000
0001f80000
0001f00000
0003f00000
0003f00000
0003e00000
0007c00000
000f800000
001f000000
003c000000
07f0000000
ff80000000
7e00000000
7e00000000
7e00000000
fc00000000
f800000000
f000000000
ENDCHAR
STARTCHAR pE
ENCODING  32091
SWIDTH 816 0
DWIDTH 34 0
BBX 30 32 3 -1
BITMAP
00000ff8
000ffff0
0ffff7f0
ffff87f0
7e1f83f8
7e1f83f8
7e1f80fc
fc1f8000
f81f8000
f03f8000
003f8000
003f8000
003f8000
003f8000
003f8000
003f8000
003f8000
003f8000
003f8000
003f8000
003f8000
003fff00
003fffc0
003f8fc0
003f07c0
003f07e0
003f07e0
003f07c0
007f8fc0
003fff80
003fff00
00300000
ENDCHAR
STARTCHAR p
ENCODING  32092
SWIDTH 816 0
DWIDTH 33 0
BBX 29 32 3 0
BITMAP
00000010
00000ff0
000ffff0
0ffffff0
ffff87f0
7e1f87f0
7e1f83f8
7e1f81f8
fc3f8000
f83f8000
f03f0000
003f3000
003ff000
0007f000
0007e000
0007e000
0007e000
0007e000
000fe000
000fe000
000fe000
000fe000
000fc000
000fc000
000fc000
000fc000
001fc000
001fc000
001fc000
001fe000
001fe000
000c0000
ENDCHAR
STARTCHAR po
ENCODING  32093
SWIDTH 1008 0
DWIDTH 42 0
BBX 38 32 3 -4
BITMAP
00000001f8
000000fff8
00003ffff8
001fffc3f8
00ffffc3f8
007e1fc1fc
007e1fc0fc
007e1fc000
007c1fc000
00f83f8000
00f03f8000
00003f8000
00007f0000
00007f0000
0000fe0000
0001fc0000
0003f80000
0007f00000
001fc00000
007f800000
01fe000000
07fc000000
0ff0000000
1fe0000000
3fc0000000
7f80000000
7f00000000
fe00000000
fe00000000
fe00000000
fe00000000
c000000000
ENDCHAR
STARTCHAR pWa
ENCODING  32094
SWIDTH 912 0
DWIDTH 52 0
BBX 48 42 -11 -10
BITMAP
00000000000e
0000000007fe
00000003fffe
000003fff8fe
00001ffff0fe
00001fc7f07e
00001fc7f07f
00001f87f01f
00001f87f000
00001f07f000
00003e07f000
00000007f000
00000007f000
00000007f000
00000007e000
00000007e000
00000007e000
00000007e000
00000007c000
0000000fc000
0000000fc000
0000000f8000
0000001f0000
0000003e0000
0000007c0000
000000f00000
00001fc00000
0003fe000000
0001f8000000
0001f8000000
0001f8000000
0003f0000000
0003e0000000
0003c0000000
003ffff00000
7fc007f00000
7f8007f00000
3f8003f00000
7f0003f80000
7f0001f80000
fe0000200000
7c0000000000
ENDCHAR
STARTCHAR mYa
ENCODING  32095
SWIDTH 936 0
DWIDTH 41 0
BBX 37 39 1 -1
BITMAP
0000001fc0
00fc003f80
00fe003f80
007f003f80
007f007f80
007fffff80
00fffff800
00007f0000
00007f0000
00007fffe0
03ffe7f1f8
0f87e7f1f8
1f07e7e1f8
3f0fc7e1f8
7e0fc7e1f8
7e0fcfe1f8
7e1fcfe1f8
fc1f8fc3f8
7c1f8fc3f8
7e3f8fe7f0
7f3f0ffff0
3ff0000fe0
1f80000fe0
0000000fe0
0000001fc0
0000001fc0
0000001fc0
0000003f80
0000003f80
0000007f80
0000007f00
0000007f00
000000fe00
000000fe00
000000fe00
000001fe00
000001fe00
000000ff00
000000fc00
ENDCHAR
STARTCHAR rYa
ENCODING  32096
SWIDTH 600 0
DWIDTH 36 0
BBX 32 36 1 0
BITMAP
0000007f
3f8000fe
3fc000fe
1fe000fe
1fe001fe
1ffffffe
3fffffe0
0007f800
0003f800
0003f800
0003f800
0003f800
0007f000
0007f000
000fe000
001fc000
003fc000
007f8000
00ff0000
01fe0000
03fc0000
07f00000
0fe00000
1fc00000
1f800000
3f01fe00
7f01fe00
7e01fe00
7e00fe00
fe00fc00
7e01fc00
7f01f800
7f87e000
3fff8000
3ff00000
0f000000
ENDCHAR
STARTCHAR fYa
ENCODING  32097
SWIDTH 792 0
DWIDTH 37 0
BBX 33 36 1 0
BITMAP
0000003f80
3f00007f00
3f80007f00
1fc0007f00
1fc000ff00
1fffffff00
3ffffff000
0007fc0000
0003f80000
0003f80000
0003f80000
0003f00000
0007f00000
000fe00000
001fe00000
003fc00000
007f800000
00ff000000
00fe000000
01fe000000
03fc000000
07f8000c00
0fff81fc00
1fffc3fe00
1f8fc1fe00
3f0fc1fe00
7f0fc1fe00
7e0fc1fc00
7e0fc1fc00
7e0fc1f800
fe1fc3e000
ff3fff8000
7ffff80000
7fc0000000
3f00000000
0c00000000
ENDCHAR
STARTCHAR Ethiopic-Space
ENCODING  32103
SWIDTH 192 0
DWIDTH 30 0
BBX 0 0 0 1
BITMAP
ENDCHAR
STARTCHAR Ethiopic-Wordspace
ENCODING  32104
SWIDTH 360 0
DWIDTH 13 0
BBX 9 21 5 4
BITMAP
0f00
7f80
7f80
7f00
7f00
7f00
ff00
ff00
7000
0000
0000
0000
0f00
7f00
7f00
7f00
fe00
fe00
fe00
fe00
f000
ENDCHAR
STARTCHAR Ethiopic-Full-Stop
ENCODING  32105
SWIDTH 744 0
DWIDTH 23 0
BBX 19 21 9 4
BITMAP
0001e0
030fe0
7f8fe0
3f8fe0
7f9fc0
7f1fc0
7f1fc0
ff1fc0
ff1c00
780000
000000
0003c0
071fe0
7f1fc0
7f1fc0
7f1fc0
7f3f80
fe3f80
fe3fc0
fe1800
f00000
ENDCHAR
STARTCHAR Ethiopic-Comma
ENCODING  32106
SWIDTH 600 0
DWIDTH 20 0
BBX 16 25 3 0
BITMAP
0001
7fff
ffff
ffff
f000
0000
0000
0000
0ff8
07f8
07f0
0ff0
0ff0
0ff0
0000
0000
0000
0000
01f0
0ff0
0ff0
0fe0
0fe0
1fe0
1f00
ENDCHAR
STARTCHAR Ethiopic-Semicolon
ENCODING  32107
SWIDTH 552 0
DWIDTH 22 0
BBX 18 30 4 1
BITMAP
0001c0
3fffc0
3fff80
3fff80
300000
000000
000400
03fc00
03fc00
03fc00
03f800
03f800
07fc00
000000
000000
000000
000000
00fc00
03fc00
03f800
03f800
07f800
07f800
07c000
000000
000000
03ff00
ffff00
ffff00
ff0000
ENDCHAR
STARTCHAR Ethiopic-Colon
ENCODING  32108
SWIDTH 744 0
DWIDTH 30 0
BBX 26 23 4 4
BITMAP
00038000
007f8000
007f8000
007f0000
007f0000
007f0000
007f0000
00000000
00000040
0000ffc0
01ffff80
ffffff80
ffffc000
ff800000
00000000
00000000
000e0000
00ff0000
00ff0000
00fe0000
00fe0000
01fe0000
00fe0000
ENDCHAR
STARTCHAR Ethiopic-Preface-Colon
ENCODING  32109
SWIDTH 744 0
DWIDTH 28 0
BBX 24 21 6 3
BITMAP
030000
7f8000
7f8000
7f0000
7f0000
7f0000
ff0000
ff0000
fc000f
003fff
003fff
003ffe
002000
ff0000
7f0000
7f0000
fe0000
fe0000
fe0000
fe0000
fe0000
ENDCHAR
STARTCHAR Ethiopic-Question-Mark
ENCODING  32110
SWIDTH 360 0
DWIDTH 13 0
BBX 9 33 5 1
BITMAP
0780
3f80
3f80
3f80
7f00
7f00
7f00
7f00
7800
0000
0000
0000
0f00
7f80
7f80
7f00
7f00
7f00
ff00
ff00
7000
0000
0000
0000
0f00
7f00
7f00
7f00
fe00
fe00
fe00
fe00
f000
ENDCHAR
STARTCHAR Ethiopic-End-Paragraph
ENCODING  32111
SWIDTH 600 0
DWIDTH 37 0
BBX 33 34 -6 -3
BITMAP
0000780000
0003f80000
0003f80000
0003f80000
0007f00000
0007f00380
0007f03f80
0f07f03f80
7f07803f80
7f00007f00
7f00007f00
fe00007f00
fe00f07f00
fe07f87800
fe07f80000
f007f00000
0007f00000
0007f00000
0007f00780
000ff03f80
0f0ff03f80
7f07003f80
7f00007f00
7f00007f00
fe00007f00
fe00f07f00
fe07f07800
fe07f00000
f007f00000
000fe00000
000fe00000
000fe00000
000fe00000
000f000000
ENDCHAR
STARTCHAR Ethiopic-1
ENCODING  32112
SWIDTH 648 0
DWIDTH 27 0
BBX 23 42 2 -2
BITMAP
0ffffc
0ffffc
0fc0fc
0fc0fc
0f807c
1f007e
1e0018
003e00
01fe00
01fe00
00fe00
00fe00
01fc00
01fc00
01f800
03f800
03ffc0
07ffe0
0fe3f0
0fe1f0
1fc1f8
1fc1f8
3f81f8
3f81f8
3f81f8
7f01f8
7f01f8
7f03f8
3f03f0
3f87e0
1fffc0
0ffe00
000000
000000
0000c0
ffffc0
7c07c0
7c07c0
7c07e0
f803e0
f001e0
400000
ENDCHAR
STARTCHAR Ethiopic-2
ENCODING  32113
SWIDTH 552 0
DWIDTH 25 0
BBX 21 42 1 -2
BITMAP
0ffff0
1ffbf0
0f83f0
0f83f0
1f81f0
1f01f8
1c0000
000000
00ffc0
07ffe0
0fc3f0
1fc3f0
3f83f0
3f83f0
3f87f0
7f07e0
7f0fe0
7f1fc0
7fff00
7ff000
7f0000
7f0000
3f0000
3f8c00
3fff80
3f8fc0
1f87c0
1fc7c0
0fc7c0
07c780
03ff80
00fe00
000000
000000
000180
7fff80
7e1f80
7e1f80
7c0f80
7c0fc0
f807c0
600000
ENDCHAR
STARTCHAR Ethiopic-3
ENCODING  32114
SWIDTH 576 0
DWIDTH 25 0
BBX 21 41 2 -1
BITMAP
0ffff0
0ffff0
0fc1f0
0fc1f0
0f81f8
1f00f8
0e0000
000000
000000
00fff0
1fffe0
1fc7e0
1fc3e0
1fc3f0
1fc1f8
1fc060
3fc000
3f8000
3f8000
3f8000
3f8000
3f8000
3f8000
7f8000
7f0000
7f0000
7f0000
7f0000
7f8000
7f8000
7f8000
300000
000000
000000
ffff80
7f1f80
7c1f80
7c1f80
fc0f80
f807c0
e00000
ENDCHAR
STARTCHAR Ethiopic-4
ENCODING  32115
SWIDTH 624 0
DWIDTH 27 0
BBX 23 41 1 -1
BITMAP
0ffffc
0ffefc
0fc07c
0fc07c
0f807e
0f003e
0e0000
000000
000000
00ffc0
01fff0
03e3f0
07e1f8
0fc1f8
0fc1f8
1fc1f8
1fc1f8
1fc1f8
1fc3f8
1fc3f8
3fc3f8
3f83f8
3f83f8
3f83f8
3f83f0
1f83f0
1f87e0
1f87e0
0fefc0
07ff80
00fe00
000000
000000
000000
00ffc0
7fffe0
7e07e0
7c07e0
7c03e0
f803e0
f001e0
ENDCHAR
STARTCHAR Ethiopic-5
ENCODING  32116
SWIDTH 624 0
DWIDTH 28 0
BBX 24 43 1 -2
BITMAP
000030
0ffff8
0ff1f8
0fc1f8
0fc0f8
0f80f8
1f0078
0e7f00
00ff80
007f00
007f00
007f00
00fe00
00fe00
01fe00
01fffe
03fffe
07f0fe
0fe0fe
0fe0fe
1fc07f
3f801e
3f8000
7f0000
7f0000
7f0000
ff00f8
ff03f0
ff07f0
7f07f0
7ffff8
3ffff8
1fe3fc
0003fc
0000c0
000000
07ffc0
3fffc0
3f07c0
3e07c0
3e07e0
7c03e0
7801c0
ENDCHAR
STARTCHAR Ethiopic-6
ENCODING  32117
SWIDTH 624 0
DWIDTH 27 0
BBX 23 43 2 -2
BITMAP
000070
3ffff8
1f81f8
1f01f0
1f01f8
3e00f8
3e0078
100000
000000
7c0000
7e0f00
3fffc0
3f9fc0
3f1fc0
7e1fc0
7c3f80
003f80
003f80
007f80
007f00
007f00
00ff00
00fef0
00fffc
01fe7c
01fc7e
01fc7e
03fc7e
03fc7c
03f8fc
03fff8
03c1e0
000000
000000
000000
000040
7fffe0
7e07e0
7c07c0
7c07e0
fc03e0
f801e0
600000
ENDCHAR
STARTCHAR Ethiopic-7
ENCODING  32118
SWIDTH 672 0
DWIDTH 29 0
BBX 25 42 2 -2
BITMAP
0ffff800
1ffef800
0f80f800
0f80f800
1f807c00
1f007e00
1c000000
00000000
00000000
00000000
03ff0000
7fff8000
7f1f8000
7e1f8000
7e3f8000
7c3f8000
f83f0000
f07f0000
007f0000
007e0000
00fe0000
00fe0000
00fc0000
00fc0000
01fc0000
01f81f00
01f87f00
03f87e00
03f8fe00
03fffe00
03e0ff00
00007f00
00007f80
00000000
00000000
0003fc00
0ffffc00
07c07c00
07c07c00
07c07e00
0f803e00
1f001c00
ENDCHAR
STARTCHAR Ethiopic-8
ENCODING  32119
SWIDTH 744 0
DWIDTH 33 0
BBX 29 42 1 -2
BITMAP
01ffff80
01ff0f80
00f80f80
00f80f80
01f007c0
01f007c0
01c00000
00000000
00000000
00000000
1ffffff0
3ffffff0
1f8fe7f0
1f8fc3f0
1f8fc3f0
3f1fc1f8
7e1fc060
001fc000
001fc000
001fc000
001fc000
001fc000
001fc000
003f8000
003f8000
003f8000
003f8fe0
7fffffe0
7ff807e0
7f0007e0
7e0007f0
7e0003f0
fc0001f0
70000000
00000000
03fffc00
0ffffc00
0fc0fc00
0fc0fc00
0f807c00
1f007e00
1e001800
ENDCHAR
STARTCHAR Ethiopic-9
ENCODING  32120
SWIDTH 624 0
DWIDTH 28 0
BBX 24 42 1 -2
BITMAP
07fffe
07fc7e
07e07e
07c07e
07c03e
0f801f
0e0000
000000
000000
00000c
01c1fc
1fe1fe
0fe1fe
0fe1fe
0ff0fe
0ff0fe
0fe0fe
0fe3fe
0ffffe
0ff8fe
0fe1fc
0fe1fc
0fe1fc
1fc1fc
1fc1f8
1fc1f8
1fc3f0
1fc3e0
1fc3c0
1fc780
0fff00
07f800
000000
000000
000060
7fffe0
7e07e0
3e03e0
7e03e0
7c03f0
f801f0
600000
ENDCHAR
STARTCHAR Ethiopic-10
ENCODING  32121
SWIDTH 576 0
DWIDTH 25 0
BBX 21 43 2 -2
BITMAP
0000e0
3ffff0
3f03f0
3f03f0
3e01f0
3e01f8
7c00f0
000000
000000
000000
01fe00
03fe00
01fe00
01fe00
01fe00
01fc00
01fc00
01fc00
01fc00
01fc00
03fc00
03fc00
03f800
03f800
03f800
03f800
03f800
03f800
07f800
03fc00
03f800
030000
000000
000000
000000
000000
7fffe0
7f07e0
7e07e0
7e03e0
7c03f0
f801f0
600000
ENDCHAR
STARTCHAR Ethiopic-20
ENCODING  32122
SWIDTH 744 0
DWIDTH 32 0
BBX 28 44 2 -3
BITMAP
07fffe00
07fffe00
03e03e00
03e03e00
07c03f00
07c01f00
07000000
00000000
00000000
01ffffe0
7fffffe0
7f1f8fe0
7f3f8fe0
7e3f87e0
7e3f87f0
fc7f81c0
207f0000
00ff0000
00fe0000
01fe0000
03fff000
07fff800
0ffffc00
0fc1fc00
1fc0fc00
3f80fc00
3f80fc00
3f80fc00
3f80fe00
3f80fe00
7f80fe00
7f80fe00
7f80ff00
3f00fe00
00000000
00000000
00000000
3ffff800
7ffff800
3e01f800
3e01f800
3e00f800
7c00fc00
78003000
ENDCHAR
STARTCHAR Ethiopic-30
ENCODING  32123
SWIDTH 768 0
DWIDTH 34 0
BBX 30 42 1 -2
BITMAP
00ffffc0
00ffefc0
00fc0fc0
00f80fc0
00f807c0
01f003e0
01c00000
00000000
00000000
00000000
00000000
00c07ff0
0781fff8
1f03f1fc
3f07f1fc
7f07e1fc
7e07e1fc
7e07e1fc
fe0fe1fc
fe0fe1fc
fe0fe1f8
fe0fc1f8
fe0fc3f8
7e0fc3f8
7e0fc3f8
7f1fc3f8
3f1f83f8
1fff03f8
0ff803f8
000003f8
000003f8
00000380
00000000
00000000
00000c00
0ffffc00
0fc0fc00
07c07c00
0fc07c00
0f807e00
1f003e00
0c000000
ENDCHAR
STARTCHAR Ethiopic-40
ENCODING  32124
SWIDTH 768 0
DWIDTH 33 0
BBX 29 44 2 -3
BITMAP
00000780
07ffff80
07e01f80
03e01f80
07e00f80
07c00fc0
0f800780
00000000
00000000
000381f0
1e3fc7f0
fe1fc7f8
fe1fc3f8
fe1fc3f8
fe1f83f8
fe1f87f0
fe1f87f0
fe1fcff0
fe1ffff0
fe3e3ff0
fe7c0fe0
fff00fe0
ff000fe0
00000fe0
00000fc0
00001fc0
00001fc0
00001fc0
00001fc0
00001f80
00003f80
00003f80
00003fc0
00003fc0
00001800
00000000
00000000
3ffff800
7ffff800
3e01f800
3e00f800
7c00f800
7c007c00
f0003000
ENDCHAR
STARTCHAR Ethiopic-50
ENCODING  32125
SWIDTH 624 0
DWIDTH 26 0
BBX 22 43 1 -3
BITMAP
1ffff8
1ffdf8
1f81f8
1f80f8
1f00f8
3e007c
1c0000
000000
00c1fc
1fc3fc
1fe1fc
1fc1fc
0fc1fc
0fc1f8
0fc1f8
0fc3f8
0fc3f8
0fe7f8
0ffff0
0ffff0
0307f0
0007f0
0007f0
0007f0
0007e0
000fe0
000fe0
000fe0
000fe0
001fc0
001fc0
001fe0
001fe0
000e00
000000
000000
7fffe0
7f87e0
7e07e0
7e03e0
7c03f0
f801f0
600000
ENDCHAR
STARTCHAR Ethiopic-60
ENCODING  32126
SWIDTH 744 0
DWIDTH 32 0
BBX 28 42 2 -2
BITMAP
03ffff00
03ffbf00
03f03f00
03e03f00
03e01f00
07c00f80
07800000
00000000
000000e0
3fffffe0
3ffff7e0
3f9fc7e0
3f1fc7e0
3f1fc3f0
7e1f83f0
781f8000
003f8000
003fe000
000fe000
000fe000
000fe000
000fe000
001fc000
001fc000
001fc000
001fc000
003fc000
00ffffc0
7fffffc0
7f000fc0
7f000fc0
7e000fe0
7e0007e0
fc0003e0
20000000
0007f800
1ffffc00
0f80f800
0f80f800
0f80fc00
1f007c00
1e003c00
ENDCHAR
STARTCHAR Ethiopic-70
ENCODING  32289
SWIDTH 744 0
DWIDTH 32 0
BBX 28 43 1 -3
BITMAP
03ffffc0
03ffefc0
01f00fc0
01f007c0
03e007c0
03c003e0
03800000
00000000
0000ffc0
0003ffe0
01ffe7f0
07ffc3f0
0f87c3f0
1f8fc3f0
3f0fc3f0
3f0fc3f0
3f07e7f0
7f07ffe0
7f03ff00
7f018000
7f000000
7f000000
fe000000
fe000000
fe003c00
7f00fc00
7f01fc00
7f81fc00
7fc1fc00
7ffffe00
3ffdfe00
1f80ff00
00007000
00000000
00000000
00003800
3ffffc00
3f00fc00
1f00fc00
3f007c00
3e007e00
7c003e00
10000000
ENDCHAR
STARTCHAR Ethiopic-80
ENCODING  32290
SWIDTH 984 0
DWIDTH 41 0
BBX 37 42 2 -2
BITMAP
007ffff000
007fe1f000
003e01f000
003e01f800
007c00f800
007800fc00
0070000000
0000000000
0000000000
0ffffffff0
7ffffffff0
7f3f8fe3f0
7e3f8fe3f0
7e3f8fe3f8
7c3f8fe1f8
f83f0fc060
003f0fc000
003f0fc000
007f0fc000
007f0fc000
007f1fc000
007f1fc000
007f1fc000
007f1fc000
007e1f8000
007e1f8000
007e1f8000
00fe1f8000
00fe1f8000
00fe1fc000
00fe1f8000
0070000000
0000000000
0000000000
0000000000
01ffffc000
03ffffc000
01f00fc000
01f00fc000
01f007c000
03e007e000
03c0010000
ENDCHAR
STARTCHAR Ethiopic-90
ENCODING  32291
SWIDTH 600 0
DWIDTH 26 0
BBX 22 43 2 -3
BITMAP
1ffff8
1ffdf8
0f80f8
0f80f8
1f00fc
1e007c
1c0000
000000
003fc0
1fffe0
7f8fe0
3f0fe0
3f0fe0
3f0fc0
7e1fc0
7c1fc0
701f80
001f80
003fe0
002fe0
000fe0
000fc0
001fc0
001fc0
001f80
003f80
003f80
003f00
007f00
007f00
007f00
007f00
007f00
006000
000000
000000
7fffe0
7f07e0
7e07e0
7e03e0
7c03e0
f801f0
600000
ENDCHAR
STARTCHAR Ethiopic-100
ENCODING  32292
SWIDTH 624 0
DWIDTH 27 0
BBX 23 43 2 -3
BITMAP
0ffffc
0ffefc
0fc0fc
0f80fc
0f807c
1f007e
1c0000
000000
007fe0
03fff0
07c3f0
0f83f0
1f83f0
1f83f0
3f03f0
3f03f0
3f07e0
3f87e0
3f8fc0
3fff00
3ff800
1fc000
1fc000
1fe000
0fe000
0fe000
0fe000
07e000
07e000
07e000
07e000
07f000
07f000
07e000
000000
000000
3fffe0
7fffe0
7e07e0
7e03e0
7c03e0
7c01f0
f000c0
ENDCHAR
STARTCHAR Ethiopic-10000
ENCODING  32293
SWIDTH 960 0
DWIDTH 43 0
BBX 39 44 1 -3
BITMAP
01ffffff80
01ffffff80
01f8001f80
01f8001f80
01f0000f80
01f0000fc0
03c0000300
0000000000
0000000000
01ff801ff8
07efc0fefc
1f8fe1f8fc
3f07e3f0fe
7f07e7e0fe
7e0fe7e0fe
7e0fe7e0fc
7e0fcfe0fc
7e0fcfe0fc
7e1f8fe1f8
fe3f07e3f0
7ffc07ffc0
7fe007fe00
7f0007f000
7f3ffff800
3ffffff800
3f8003f800
3f8003f800
3f8003f800
3f8003f800
3f8003f800
3f8003f800
3f8003f800
3fc003f800
3fc003f800
1e0003c000
0000000000
0000000000
01fffff800
0ffffffc00
0fc000f800
0fc000fc00
0f80007c00
0f80007c00
1e00003800
ENDCHAR
STARTCHAR Ethiopic-Gemination
ENCODING  32377
SWIDTH 408 0
DWIDTH 25 0
BBX 21 6 -5 14
BITMAP
c60318
fe03f8
fe03f8
fe03f8
fe03f8
7c01f0
ENDCHAR
STARTCHAR Ethiopic-Sarcasm-Mark
ENCODING  32378
SWIDTH 0 0
DWIDTH 8 0
BBX 4 28 4 -1
BITMAP
60
f0
f0
60
00
00
00
00
20
60
60
60
60
60
60
60
70
70
70
70
f0
f0
f0
f0
f0
f0
f0
70
ENDCHAR
STARTCHAR Ethiopic-Point
ENCODING  32379
SWIDTH 0 0
DWIDTH 9 0
BBX 5 5 2 -1
BITMAP
60
f0
f0
f0
60
ENDCHAR
STARTCHAR Ethiopic-Left-Quote
ENCODING  32380
SWIDTH 744 0
DWIDTH 29 0
BBX 23 25 2 3
BITMAP
001e00
003e0e
007e1e
00fc3e
01f87e
03f0fc
07e1f8
0fc3f0
1f87e0
3f0fc0
7e1f80
fc3f00
f83e00
fc3f00
7e1f80
3f0fc0
1f87e0
0fc3f0
07e1f8
03f0fc
01f87e
00fc3e
007e1e
003e0e
001e00
ENDCHAR
STARTCHAR Ethiopic-Right-Quote
ENCODING  32381
SWIDTH 744 0
DWIDTH 27 0
BBX 23 25 0 3
BITMAP
00f000
e0f800
f0fc00
f87e00
fc3f00
7e1f80
3f0fc0
1f87e0
0fc3f0
07e1f8
03f0fc
01f87e
00f83e
01f87e
03f0fc
07e1f8
0fc3f0
1f87e0
3f0fc0
7e1f80
fc3f00
f87e00
f0fc00
e0f800
00f000
ENDCHAR
STARTCHAR Ethiopic-Sylized-Question-Mark
ENCODING  32382
SWIDTH 312 0
DWIDTH 14 0
BBX 10 28 2 0
BITMAP
f000
fc00
fe00
0300
0100
0180
0180
00c0
00c0
01c0
01c0
07c0
3f80
3f00
3e00
3000
2000
2000
2000
0000
0000
0000
0000
0000
3000
7800
7800
3000
ENDCHAR
ENDFONT
